<?xml version="1.0" encoding="UTF-8"?>
<svg width="1087px" height="328px" viewBox="0 0 1087 328" version="1.1" xmlns="http://www.w3.org/2000/svg" xmlns:xlink="http://www.w3.org/1999/xlink">
    <title>2B hybrid cloud architecture + notes Copy</title>
    <defs>
        <polygon id="path-1" points="0 0 402 0 402 100 0 100"></polygon>
        <polygon id="path-3" points="0 0 162 0 162 100 0 100"></polygon>
        <polygon id="path-5" points="0 0 108 0 108 100 0 100"></polygon>
        <polygon id="path-7" points="0 0 108 0 108 100 0 100"></polygon>
        <polygon id="path-9" points="0 0 108 0 108 100 0 100"></polygon>
        <polygon id="path-11" points="0 0 108 0 108 100 0 100"></polygon>
        <polygon id="path-13" points="0 0 108 0 108 100 0 100"></polygon>
        <polygon id="path-15" points="0 0 572 0 572 100 0 100"></polygon>
    </defs>
    <g id="2B-hybrid-cloud-architecture-+-notes-Copy" stroke="none" stroke-width="1" fill="none" fill-rule="evenodd">
        <g id="Group-4" transform="translate(155.000000, 7.000000)">
            <mask id="mask-2" fill="white">
                <use xlink:href="#path-1"></use>
            </mask>
            <g id="Clip-3"></g>
            <polygon id="Fill-2" fill="#0043CE" mask="url(#mask-2)" points="-5 -5 407 -5 407 105 -5 105"></polygon>
            <polygon id="Fill-2" fill="#DA1E28" mask="url(#mask-2)" points="-5 97 407 97 407 105 -5 105"></polygon>
        </g>
        <g id="Group-7" transform="translate(565.000000, 7.000000)">
            <mask id="mask-4" fill="white">
                <use xlink:href="#path-3"></use>
            </mask>
            <g id="Clip-6"></g>
            <polygon id="Fill-5" fill="#6F6F6F" mask="url(#mask-4)" points="-5 -5 167 -5 167 105 -5 105"></polygon>
        </g>
        <g id="Group-10" transform="translate(155.000000, 223.000000)">
            <mask id="mask-6" fill="white">
                <use xlink:href="#path-5"></use>
            </mask>
            <g id="Clip-9"></g>
            <polygon id="Fill-8" fill="#0043CE" mask="url(#mask-6)" points="-5 -5 113 -5 113 105 -5 105"></polygon>
        </g>
        <g id="Group-13" transform="translate(271.000000, 223.000000)">
            <mask id="mask-8" fill="white">
                <use xlink:href="#path-7"></use>
            </mask>
            <g id="Clip-12"></g>
            <polygon id="Fill-11" fill="#6F6F6F" mask="url(#mask-8)" points="-5 -5 113 -5 113 105 -5 105"></polygon>
        </g>
        <g id="Group-16" transform="translate(387.000000, 223.000000)">
            <mask id="mask-10" fill="white">
                <use xlink:href="#path-9"></use>
            </mask>
            <g id="Clip-15"></g>
            <polygon id="Fill-14" fill="#0043CE" mask="url(#mask-10)" points="-5 -5 113 -5 113 105 -5 105"></polygon>
            <g id="ibm--z" mask="url(#mask-10)">
                <g transform="translate(8.000000, 77.000000)">
                    <path d="M13.125,14.7 L1.875,14.7 C1.78171875,14.7 1.70625,14.6245312 1.70625,14.53125 L1.70625,11.71875 C1.70625,11.6765625 1.7221875,11.6357812 1.75078125,11.6048438 L9.2259375,3.45 L1.875,3.45 C1.78171875,3.45 1.70625,3.37453125 1.70625,3.28125 L1.70625,0.46875 C1.70625,0.37546875 1.78171875,0.3 1.875,0.3 L13.125,0.3 C13.2182813,0.3 13.29375,0.37546875 13.29375,0.46875 L13.29375,3.28125 C13.29375,3.3234375 13.2778125,3.36421875 13.2492188,3.39515625 L5.7740625,11.55 L13.125,11.55 C13.2182813,11.55 13.29375,11.6254688 13.29375,11.71875 L13.29375,14.53125 C13.29375,14.6245313 13.2182813,14.7 13.125,14.7 Z M11.0554688,14.3625 L12.95625,14.3625 L12.95625,11.8875 L6.10546875,11.8875 L11.0554688,14.3625 Z M4.25765625,14.3625 L10.3007813,14.3625 L5.4665625,11.945625 L4.25765625,14.3625 Z M2.04375,14.3625 L3.87984375,14.3625 L5.16421875,11.7942187 L3.01828125,10.72125 L2.04375,11.784375 L2.04375,14.3625 Z M3.25546875,10.4625 L5.31515625,11.4923437 L8.919375,4.2834375 L3.25546875,10.4625 Z M9.68484375,3.50765625 L6.080625,10.7165625 L11.7445313,4.5375 L9.68484375,3.50765625 Z M9.83578125,3.20578125 L11.98125,4.27875 L12.95625,3.215625 L12.95625,0.6375 L11.1201563,0.6375 L9.83578125,3.20578125 Z M2.04375,3.1125 L8.89453125,3.1125 L3.94453125,0.6375 L2.04375,0.6375 L2.04375,3.1125 Z M4.69921875,0.6375 L9.53390625,3.05484375 L10.7428125,0.6375 C10.7428125,0.6375 4.69921875,0.6375 4.69921875,0.6375 Z" id="ibm--z" stroke="#FFFFFF" stroke-width="0.3" fill="#FFFFFF" fill-rule="nonzero"></path>
                    <rect id="_Transparent_Rectangle" stroke="none" fill="none" x="0" y="0" width="15" height="15"></rect>
                </g>
            </g>
        </g>
        <g id="Group-19" transform="translate(503.000000, 223.000000)">
            <mask id="mask-12" fill="white">
                <use xlink:href="#path-11"></use>
            </mask>
            <g id="Clip-18"></g>
            <polygon id="Fill-17" fill="#6F6F6F" mask="url(#mask-12)" points="-5 -5 113 -5 113 105 -5 105"></polygon>
        </g>
        <g id="Group-22" transform="translate(619.000000, 223.000000)">
            <mask id="mask-14" fill="white">
                <use xlink:href="#path-13"></use>
            </mask>
            <g id="Clip-21"></g>
            <polygon id="Fill-20" fill="#6F6F6F" mask="url(#mask-14)" points="-5 -5 113 -5 113 105 -5 105"></polygon>
        </g>
        <g id="Brand-/-IBM-/-watson-/-20" transform="translate(627.000000, 299.000000)" fill="#FFFFFF">
            <path d="M7.5,6 L8.5,6 L8.5,15 L7.5,15 L7.5,6 Z M5.665,9.11 C4.92180323,8.44598343 4.49693053,7.49662403 4.49693053,6.5 C4.49693053,5.50337597 4.92180323,4.55401657 5.665,3.89 L6.335,4.635 C5.80366295,5.10931871 5.49986486,5.78775194 5.49986486,6.5 C5.49986486,7.21224806 5.80366295,7.89068129 6.335,8.365 L5.665,9.11 Z M10.335,9.11 L9.665,8.365 C10.1963371,7.89068129 10.5001351,7.21224806 10.5001351,6.5 C10.5001351,5.78775194 10.1963371,5.10931871 9.665,4.635 L10.335,3.89 C11.0781968,4.55401657 11.5030695,5.50337597 11.5030695,6.5 C11.5030695,7.49662403 11.0781968,8.44598343 10.335,9.11 Z M4.2,10.9 C2.81506787,9.8613009 2,8.23116517 2,6.5 C2,4.76883483 2.81506787,3.1386991 4.2,2.1 L4.8,2.9 C3.66687371,3.74984472 3,5.08359214 3,6.5 C3,7.91640786 3.66687371,9.25015528 4.8,10.1 L4.2,10.9 Z M11.8,10.9 L11.2,10.1 C12.3331263,9.25015528 13,7.91640786 13,6.5 C13,5.08359214 12.3331263,3.74984472 11.2,2.9 L11.8,2.1 C13.1849321,3.1386991 14,4.76883483 14,6.5 C14,8.23116517 13.1849321,9.8613009 11.8,10.9 Z" id="Fill"></path>
        </g>
        <g id="Group-25" transform="translate(155.000000, 115.000000)">
            <mask id="mask-16" fill="white">
                <use xlink:href="#path-15"></use>
            </mask>
            <g id="Clip-24"></g>
            <polygon id="Fill-23" fill="#DA1E28" mask="url(#mask-16)" points="-5 -5 577 -5 577 105 -5 105"></polygon>
        </g>
        <g id="Group-5" transform="translate(408.000000, 157.000000)" fill="#FFFFFF">
            <g id="Group-3" fill-rule="nonzero">
                <path d="M75.7815004,12.6960745 C75.7815004,14.2125016 76.7071139,14.949481 78.3944084,14.949481 C78.9139996,14.9366561 79.4303272,14.8647051 79.9330564,14.7350681 L79.9330564,12.9741897 C79.6116669,13.0746229 79.2761634,13.124611 78.9389179,13.1223107 C78.2441807,13.1223107 77.9864215,12.9078978 77.9864215,12.2641414 L77.9864215,9.57103322 L80,9.57103322 L80,7.75836425 L77.9864215,7.75836425 L77.9864215,5.46663278 L75.7862444,5.93585509 L75.7862444,7.76198959 L74.3250822,7.76198959 L74.3250822,9.57465855 L75.7809733,9.57465855 L75.7815004,12.6960745 Z M68.9221557,12.736989 C68.9221557,12.2677667 69.3997217,12.0393704 70.1208147,12.0393704 C70.5614956,12.0418461 71.0003176,12.0957405 71.4280594,12.1999211 L71.4280594,13.1119526 C71.0067346,13.3388588 70.5327047,13.4544928 70.0522898,13.4475553 C69.3454289,13.4475553 68.9226828,13.1797982 68.9226828,12.736989 M69.5958084,14.9764121 C70.3006547,15.0026585 70.9960495,14.8104221 71.5835582,14.4269144 L71.5835582,14.8567759 L73.7605423,14.8567759 L73.7605423,10.3100842 C73.7605423,8.58079806 72.5776967,7.63199533 70.604179,7.63199533 C69.4383239,7.64740308 68.2899243,7.91251951 67.2390782,8.40885346 L68.0297504,10.0055559 C68.7118824,9.68120806 69.4515375,9.48985162 70.2077886,9.44207477 C71.113899,9.44207477 71.582504,9.79010721 71.582504,10.5017093 L71.582504,10.8497417 C71.0489373,10.7136474 70.4996958,10.6459306 69.9484482,10.6482765 C68.0961668,10.6482765 66.9807919,11.4132228 66.9807919,12.7820468 C66.9807919,14.0291631 67.9875812,14.9805553 69.5936999,14.9805553 M57.6281943,14.8609192 L59.9696382,14.8609192 L59.9696382,11.1837907 L63.8897908,11.1837907 L63.8897908,14.8609192 L66.2375601,14.8609192 L66.2375601,5.46922231 L63.8987518,5.46922231 L63.8987518,9.07695145 L59.9785991,9.07695145 L59.9785991,5.46922231 L57.6371553,5.46922231 L57.6281943,14.8609192 Z M48.7162566,11.3029089 C48.7148254,10.8271043 48.9058194,10.3702259 49.24723,10.0327823 C49.5886406,9.69533868 50.0525009,9.50497181 50.5367663,9.50355277 C50.5607184,9.50349144 50.5846652,9.50388505 50.6086067,9.50474132 C51.1683643,9.49376078 51.7117594,9.69052939 52.1303871,10.0557927 L52.1303871,12.5360417 C51.7209283,12.918017 51.1729491,13.1231593 50.6086067,13.1057377 C49.5960266,13.1372009 48.7492079,12.3561917 48.7171818,11.3613028 C48.7166196,11.3439115 48.7163139,11.3265185 48.7162566,11.3091238 M52.1599055,14.8635087 L54.3379438,14.8635087 L54.3379438,5 L52.1388526,5.46922231 L52.1388526,8.13850683 C50.7876391,7.35544345 49.0819223,7.48803217 47.8728399,8.47011235 C46.6637575,9.45219253 46.2104531,11.0732743 46.7391215,12.5244519 C47.26779,13.9756296 48.6651215,14.9458712 50.2338597,14.9510715 C50.928478,14.9543143 51.6058296,14.7384659 52.1662625,14.3352452 L52.1599055,14.8635087 Z M42.1658092,9.4073751 C42.8663927,9.4156632 43.4792729,9.87259964 43.6759931,10.5333015 L40.6714388,10.5333015 C40.8389779,9.8608559 41.4592446,9.39285852 42.1637008,9.4073751 M38.4533398,11.3205177 C38.4753085,13.3741074 40.1874827,15.0213732 42.2775892,14.9997903 C42.3092161,14.9994692 42.3408307,14.9987545 42.372433,14.9976462 C43.4783361,15.0318793 44.5553931,14.6475537 45.3812041,13.9240283 L43.9258402,12.644284 C43.541173,13.0108943 43.0195355,13.2052223 42.4841813,13.1813519 C41.7137151,13.2022027 41.0097896,12.7545703 40.7136027,12.0554255 L45.8450652,12.0554255 L45.8450652,11.5178397 C45.8450652,9.26443321 44.3074713,7.64235344 42.2111358,7.64235344 C40.1662273,7.61508408 38.4860009,9.22173877 38.458242,11.2309201 C38.4578519,11.259398 38.4577992,11.2878828 38.4580838,11.3163745 M34.6596947,7.44088823 C35.0751223,7.39305735 35.4815789,7.58391858 35.7046374,7.9315656 C35.9276959,8.27921261 35.9276959,8.72183282 35.7046374,9.06947984 C35.4815789,9.41712685 35.0751223,9.60798809 34.6596947,9.5601572 L32.3440794,9.5601572 L32.3440794,7.44088823 L34.6596947,7.44088823 Z M30,14.8578117 L32.3414439,14.8578117 L32.3414439,11.439636 L34.123619,11.439636 L35.9210804,14.8578117 L38.5392595,14.8578117 L36.4423969,11.1019616 C37.5332118,10.6636328 38.2439845,9.61855995 38.2388041,8.460644 C38.2388041,6.77071862 36.8914987,5.47025812 34.8737033,5.47025812 L30,5.47025812 L30,14.8578117 Z" id="bc00b453-a77e-4de6-9e85-1ef78845e0cf"></path>
                <path d="M16.0090722,10.9499972 C17.5866142,10.9499972 19.8687093,10.6097355 19.8687093,8.64586271 C19.87344,8.49436906 19.8603327,8.34284225 19.8296816,8.19468103 L18.889935,3.92560212 C18.6732283,2.98626544 18.4827114,2.55973264 16.90671,1.73506684 C15.6834988,1.08079982 13.0193427,0 12.2315988,0 C11.4977747,0 11.2846628,0.989706131 10.40962,0.989706131 C9.56744266,0.989706131 8.94197193,0.250775565 8.154228,0.250775565 C7.39780897,0.250775565 6.90482711,0.790371707 6.52379322,1.90010717 C6.52379322,1.90010717 5.46336871,5.02997913 5.32728518,5.48384004 C5.3056298,5.56725315 5.29627912,5.65362201 5.29955495,5.73997405 C5.29955495,6.95634272 9.87658336,10.9451746 16.0090722,10.9451746 M20.1105786,9.44480794 C20.2272069,9.88125006 20.3003436,10.32909 20.3288257,10.7812059 C20.3288257,12.6282644 18.3440603,13.6538722 15.7353646,13.6538722 C9.83960972,13.6565514 4.67305717,10.0412037 4.67305717,7.65133397 C4.67308354,7.31965739 4.73790911,6.99146797 4.86357412,6.68681257 C2.74477919,6.7950533 0,7.19104292 0,9.72719838 C0,13.8783913 9.40465594,19 16.8512496,19 C22.5605957,19 24,16.2977325 24,14.1639968 C24,12.4857296 22.6134885,10.580264 20.1126327,9.44320041" id="b76d9487-6c97-41fa-b15e-664a437b219a"></path>
            </g>
            <text id="Openshift" font-family="IBMPlexSans, IBM Plex Sans" font-size="12" font-weight="normal" letter-spacing="0.00977142857">
                <tspan x="30" y="32">Openshift</tspan>
            </text>
        </g>
        <g id="Group-5" transform="translate(566.000000, 157.000000)" fill="#FFFFFF">
            <g id="Group-3" fill-rule="nonzero">
                <path d="M75.7815004,12.6960745 C75.7815004,14.2125016 76.7071139,14.949481 78.3944084,14.949481 C78.9139996,14.9366561 79.4303272,14.8647051 79.9330564,14.7350681 L79.9330564,12.9741897 C79.6116669,13.0746229 79.2761634,13.124611 78.9389179,13.1223107 C78.2441807,13.1223107 77.9864215,12.9078978 77.9864215,12.2641414 L77.9864215,9.57103322 L80,9.57103322 L80,7.75836425 L77.9864215,7.75836425 L77.9864215,5.46663278 L75.7862444,5.93585509 L75.7862444,7.76198959 L74.3250822,7.76198959 L74.3250822,9.57465855 L75.7809733,9.57465855 L75.7815004,12.6960745 Z M68.9221557,12.736989 C68.9221557,12.2677667 69.3997217,12.0393704 70.1208147,12.0393704 C70.5614956,12.0418461 71.0003176,12.0957405 71.4280594,12.1999211 L71.4280594,13.1119526 C71.0067346,13.3388588 70.5327047,13.4544928 70.0522898,13.4475553 C69.3454289,13.4475553 68.9226828,13.1797982 68.9226828,12.736989 M69.5958084,14.9764121 C70.3006547,15.0026585 70.9960495,14.8104221 71.5835582,14.4269144 L71.5835582,14.8567759 L73.7605423,14.8567759 L73.7605423,10.3100842 C73.7605423,8.58079806 72.5776967,7.63199533 70.604179,7.63199533 C69.4383239,7.64740308 68.2899243,7.91251951 67.2390782,8.40885346 L68.0297504,10.0055559 C68.7118824,9.68120806 69.4515375,9.48985162 70.2077886,9.44207477 C71.113899,9.44207477 71.582504,9.79010721 71.582504,10.5017093 L71.582504,10.8497417 C71.0489373,10.7136474 70.4996958,10.6459306 69.9484482,10.6482765 C68.0961668,10.6482765 66.9807919,11.4132228 66.9807919,12.7820468 C66.9807919,14.0291631 67.9875812,14.9805553 69.5936999,14.9805553 M57.6281943,14.8609192 L59.9696382,14.8609192 L59.9696382,11.1837907 L63.8897908,11.1837907 L63.8897908,14.8609192 L66.2375601,14.8609192 L66.2375601,5.46922231 L63.8987518,5.46922231 L63.8987518,9.07695145 L59.9785991,9.07695145 L59.9785991,5.46922231 L57.6371553,5.46922231 L57.6281943,14.8609192 Z M48.7162566,11.3029089 C48.7148254,10.8271043 48.9058194,10.3702259 49.24723,10.0327823 C49.5886406,9.69533868 50.0525009,9.50497181 50.5367663,9.50355277 C50.5607184,9.50349144 50.5846652,9.50388505 50.6086067,9.50474132 C51.1683643,9.49376078 51.7117594,9.69052939 52.1303871,10.0557927 L52.1303871,12.5360417 C51.7209283,12.918017 51.1729491,13.1231593 50.6086067,13.1057377 C49.5960266,13.1372009 48.7492079,12.3561917 48.7171818,11.3613028 C48.7166196,11.3439115 48.7163139,11.3265185 48.7162566,11.3091238 M52.1599055,14.8635087 L54.3379438,14.8635087 L54.3379438,5 L52.1388526,5.46922231 L52.1388526,8.13850683 C50.7876391,7.35544345 49.0819223,7.48803217 47.8728399,8.47011235 C46.6637575,9.45219253 46.2104531,11.0732743 46.7391215,12.5244519 C47.26779,13.9756296 48.6651215,14.9458712 50.2338597,14.9510715 C50.928478,14.9543143 51.6058296,14.7384659 52.1662625,14.3352452 L52.1599055,14.8635087 Z M42.1658092,9.4073751 C42.8663927,9.4156632 43.4792729,9.87259964 43.6759931,10.5333015 L40.6714388,10.5333015 C40.8389779,9.8608559 41.4592446,9.39285852 42.1637008,9.4073751 M38.4533398,11.3205177 C38.4753085,13.3741074 40.1874827,15.0213732 42.2775892,14.9997903 C42.3092161,14.9994692 42.3408307,14.9987545 42.372433,14.9976462 C43.4783361,15.0318793 44.5553931,14.6475537 45.3812041,13.9240283 L43.9258402,12.644284 C43.541173,13.0108943 43.0195355,13.2052223 42.4841813,13.1813519 C41.7137151,13.2022027 41.0097896,12.7545703 40.7136027,12.0554255 L45.8450652,12.0554255 L45.8450652,11.5178397 C45.8450652,9.26443321 44.3074713,7.64235344 42.2111358,7.64235344 C40.1662273,7.61508408 38.4860009,9.22173877 38.458242,11.2309201 C38.4578519,11.259398 38.4577992,11.2878828 38.4580838,11.3163745 M34.6596947,7.44088823 C35.0751223,7.39305735 35.4815789,7.58391858 35.7046374,7.9315656 C35.9276959,8.27921261 35.9276959,8.72183282 35.7046374,9.06947984 C35.4815789,9.41712685 35.0751223,9.60798809 34.6596947,9.5601572 L32.3440794,9.5601572 L32.3440794,7.44088823 L34.6596947,7.44088823 Z M30,14.8578117 L32.3414439,14.8578117 L32.3414439,11.439636 L34.123619,11.439636 L35.9210804,14.8578117 L38.5392595,14.8578117 L36.4423969,11.1019616 C37.5332118,10.6636328 38.2439845,9.61855995 38.2388041,8.460644 C38.2388041,6.77071862 36.8914987,5.47025812 34.8737033,5.47025812 L30,5.47025812 L30,14.8578117 Z" id="bc00b453-a77e-4de6-9e85-1ef78845e0cf"></path>
                <path d="M16.0090722,10.9499972 C17.5866142,10.9499972 19.8687093,10.6097355 19.8687093,8.64586271 C19.87344,8.49436906 19.8603327,8.34284225 19.8296816,8.19468103 L18.889935,3.92560212 C18.6732283,2.98626544 18.4827114,2.55973264 16.90671,1.73506684 C15.6834988,1.08079982 13.0193427,0 12.2315988,0 C11.4977747,0 11.2846628,0.989706131 10.40962,0.989706131 C9.56744266,0.989706131 8.94197193,0.250775565 8.154228,0.250775565 C7.39780897,0.250775565 6.90482711,0.790371707 6.52379322,1.90010717 C6.52379322,1.90010717 5.46336871,5.02997913 5.32728518,5.48384004 C5.3056298,5.56725315 5.29627912,5.65362201 5.29955495,5.73997405 C5.29955495,6.95634272 9.87658336,10.9451746 16.0090722,10.9451746 M20.1105786,9.44480794 C20.2272069,9.88125006 20.3003436,10.32909 20.3288257,10.7812059 C20.3288257,12.6282644 18.3440603,13.6538722 15.7353646,13.6538722 C9.83960972,13.6565514 4.67305717,10.0412037 4.67305717,7.65133397 C4.67308354,7.31965739 4.73790911,6.99146797 4.86357412,6.68681257 C2.74477919,6.7950533 0,7.19104292 0,9.72719838 C0,13.8783913 9.40465594,19 16.8512496,19 C22.5605957,19 24,16.2977325 24,14.1639968 C24,12.4857296 22.6134885,10.580264 20.1126327,9.44320041" id="b76d9487-6c97-41fa-b15e-664a437b219a"></path>
            </g>
            <text id="Enterprise-Linux" font-family="IBMPlexSans, IBM Plex Sans" font-size="12" font-weight="normal" letter-spacing="0.00977142857">
                <tspan x="30" y="32">Enterprise Linux</tspan>
            </text>
        </g>
        <text id="IBM-Software" font-family="IBMPlexSans-SemiBold, IBM Plex Sans" font-size="14" font-weight="500" letter-spacing="0.0114" fill="#F4F4F4">
            <tspan x="163" y="25">IBM S</tspan>
            <tspan x="201.543" y="25" letter-spacing="-0.0726">o</tspan>
            <tspan x="209.2684" y="25">ft</tspan>
            <tspan x="219.4272" y="25" letter-spacing="-0.1706">w</tspan>
            <tspan x="230.5406" y="25">a</tspan>
            <tspan x="238.378" y="25" letter-spacing="-0.0586">r</tspan>
            <tspan x="243.7514" y="25">e</tspan>
        </text>
        <text id="Hybrid-Cloud-Softwar" font-family="IBMPlexSans-SemiBold, IBM Plex Sans" font-size="14" font-weight="500" letter-spacing="0.0114" fill="#000000">
            <tspan x="23" y="25">Hybrid Cloud </tspan>
            <tspan x="23" y="43">Software </tspan>
        </text>
        <text id="Hybrid-Cloud-Platfor" font-family="IBMPlexSans-SemiBold, IBM Plex Sans" font-size="14" font-weight="500" letter-spacing="0.0114" fill="#000000">
            <tspan x="23" y="133">Hybrid Cloud </tspan>
            <tspan x="23" y="151">Platform </tspan>
        </text>
        <text id="Infrastructure" font-family="IBMPlexSans-SemiBold, IBM Plex Sans" font-size="14" font-weight="500" letter-spacing="0.0114" fill="#000000">
            <tspan x="23" y="241">Inf</tspan>
            <tspan x="42.0882" y="241" letter-spacing="-0.1426">r</tspan>
            <tspan x="47.2936" y="241">a</tspan>
            <tspan x="55.131" y="241" letter-spacing="-0.1006">s</tspan>
            <tspan x="61.9044" y="241">tructu</tspan>
            <tspan x="101.5928" y="241" letter-spacing="-0.0586">r</tspan>
            <tspan x="106.9662" y="241">e</tspan>
        </text>
        <text id="Red-Hat-Hybrid-Cloud-Platform" font-family="IBMPlexSans-SemiBold, IBM Plex Sans" font-size="14" font-weight="500" letter-spacing="-0.0036" fill="#F4F4F4">
            <tspan x="163" y="133">R</tspan>
            <tspan x="172.0824" y="133" letter-spacing="0.2064">ed H</tspan>
            <tspan x="202.49" y="133" letter-spacing="0.1504">a</tspan>
            <tspan x="210.4104" y="133" letter-spacing="0.2064">t Hybrid Cloud Pl</tspan>
            <tspan x="323.3432" y="133" letter-spacing="0.1504">a</tspan>
            <tspan x="331.2636" y="133" letter-spacing="0.1644">t</tspan>
            <tspan x="336.622" y="133" letter-spacing="0.1504">f</tspan>
            <tspan x="341.6164" y="133" letter-spacing="0.2064">or</tspan>
            <tspan x="355.4132" y="133">m</tspan>
        </text>
        <text id="IBM-Cloud" font-family="IBMPlexSans-SemiBold, IBM Plex Sans" font-size="14" font-weight="500" letter-spacing="0.0114" fill="#F4F4F4">
            <tspan x="163" y="241">IBM Cloud</tspan>
        </text>
        <text id="Public-Clouds" font-family="IBMPlexSans-SemiBold, IBM Plex Sans" font-size="14" font-weight="500" letter-spacing="0.0114" fill="#F4F4F4">
            <tspan x="279" y="241">Public Clouds</tspan>
        </text>
        <text id="IBM-Systems" font-family="IBMPlexSans-SemiBold, IBM Plex Sans" font-size="14" font-weight="500" letter-spacing="0.0114" fill="#F4F4F4">
            <tspan x="395" y="241">IBM S</tspan>
            <tspan x="433.543" y="241" letter-spacing="-0.1006">ys</tspan>
            <tspan x="447.4398" y="241" letter-spacing="-0.0446">t</tspan>
            <tspan x="452.5752" y="241">ems</tspan>
        </text>
        <text id="Edge" font-family="IBMPlexSans-SemiBold, IBM Plex Sans" font-size="14" font-weight="500" letter-spacing="0.0014" fill="#F4F4F4">
            <tspan x="627" y="241">E</tspan>
            <tspan x="635.2614" y="241" letter-spacing="0.1414">d</tspan>
            <tspan x="643.8028" y="241" letter-spacing="0.0574">g</tspan>
            <tspan x="651.4062" y="241">e</tspan>
        </text>
        <text id="Enterprise-" font-family="IBMPlexSans-SemiBold, IBM Plex Sans" font-size="14" font-weight="500" letter-spacing="0.0114" fill="#F4F4F4">
            <tspan x="511" y="241">En</tspan>
            <tspan x="527.6548" y="241" letter-spacing="-0.0446">t</tspan>
            <tspan x="532.7902" y="241">erprise </tspan>
        </text>
        <text id="Infrastructure" font-family="IBMPlexSans-SemiBold, IBM Plex Sans" font-size="14" font-weight="500" letter-spacing="0.0114" fill="#F4F4F4">
            <tspan x="511" y="259">Inf</tspan>
            <tspan x="530.0882" y="259" letter-spacing="-0.1426">r</tspan>
            <tspan x="535.2936" y="259">a</tspan>
            <tspan x="543.131" y="259" letter-spacing="-0.1006">s</tspan>
            <tspan x="549.9044" y="259">tructu</tspan>
            <tspan x="589.5928" y="259" letter-spacing="-0.0586">r</tspan>
            <tspan x="594.9662" y="259">e</tspan>
        </text>
        <g id="data--base--alt" transform="translate(511.000000, 299.000000)">
            <rect id="Rectangle" fill="#FFFFFF" fill-rule="nonzero" x="9.5" y="12" width="3.5" height="1"></rect>
            <rect id="Rectangle" fill="#FFFFFF" fill-rule="nonzero" x="9.5" y="10" width="3.5" height="1"></rect>
            <rect id="Rectangle" fill="#FFFFFF" fill-rule="nonzero" x="9.5" y="8" width="3.5" height="1"></rect>
            <rect id="Rectangle" fill="#FFFFFF" fill-rule="nonzero" x="3" y="12" width="3.5" height="1"></rect>
            <rect id="Rectangle" fill="#FFFFFF" fill-rule="nonzero" x="3" y="10" width="3.5" height="1"></rect>
            <path d="M14,2 L8.5,2 C7.94797796,2.00063373 7.50063373,2.44797796 7.5,3 L7.5,6 L2,6 C1.44797796,6.00063373 1.00063373,6.44797796 1,7 L1,14 C1.00063373,14.552022 1.44797796,14.9993663 2,15 L14,15 C14.552022,14.9993663 14.9993663,14.552022 15,14 L15,3 C14.9993663,2.44797796 14.552022,2.00063373 14,2 Z M7.5,14 L2,14 L2,7 L7.5,7 L7.5,14 Z M8.5,14 L8.5,3 L14,3 L14,14 L8.5,14 Z" id="Shape" fill="#FFFFFF" fill-rule="nonzero"></path>
            <rect id="_Transparent_Rectangle_" x="0" y="0" width="16" height="16"></rect>
        </g>
        <text id="IBM-Cloud-Paks" font-family="IBMPlexSans, IBM Plex Sans" font-size="14" font-weight="normal" letter-spacing="0.0114" fill="#F4F4F4">
            <tspan x="163" y="44">IBM Cloud </tspan>
            <tspan x="232.246" y="44" letter-spacing="-0.1286">P</tspan>
            <tspan x="240.4614" y="44">a</tspan>
            <tspan x="247.9488" y="44" letter-spacing="-0.1286">k</tspan>
            <tspan x="255.0582" y="44">s</tspan>
        </text>
        <text id="IBM-Wazi-Developer" font-family="IBMPlexSans, IBM Plex Sans" font-size="14" font-weight="normal" letter-spacing="0.0114" fill="#F4F4F4">
            <tspan x="309" y="25">IBM Wazi </tspan>
            <tspan x="309" y="43">Developer</tspan>
        </text>
        <text id="Other-IBM-Software" font-family="IBMPlexSans, IBM Plex Sans" font-size="14" font-weight="normal" letter-spacing="0.0114" fill="#F4F4F4">
            <tspan x="437" y="25">Other IBM </tspan>
            <tspan x="437" y="43">Software</tspan>
        </text>
        <text id="Development,-Securit" font-family="IBMPlexSans, IBM Plex Sans" font-size="14" font-weight="normal" letter-spacing="0.0114" fill="#FFFFFF">
            <tspan x="408" y="133">D</tspan>
            <tspan x="417.4054" y="133" letter-spacing="-0.1006">ev</tspan>
            <tspan x="431.5542" y="133">elopment, Security and Ope</tspan>
            <tspan x="606.4166" y="133" letter-spacing="-0.0446">r</tspan>
            <tspan x="611.454" y="133">ational Se</tspan>
            <tspan x="673.658" y="133" letter-spacing="0.1514">r</tspan>
            <tspan x="679.0874" y="133">vi</tspan>
            <tspan x="689.4982" y="133" letter-spacing="-0.0726">c</tspan>
            <tspan x="696.3836" y="133">es</tspan>
        </text>
        <text id="AWS-Azure" font-family="IBMPlexSans, IBM Plex Sans" font-size="14" font-weight="normal" letter-spacing="-0.0043" fill="#F4F4F4">
            <tspan x="279" y="266">A</tspan>
            <tspan x="287.9137" y="266" letter-spacing="0.0517">WS </tspan>
            <tspan x="311.9808" y="266" letter-spacing="0.1917">A</tspan>
            <tspan x="321.2865" y="266" letter-spacing="0.0517">zu</tspan>
            <tspan x="335.8379" y="266" letter-spacing="-0.0183">r</tspan>
            <tspan x="340.8876" y="266">e</tspan>
        </text>
        <text id="Others-" font-family="IBMPlexSans, IBM Plex Sans" font-size="14" font-weight="normal" letter-spacing="-0.0003" fill="#F4F4F4">
            <tspan x="279" y="284">Others </tspan>
        </text>
        <g id="cloudy" transform="translate(279.000000, 299.000000)">
            <path d="M15.00025,7.75025 C14.9929077,6.20914314 13.9093405,4.88286116 12.40065,4.56835 C11.9615396,2.48852779 10.1261713,1.00019844 8.0005,1.00019844 C5.87482873,1.00019844 4.03946039,2.48852779 3.60035,4.56835 C2.09146907,4.8826452 1.00767504,6.20900068 1.00035,7.75025 C1.00070182,8.55517969 1.30185024,9.33092176 1.8447,9.92525 C1.00668137,10.7887912 0.767654688,12.0703971 1.23805044,13.1779648 C1.70844619,14.2855326 2.7966851,15.0034348 4,15.0000235 L9.5,15.0000235 C10.4846822,15.0038955 11.4080751,14.5224359 11.968611,13.7128596 C12.5291468,12.9032833 12.6548621,11.8695264 12.3047,10.9492 C13.8607063,10.6787405 14.9975538,9.32958429 15.00025,7.75025 L15.00025,7.75025 Z M9.5,14.0000046 L4,14.0000046 C2.96142715,14.0020755 2.09476209,13.2074589 2.00691469,12.1726059 C1.9190673,11.1377529 2.63938834,10.208419 3.66345,10.0354 L3.995,9.979 L4.0679,9.6509 C4.34767031,8.39404322 5.46263189,7.49997828 6.75025,7.49997828 C8.03786811,7.49997828 9.15282969,8.39404322 9.4326,9.6509 L9.5055,9.979 L9.8368,10.0354 C10.8609104,10.2084256 11.5812442,11.1378344 11.4933278,12.1727309 C11.4054115,13.2076275 10.5386218,14.0022072 9.5,14.0000046 L9.5,14.0000046 Z M11.75,10 L11.7223,10 C11.3483874,9.58137631 10.8637818,9.27694437 10.32435,9.1218 C9.83296745,7.56115784 8.3859226,6.49969571 6.74975,6.49969571 C5.1135774,6.49969571 3.66653255,7.56115784 3.17515,9.1218 C2.99730353,9.17358225 2.8246465,9.24175792 2.6594,9.32545 C2.23858643,8.90915677 2.0012428,8.34218122 2,7.75025 C2.00535854,6.57918438 2.90492266,5.60646554 4.072,5.50975 L4.47975,5.4778 L4.5293,5.0718 C4.74414803,3.31807435 6.2334129,2.0001243 8.00025,2.0001243 C9.7670871,2.0001243 11.256352,3.31807435 11.4712,5.0718 L11.5205,5.4778 L11.9282,5.50975 C13.1320525,5.60495873 14.0457737,6.63400715 13.9978888,7.84066889 C13.9500039,9.04733064 12.9576114,10.0007373 11.75,10.0002502 L11.75,10 Z" id="Shape" fill="#FFFFFF" fill-rule="nonzero"></path>
            <rect id="_Transparent_Rectangle_" x="0" y="0" width="16" height="16"></rect>
        </g>
        <text id="Software-and-SaaS-" font-family="IBMPlexSans-SemiBold, IBM Plex Sans" font-size="14" font-weight="500" letter-spacing="0.0114" fill="#F4F4F4">
            <tspan x="573" y="25">S</tspan>
            <tspan x="581.5654" y="25" letter-spacing="-0.0726">o</tspan>
            <tspan x="589.2908" y="25">ft</tspan>
            <tspan x="599.4496" y="25" letter-spacing="-0.1706">w</tspan>
            <tspan x="610.563" y="25">a</tspan>
            <tspan x="618.4004" y="25" letter-spacing="-0.0586">r</tspan>
            <tspan x="623.7738" y="25">e and SaaS </tspan>
        </text>
        <text id="Partners" font-family="IBMPlexSans-SemiBold, IBM Plex Sans" font-size="14" font-weight="500" letter-spacing="-0.0026" fill="#F4F4F4">
            <tspan x="573" y="43">P</tspan>
            <tspan x="581.7754" y="43" letter-spacing="0.1934">a</tspan>
            <tspan x="589.7948" y="43" letter-spacing="0.2494">r</tspan>
            <tspan x="595.6022" y="43" letter-spacing="0.1934">tner</tspan>
            <tspan x="623.1578" y="43">s</tspan>
        </text>
        <text id="Red-Hat-Hybrid-Cloud-platform" font-family="IBMPlexSans-SemiBold, IBM Plex Sans" font-size="14" font-weight="500" letter-spacing="-0.0036" fill="#000000">
            <tspan x="763" y="25">R</tspan>
            <tspan x="772.0824" y="25" letter-spacing="0.2064">ed H</tspan>
            <tspan x="802.49" y="25" letter-spacing="0.1504">a</tspan>
            <tspan x="810.4104" y="25" letter-spacing="0.2064">t Hybrid Cloud pl</tspan>
            <tspan x="922.7692" y="25" letter-spacing="0.1504">a</tspan>
            <tspan x="930.6896" y="25" letter-spacing="0.1644">t</tspan>
            <tspan x="936.048" y="25" letter-spacing="0.1504">f</tspan>
            <tspan x="941.0424" y="25" letter-spacing="0.2064">or</tspan>
            <tspan x="954.8392" y="25">m</tspan>
        </text>
        <g id="Group" transform="translate(743.000000, 184.000000)">
            <circle id="Oval" fill="#000000" cx="6" cy="6" r="6"></circle>
            <text id="2" font-family="IBMPlexSans-SemiBold, IBM Plex Sans" font-size="9" font-weight="500" letter-spacing="0.239999995" fill="#FFFFFF">
                <tspan x="3" y="9">2</tspan>
            </text>
        </g>
        <g id="Group" transform="translate(743.000000, 14.000000)">
            <circle id="Oval" fill="#000000" cx="6" cy="6" r="6"></circle>
            <text id="1" font-family="IBMPlexSans-SemiBold, IBM Plex Sans" font-size="9" font-weight="500" letter-spacing="0.239999995" fill="#FFFFFF">
                <tspan x="3" y="9">1</tspan>
            </text>
        </g>
        <g id="Group-2" transform="translate(739.000000, 180.000000)">
            <circle id="Oval" fill="#000000" cx="10" cy="10" r="6"></circle>
            <g id="Organization-/-Alphanumeric-/-number--small--2-/-16" fill="#FFFFFF">
                <path d="M11.875,13.125 L8.125,13.125 L8.125,10.625 C8.125,9.93464406 8.68464406,9.375 9.375,9.375 L10.625,9.375 L10.625,8.125 L8.125,8.125 L8.125,6.875 L10.625,6.875 C11.3153559,6.875 11.875,7.43464406 11.875,8.125 L11.875,9.375 C11.875,10.0653559 11.3153559,10.625 10.625,10.625 L9.375,10.625 L9.375,11.875 L11.875,11.875 L11.875,13.125 Z" id="Fill"></path>
            </g>
        </g>
        <g id="Group" transform="translate(739.000000, 10.000000)">
            <circle id="Oval" fill="#000000" cx="10" cy="10" r="6"></circle>
            <g fill="#FFFFFF" id="Organization-/-Alphanumeric-/-number--small--1-/-16">
                <polygon id="Fill" points="10.625 11.875 10.625 6.875 9.375 6.875 9.375 7.5 8.125 7.5 8.125 8.75 9.375 8.75 9.375 11.875 8.125 11.875 8.125 13.125 11.875 13.125 11.875 11.875"></polygon>
            </g>
        </g>
        <text id="Integrated-hybrid-fa" font-family="IBMPlexSans, IBM Plex Sans" font-size="12" font-weight="normal" line-spacing="16" letter-spacing="0.319999993" fill="#171717">
            <tspan x="763" y="49">Integrated hybrid fabric across all existing </tspan>
            <tspan x="763" y="65">infrastructure along with new cloud aspirations</tspan>
            <tspan x="763" y="81">- Hardened container platform</tspan>
            <tspan x="763" y="97">- Expansive access to open source</tspan>
            <tspan x="763" y="113">- Flexible and unified data platform </tspan>
            <tspan x="763" y="129">- Utilizes industry-leading RHEL technology</tspan>
            <tspan x="763" y="145">- &lt;Seamless integration with major public cloud </tspan>
            <tspan x="763" y="161">providers &amp; on-prem infra&gt;</tspan>
        </text>
        <text id="Pre-certified-softwa" font-family="IBMPlexSans, IBM Plex Sans" font-size="12" font-weight="normal" line-spacing="16" letter-spacing="0.319999993" fill="#171717">
            <tspan x="763" y="219">Pre-certified software and solutions which can be </tspan>
            <tspan x="763" y="235">seamlessly deployed anywhere in the hybrid estate </tspan>
            <tspan x="763" y="251">(Cloud Paks)</tspan>
        </text>
        <text id="IBM-Software" font-family="IBMPlexSans-SemiBold, IBM Plex Sans" font-size="14" font-weight="500" letter-spacing="0.0114" fill="#000000">
            <tspan x="763" y="195">IBM S</tspan>
            <tspan x="801.543" y="195" letter-spacing="-0.0726">o</tspan>
            <tspan x="809.2684" y="195">ft</tspan>
            <tspan x="819.4272" y="195" letter-spacing="-0.1706">w</tspan>
            <tspan x="830.5406" y="195">a</tspan>
            <tspan x="838.378" y="195" letter-spacing="-0.0586">r</tspan>
            <tspan x="843.7514" y="195">e</tspan>
        </text>
        <g id="Group-2" transform="translate(146.000000, -2.000000)">
            <circle id="Oval" fill="#000000" cx="10" cy="10" r="6"></circle>
            <g id="Organization-/-Alphanumeric-/-number--small--2-/-16" fill="#FFFFFF">
                <path d="M11.875,13.125 L8.125,13.125 L8.125,10.625 C8.125,9.93464406 8.68464406,9.375 9.375,9.375 L10.625,9.375 L10.625,8.125 L8.125,8.125 L8.125,6.875 L10.625,6.875 C11.3153559,6.875 11.875,7.43464406 11.875,8.125 L11.875,9.375 C11.875,10.0653559 11.3153559,10.625 10.625,10.625 L9.375,10.625 L9.375,11.875 L11.875,11.875 L11.875,13.125 Z" id="Fill"></path>
            </g>
        </g>
        <g id="Group" transform="translate(146.000000, 107.000000)">
            <circle id="Oval" fill="#000000" cx="10" cy="10" r="6"></circle>
            <g fill="#FFFFFF" id="Organization-/-Alphanumeric-/-number--small--1-/-16">
                <polygon id="Fill" points="10.625 11.875 10.625 6.875 9.375 6.875 9.375 7.5 8.125 7.5 8.125 8.75 9.375 8.75 9.375 11.875 8.125 11.875 8.125 13.125 11.875 13.125 11.875 11.875"></polygon>
            </g>
        </g>
        <line x1="408.5" y1="142.5" x2="711.5" y2="142.5" id="Line-3" stroke="#FFFFFF" stroke-linecap="square"></line>
        <g id="Brand-/-IBM-/-watson-/-20" transform="translate(163.000000, 83.000000)" fill="#FFFFFF">
            <path d="M10.7011765,4.745 C9.87832166,4.24805277 8.94645457,3.99103847 8,4 C7.86330216,3.98325694 7.72968647,4.05132495 7.65637737,4.17505213 C7.58306826,4.29877931 7.58306826,4.45622069 7.65637737,4.57994787 C7.72968647,4.70367505 7.86330216,4.77174306 8,4.755 C8.30205881,4.7597214 8.60301489,4.7948789 8.89882353,4.86 C7.83529412,5.4 6.65882353,6.65 5.73176471,8.36 C5.3433068,9.06160672 5.02773024,9.80597294 4.79058824,10.58 C4.30617286,10.0192616 3.95449831,9.34394158 3.76470588,8.61 C3.63742834,8.16598766 3.68496915,7.68612258 3.89647059,7.28 C4.26823529,6.595 5.04470588,6.205 6.07529412,6.18 C6.17015895,6.17738245 6.26015564,6.13481399 6.32546936,6.06166704 C6.39078309,5.98852008 6.42605868,5.89079204 6.42352941,5.79 C6.42233541,5.68875994 6.38266245,5.59233481 6.31353139,5.52264981 C6.24440032,5.45296481 6.15168627,5.41594213 6.05647059,5.42 C4.79529412,5.44 3.81176471,5.96 3.29411765,6.87 C2.98379297,7.44489453 2.90894998,8.12985674 3.08705882,8.765 C3.36816609,9.75871462 3.88701591,10.6579868 4.59294118,11.375 C4.48198588,11.9080844 4.44394751,12.4553812 4.48,13 C4.05882032,12.4935444 3.7386465,11.9016231 3.53882353,11.26 C3.51378397,11.1612962 3.45190451,11.0777319 3.36750748,11.0286483 C3.28311045,10.9795648 3.18351199,10.969217 3.09176471,11 C2.99658129,11.0305102 2.9176462,11.1017403 2.87389961,11.196599 C2.83015302,11.2914577 2.82554328,11.4013834 2.86117647,11.5 C3.27420708,12.8471951 4.14274615,13.9837992 5.29882353,14.69 C6.11947867,15.1954568 7.05142888,15.4611195 8,15.4600035 C8.47653401,15.4600035 8.95106104,15.3944193 9.41176471,15.265 C11.5140095,14.6588447 13.0679715,12.7705385 13.3528296,10.4759915 C13.6376876,8.18144448 12.5977073,5.92960037 10.7152941,4.765 L10.7011765,4.745 Z M9.21411765,14.53 C8.01297343,14.8747704 6.73193773,14.6947307 5.65647059,14.03 C5.25176471,13.785 5.08705882,13.03 5.21411765,12.03 C5.58087805,12.3493485 5.97114825,12.6369368 6.38117647,12.89 C7.36666218,13.5219803 8.4914828,13.8668928 9.64235294,13.89 C10.0256685,13.8882777 10.4076181,13.8413231 10.7811765,13.75 C10.3099412,14.1129402 9.77819037,14.377618 9.21411765,14.53 L9.21411765,14.53 Z M12.0658824,12.2 C11.1247059,13.2 8.93176471,13.57 6.73882353,12.225 C6.25228292,11.9224695 5.7965211,11.5672433 5.37882353,11.165 C5.60597541,10.3059427 5.93488075,9.48101092 6.35764706,8.71 C7.74117647,6.17 9.57176471,4.925 10.3435294,5.4 C12.5773301,6.77986817 13.3461716,9.81532174 12.0658824,12.2 L12.0658824,12.2 Z M2.42823529,5.86 L1.00705882,5 C0.896425458,4.91770005 0.751594196,4.90863403 0.632630796,4.97656188 C0.513667396,5.04448974 0.440862597,5.1778255 0.444410678,5.32127093 C0.447958759,5.46471636 0.527254548,5.59380499 0.649411765,5.655 L2.07058824,6.5 C2.12576578,6.53110585 2.18697106,6.54821917 2.24941176,6.55 C2.37723553,6.54930618 2.49525891,6.47710627 2.56,6.36 C2.64680361,6.18246542 2.58918612,5.96382764 2.42823529,5.86 L2.42823529,5.86 Z M4.37176471,3.795 C4.42971932,3.91863955 4.54766556,3.99768622 4.67764706,4.0000112 C4.7403778,4.00051504 4.80210419,3.98325602 4.85647059,3.95 C5.01742141,3.84617236 5.0750389,3.62753458 4.98823529,3.45 L4.16941176,1.95 C4.07016563,1.78080715 3.86472983,1.72187275 3.69882353,1.815 C3.53584624,1.91718329 3.47771974,2.13775259 3.56705882,2.315 L4.37176471,3.795 Z M8,3.04 C8.19752302,3.04 8.35764706,2.8698682 8.35764706,2.66 L8.35764706,0.915 C8.35764706,0.705131795 8.19752302,0.535 8,0.535 C7.80247698,0.535 7.64235294,0.705131795 7.64235294,0.915 L7.64235294,2.66 C7.64235294,2.8698682 7.80247698,3.04 8,3.04 L8,3.04 Z M11.1435294,3.935 C11.3103505,4.02992278 11.5179451,3.96816337 11.6141176,3.795 L12.4376471,2.295 C12.5269861,2.11775259 12.4688596,1.89718329 12.3058824,1.795 C12.1399761,1.70187275 11.9345402,1.76080715 11.8352941,1.93 L11.0164706,3.43 C10.9258202,3.60746564 10.9816261,3.82926834 11.1435294,3.935 L11.1435294,3.935 Z M15.4823529,5.125 C15.3831068,4.95580715 15.177671,4.89687275 15.0117647,4.99 L13.6,5.86 C13.4390492,5.96382764 13.3814317,6.18246542 13.4682353,6.36 C13.5329764,6.47710627 13.6509998,6.54930618 13.7788235,6.55 C13.8412642,6.54821917 13.9024695,6.53110585 13.9576471,6.5 L15.3694118,5.625 C15.523586,5.51480979 15.5726648,5.29753416 15.4823529,5.125 L15.4823529,5.125 Z" id="Fill"></path>
        </g>
        <g id="Brand-/-IBM-/-watson-/-20" transform="translate(163.000000, 299.000000)" fill="#FFFFFF">
            <path d="M12.0376471,6.825 C11.0765969,4.91250462 9.0407351,3.90613097 7.04484502,4.35694231 C5.04895494,4.80775364 3.57444033,6.60701537 3.42870588,8.7695 C1.75142134,8.96188611 0.508267605,10.513817 0.59762563,12.3037699 C0.686983655,14.0937229 2.07767812,15.4972173 3.76470588,15.5000032 L11.2941176,15.5000032 C13.4244367,15.5026957 15.2046224,13.7777329 15.3978234,11.5235949 C15.5910243,9.26945683 14.1333813,7.23120843 12.0376471,6.825 L12.0376471,6.825 Z M11.2941176,14.7500256 L3.76470588,14.7500256 C2.46352403,14.7560584 1.3820998,13.6862848 1.29496734,12.3068689 C1.20783487,10.9274531 2.14501959,9.71373507 3.43529412,9.535 C3.48505032,10.1969036 3.66185911,10.8409685 3.95482353,11.4275 C4.0145079,11.5455763 4.12894601,11.620852 4.25503013,11.6249714 C4.38111425,11.6290909 4.49968921,11.5614282 4.56608896,11.4474714 C4.63248871,11.3335146 4.63662555,11.1905763 4.57694118,11.0725 C3.60971133,9.14924098 4.21841616,6.75835055 5.96627244,5.61543996 C7.71412871,4.47252938 9.99727442,4.97245965 11.1774118,6.7565 C10.0373658,6.78989759 8.9613643,7.32395811 8.20564706,8.2315 C8.11711789,8.33109534 8.08674814,8.47405711 8.12643096,8.60439981 C8.16611379,8.73474251 8.26953347,8.83172147 8.39618965,8.85735859 C8.52284584,8.8829957 8.65258058,8.83321071 8.73458824,8.7275 C9.77341064,7.47576968 11.4823238,7.13933797 12.8742696,7.91252582 C14.2662154,8.68571367 14.9814794,10.3687095 14.6069293,11.9894249 C14.2323792,13.6101403 12.8648084,14.7497408 11.2941176,14.7500256 L11.2941176,14.7500256 Z M15.4814118,5.1275 C15.4341523,5.04032776 15.3562129,4.97669543 15.2647657,4.95062282 C15.1733185,4.92455021 15.075867,4.93817669 14.9938824,4.9885 L13.5727059,5.8605 C13.4570927,5.92541793 13.38411,6.05227332 13.3824468,6.19120006 C13.3807837,6.33012681 13.450706,6.45891349 13.5647278,6.52693483 C13.6787495,6.59495617 13.818641,6.591337 13.9294118,6.5175 L15.3505882,5.6455 C15.5212255,5.54074729 15.5797682,5.30894577 15.4814118,5.1275 L15.4814118,5.1275 Z M11.1416471,3.935 C11.223674,3.98548226 11.3212394,3.9991977 11.4128003,3.97311787 C11.5043611,3.94703804 11.5823862,3.88330809 11.6296471,3.796 L12.4503529,2.286 C12.5401165,2.10553174 12.4794482,1.88195072 12.3130386,1.77995516 C12.1466289,1.6779596 11.9340962,1.73409063 11.832,1.907 L11.0112941,3.417 C10.9128586,3.59831496 10.9711806,3.83007618 11.1416471,3.935 L11.1416471,3.935 Z M8,3.0405 C8.09472909,3.0405 8.18557832,3.00051708 8.2525619,2.92934702 C8.31954549,2.85817697 8.35717647,2.76164966 8.35717647,2.661 L8.35717647,0.9175 C8.35717647,0.707907937 8.19726312,0.538 8,0.538 C7.80273688,0.538 7.64282322,0.707907937 7.64282322,0.9175 L7.64282322,2.661 C7.64269861,2.76173626 7.68027445,2.85839207 7.74727157,2.92967031 C7.8142687,3.00094854 7.90518932,3.041 8,3.041 L8,3.0405 Z M4.37035294,3.796 C4.47160541,3.97125499 4.68581143,4.02893888 4.8534053,3.92608198 C5.02099916,3.82322507 5.08099721,3.59725468 4.98870588,3.4165 L4.168,1.9065 C4.10462232,1.78804648 3.98634151,1.71478482 3.85810058,1.71455161 C3.72985965,1.71431951 3.61134406,1.78715158 3.54758604,1.90537446 C3.48382802,2.02359733 3.48461466,2.16906336 3.54964706,2.2865 L4.37035294,3.796 Z M2.42776471,5.8605 L1.00658824,4.9885 C0.896059637,4.91940307 0.759150431,4.91856727 0.647881841,4.98631017 C0.53661325,5.05405306 0.468065422,5.17997588 0.468283866,5.31623187 C0.468503356,5.45248786 0.537455506,5.57816122 0.648941176,5.6455 L2.07058824,6.5175 C2.18128083,6.58969576 2.3201347,6.5923563 2.43320526,6.52444802 C2.54627582,6.45653973 2.61573887,6.32876752 2.61462169,6.19077077 C2.61347732,6.05277402 2.54193096,5.92630622 2.42776471,5.8605 Z" id="Fill"></path>
        </g>
    </g>
</svg>