<?xml version="1.0" encoding="UTF-8"?>
<svg width="1920px" height="1073px" viewBox="0 0 1920 1073" version="1.1" xmlns="http://www.w3.org/2000/svg" xmlns:xlink="http://www.w3.org/1999/xlink">
    <title>wazi-use-case</title>
    <g id="wazi-use-case" stroke="none" stroke-width="1" fill="none" fill-rule="evenodd">
        <rect id="Rectangle" fill="#FFF1F1" fill-rule="nonzero" x="0" y="0" width="1920" height="356"></rect>
        <rect id="Rectangle" fill="#F4F4F4" fill-rule="nonzero" x="0" y="364" width="739" height="600"></rect>
        <rect id="Rectangle" fill="#EDF5FF" fill-rule="nonzero" x="747" y="364" width="1173" height="600"></rect>
        <rect id="Rectangle" stroke="#000000" fill="#D0E2FF" fill-rule="nonzero" x="90" y="64" width="344" height="174"></rect>
        <text id="Sandbox" fill="#000000" fill-rule="nonzero" font-family="IBMPlexSans, IBM Plex Sans" font-size="32" font-weight="normal">
            <tspan x="199" y="163">Sandbox</tspan>
        </text>
        <rect id="Rectangle" stroke="#000000" fill="#D0E2FF" fill-rule="nonzero" x="788" y="64" width="344" height="174"></rect>
        <text id="IBM-Wazi-Developer" fill="#000000" fill-rule="nonzero" font-family="IBMPlexSans, IBM Plex Sans" font-size="32" font-weight="normal">
            <tspan x="813" y="142">IBM Wazi Developer</tspan>
        </text>
        <text id="for-Workspaces" fill="#000000" fill-rule="nonzero" font-family="IBMPlexSans, IBM Plex Sans" font-size="32" font-weight="normal">
            <tspan x="847" y="184">for Workspaces</tspan>
        </text>
        <rect id="Rectangle" stroke="#000000" fill="#D0E2FF" fill-rule="nonzero" x="1486" y="64" width="344" height="174"></rect>
        <text id="Pipeline" fill="#000000" fill-rule="nonzero" font-family="IBMPlexSans, IBM Plex Sans" font-size="32" font-weight="normal">
            <tspan x="1599" y="163">Pipeline</tspan>
        </text>
        <rect id="Rectangle" stroke="#000000" fill="#D0E2FF" fill-rule="nonzero" x="1487" y="554" width="344" height="174"></rect>
        <text id="IBM-Wazi-Analyze" fill="#000000" fill-rule="nonzero" font-family="IBMPlexSans, IBM Plex Sans" font-size="32" font-weight="normal">
            <tspan x="1531" y="653">IBM Wazi Analyze</tspan>
        </text>
        <text id="Red-Hat-OpenShift" fill="#000000" fill-rule="nonzero" font-family="IBMPlexSans-Bold, IBM Plex Sans" font-size="40" font-weight="bold">
            <tspan x="24" y="326">Red Hat OpenShift</tspan>
        </text>
        <text id="Regular-LPAR" fill="#000000" fill-rule="nonzero" font-family="IBMPlexSans-Bold, IBM Plex Sans" font-size="40" font-weight="bold">
            <tspan x="24" y="929">Regular LPAR</tspan>
        </text>
        <text id="Desktop" fill="#000000" fill-rule="nonzero" font-family="IBMPlexSans-Bold, IBM Plex Sans" font-size="40" font-weight="bold">
            <tspan x="1740" y="929">Desktop</tspan>
        </text>
        <rect id="Rectangle" stroke="#000000" fill="#D0E2FF" fill-rule="nonzero" x="90" y="554" width="344" height="174"></rect>
        <text id="Real-z/OS-host" fill="#000000" fill-rule="nonzero" font-family="IBMPlexSans, IBM Plex Sans" font-size="32" font-weight="normal">
            <tspan x="156" y="632">Real z/OS host</tspan>
        </text>
        <text id="components" fill="#000000" fill-rule="nonzero" font-family="IBMPlexSans, IBM Plex Sans" font-size="32" font-weight="normal">
            <tspan x="172" y="674">components</tspan>
        </text>
        <rect id="Rectangle" stroke="#000000" fill="#D0E2FF" fill-rule="nonzero" x="788" y="427" width="344" height="174"></rect>
        <text id="IBM-Wazi-Developer" fill="#000000" fill-rule="nonzero" font-family="IBMPlexSans, IBM Plex Sans" font-size="32" font-weight="normal">
            <tspan x="813" y="505">IBM Wazi Developer</tspan>
        </text>
        <text id="for-VS-Code" fill="#000000" fill-rule="nonzero" font-family="IBMPlexSans, IBM Plex Sans" font-size="32" font-weight="normal">
            <tspan x="876" y="547">for VS Code</tspan>
        </text>
        <rect id="Rectangle" stroke="#000000" fill="#D0E2FF" fill-rule="nonzero" x="788" y="692" width="344" height="174"></rect>
        <text id="IBM-Wazi-Developer" fill="#000000" fill-rule="nonzero" font-family="IBMPlexSans, IBM Plex Sans" font-size="32" font-weight="normal">
            <tspan x="813" y="770">IBM Wazi Developer</tspan>
        </text>
        <text id="for-Eclipse" fill="#000000" fill-rule="nonzero" font-family="IBMPlexSans, IBM Plex Sans" font-size="32" font-weight="normal">
            <tspan x="884" y="812">for Eclipse</tspan>
        </text>
        <path id="Line-7" d="M767.981311,524.111285 L788.976056,527.347126 L773.790536,542.201418 L771.344,534.584 L433.958623,642.928168 L432.530455,643.386791 L431.613209,640.530455 L433.041377,640.071832 L770.427,531.728 L767.981311,524.111285 Z" fill="#1A1A1A" fill-rule="nonzero"></path>
        <path id="Line-8" d="M1486.7522,184.068266 L1485.37151,205.265994 L1478.463,201.23 L1133.7952,791.256604 L1133.0386,792.551807 L1130.44819,791.038599 L1131.2048,789.743396 L1475.873,199.717 L1468.9656,195.682347 L1486.7522,184.068266 Z" fill="#1A1A1A" fill-rule="nonzero"></path>
        <path id="Line-9" d="M1485.85305,163.145945 L1479.16413,183.307997 L1473.499,177.658 L1134.56216,517.559155 L1133.50301,518.621318 L1131.37868,516.503009 L1132.43784,515.440845 L1471.375,175.54 L1465.71006,169.892038 L1485.85305,163.145945 Z" fill="#1A1A1A" fill-rule="nonzero"></path>
        <path id="Line-10" d="M1466.91971,138.15801 L1485.99998,147.495739 L1467.08163,157.15732 L1467.013,149.157 L1133.51278,151.999946 L1132.01284,152.012729 L1131.98727,149.012838 L1133.48722,149.000054 L1466.987,146.157 L1466.91971,138.15801 Z" fill="#1A1A1A" fill-rule="nonzero"></path>
        <path id="Line-11" d="M770,140 L789,149.5 L770,159 L770,151 L432,151 L432,148 L770,148 L770,140 Z" fill="#1A1A1A" fill-rule="nonzero"></path>
        <path id="Line-12" d="M785.808367,172.106414 L781.568537,192.921645 L775.271,187.987 L435.680757,621.425102 L434.755655,622.605859 L432.394141,620.755655 L433.319243,619.574898 L772.909,186.137 L766.612284,181.203689 L785.808367,172.106414 Z" fill="#1A1A1A" fill-rule="nonzero"></path>
        <path id="Line-13" d="M432.588128,662.58467 L434.001729,663.086399 L771.567,782.898 L774.243202,775.359204 L788.9712,790.667243 L767.88797,793.264818 L770.563,785.725 L432.998271,665.913601 L431.58467,665.411872 L432.588128,662.58467 Z" fill="#1A1A1A" fill-rule="nonzero"></path>
        <path id="Line-14" d="M437.039435,170.448413 L437.795511,171.743924 L777.47,753.766 L784.379968,749.733548 L785.752025,770.931837 L767.97016,759.31051 L774.879,755.278 L435.204489,173.256076 L434.448413,171.960565 L437.039435,170.448413 Z" fill="#1A1A1A" fill-rule="nonzero"></path>
        <path id="Line-15" d="M434.512019,157.378714 L435.566652,158.445366 L773.559,500.29 L779.248315,494.665272 L785.851545,514.855551 L765.737384,508.023967 L771.426,502.399 L433.433348,160.554634 L432.378714,159.487981 L434.512019,157.378714 Z" fill="#1A1A1A" fill-rule="nonzero"></path>
        <g id="Group-9" transform="translate(595.000000, 129.000000)" fill-rule="nonzero">
            <circle id="Oval" fill="#0F62FE" cx="20" cy="20" r="20"></circle>
            <g id="1" transform="translate(12.000000, 2.400000)" fill="#FFFFFF" font-family="IBMPlexSans-Bold, IBM Plex Sans" font-size="25.6" font-weight="bold">
                <text>
                    <tspan x="0" y="26">1</tspan>
                </text>
            </g>
        </g>
        <g id="Group-7" transform="translate(1258.000000, 128.000000)" fill-rule="nonzero">
            <circle id="Oval" fill="#0F62FE" cx="20" cy="20" r="20"></circle>
            <g id="1" transform="translate(12.000000, 2.400000)" fill="#FFFFFF" font-family="IBMPlexSans-Bold, IBM Plex Sans" font-size="25.6" font-weight="bold">
                <text>
                    <tspan x="0" y="26">1</tspan>
                </text>
            </g>
        </g>
        <g id="Group-8" transform="translate(1309.000000, 128.000000)" fill-rule="nonzero">
            <circle id="Oval" fill="#0F62FE" cx="20" cy="20" r="20"></circle>
            <g id="4" transform="translate(12.000000, 2.400000)" fill="#FFFFFF" font-family="IBMPlexSans-Bold, IBM Plex Sans" font-size="25.6" font-weight="bold">
                <text>
                    <tspan x="0" y="26">4</tspan>
                </text>
            </g>
        </g>
        <g id="Group-7" transform="translate(1198.000000, 407.000000)" fill-rule="nonzero">
            <circle id="Oval" fill="#0F62FE" cx="20" cy="20" r="20"></circle>
            <text id="2" fill="#FFFFFF" font-family="IBMPlexSans-Bold, IBM Plex Sans" font-size="25.6" font-weight="bold">
                <tspan x="12" y="28.4">2</tspan>
            </text>
        </g>
        <g id="Group-6" transform="translate(1238.000000, 371.000000)" fill-rule="nonzero">
            <circle id="Oval" fill="#0F62FE" cx="20" cy="20" r="20"></circle>
            <text id="5" fill="#FFFFFF" font-family="IBMPlexSans-Bold, IBM Plex Sans" font-size="25.6" font-weight="bold">
                <tspan x="12" y="28.4">5</tspan>
            </text>
        </g>
        <g id="Group-5" transform="translate(1382.000000, 316.000000)" fill-rule="nonzero">
            <circle id="Oval" fill="#0F62FE" cx="20" cy="20" r="20"></circle>
            <text id="3" fill="#FFFFFF" font-family="IBMPlexSans-Bold, IBM Plex Sans" font-size="25.6" font-weight="bold">
                <tspan x="12.8" y="28.4">3</tspan>
            </text>
        </g>
        <g id="Group-4" transform="translate(1403.000000, 269.000000)" fill-rule="nonzero">
            <circle id="Oval" fill="#0F62FE" cx="20" cy="20" r="20"></circle>
            <text id="6" fill="#FFFFFF" font-family="IBMPlexSans-Bold, IBM Plex Sans" font-size="25.6" font-weight="bold">
                <tspan x="12" y="28.4">6</tspan>
            </text>
        </g>
        <g id="Group-10" transform="translate(507.000000, 479.000000)" fill-rule="nonzero">
            <circle id="Oval" fill="#0F62FE" cx="20" cy="20" r="20"></circle>
            <g id="4" transform="translate(12.000000, 1.600000)" fill="#FFFFFF" font-family="IBMPlexSans-Bold, IBM Plex Sans" font-size="25.6" font-weight="bold">
                <text>
                    <tspan x="0" y="26">4</tspan>
                </text>
            </g>
        </g>
        <g id="Group-3" transform="translate(590.000000, 565.000000)" fill-rule="nonzero">
            <circle id="Oval" fill="#0F62FE" cx="20" cy="20" r="20"></circle>
            <text id="5" fill="#FFFFFF" font-family="IBMPlexSans-Bold, IBM Plex Sans" font-size="25.6" font-weight="bold">
                <tspan x="12" y="28.4">5</tspan>
            </text>
        </g>
        <g id="7" transform="translate(590.000000, 703.000000)" fill-rule="nonzero">
            <circle id="Oval" fill="#0F62FE" cx="20" cy="20" r="20"></circle>
            <text id="6" fill="#FFFFFF" font-family="IBMPlexSans-Bold, IBM Plex Sans" font-size="25.6" font-weight="bold">
                <tspan x="12" y="27.6">6</tspan>
            </text>
        </g>
        <g id="Group-2" transform="translate(535.000000, 256.000000)" fill-rule="nonzero">
            <circle id="Oval" fill="#0F62FE" cx="20" cy="20" r="20"></circle>
            <text id="2" fill="#FFFFFF" font-family="IBMPlexSans-Bold, IBM Plex Sans" font-size="25.6" font-weight="bold">
                <tspan x="12" y="28.4">2</tspan>
            </text>
        </g>
        <g id="Group" transform="translate(535.000000, 355.000000)" fill-rule="nonzero">
            <circle id="Oval" fill="#0F62FE" cx="20" cy="20" r="20"></circle>
            <text id="3" fill="#FFFFFF" font-family="IBMPlexSans-Bold, IBM Plex Sans" font-size="25.6" font-weight="bold">
                <tspan x="12.8" y="28.4">3</tspan>
            </text>
        </g>
        <path id="Line-16" d="M1470.52505,627.0691 L1485.97876,641.644173 L1465.04648,645.262099 L1467.353,637.601 L1460.2297,635.456731 L1458.79341,635.024212 L1459.65845,632.151633 L1461.09474,632.584152 L1468.218,634.729 L1470.52505,627.0691 Z M1442.42298,626.961405 L1443.85927,627.393924 L1452.477,629.989038 L1453.91329,630.421557 L1453.04825,633.294136 L1451.61196,632.861617 L1442.99423,630.266503 L1441.55794,629.833984 L1442.42298,626.961405 Z M1425.1875,621.771177 L1426.62379,622.203696 L1435.24153,624.79881 L1436.67782,625.231329 L1435.81278,628.103908 L1434.37649,627.671389 L1425.75875,625.076275 L1424.32246,624.643756 L1425.1875,621.771177 Z M1407.95203,616.58095 L1409.38832,617.013469 L1418.00606,619.608582 L1419.44235,620.041101 L1418.57731,622.91368 L1417.14102,622.481161 L1408.52328,619.886047 L1407.08699,619.453528 L1407.95203,616.58095 Z M1390.71656,611.390722 L1392.15285,611.823241 L1400.77058,614.418355 L1402.20687,614.850874 L1401.34183,617.723453 L1399.90554,617.290934 L1391.28781,614.69582 L1389.85152,614.263301 L1390.71656,611.390722 Z M1373.48108,606.200494 L1374.91737,606.633013 L1383.53511,609.228127 L1384.9714,609.660646 L1384.10636,612.533225 L1382.67007,612.100706 L1374.05233,609.505592 L1372.61605,609.073073 L1373.48108,606.200494 Z M1356.24561,601.010266 L1357.6819,601.442785 L1366.29964,604.037899 L1367.73593,604.470418 L1366.87089,607.342997 L1365.4346,606.910478 L1356.81686,604.315364 L1355.38057,603.882845 L1356.24561,601.010266 Z M1339.01014,595.820039 L1340.44643,596.252558 L1349.06416,598.847672 L1350.50045,599.28019 L1349.63541,602.152769 L1348.19912,601.72025 L1339.58139,599.125137 L1338.1451,598.692618 L1339.01014,595.820039 Z M1321.77466,590.629811 L1323.21095,591.06233 L1331.82869,593.657444 L1333.26498,594.089963 L1332.39994,596.962542 L1330.96365,596.530023 L1322.34592,593.934909 L1320.90963,593.50239 L1321.77466,590.629811 Z M1304.53919,585.439583 L1305.97548,585.872102 L1314.59322,588.467216 L1316.02951,588.899735 L1315.16447,591.772314 L1313.72818,591.339795 L1305.11044,588.744681 L1303.67415,588.312162 L1304.53919,585.439583 Z M1287.30372,580.249355 L1288.74001,580.681874 L1297.35774,583.276988 L1298.79403,583.709507 L1297.92899,586.582086 L1296.49271,586.149567 L1287.87497,583.554453 L1286.43868,583.121934 L1287.30372,580.249355 Z M1270.06824,575.059128 L1271.50453,575.491647 L1280.12227,578.086761 L1281.55856,578.51928 L1280.69352,581.391858 L1279.25723,580.959339 L1270.6395,578.364226 L1269.20321,577.931707 L1270.06824,575.059128 Z M1252.83277,569.8689 L1254.26906,570.301419 L1262.8868,572.896533 L1264.32309,573.329052 L1263.45805,576.201631 L1262.02176,575.769112 L1253.40402,573.173998 L1251.96773,572.741479 L1252.83277,569.8689 Z M1235.5973,564.678672 L1237.03359,565.111191 L1245.65132,567.706305 L1247.08761,568.138824 L1246.22258,571.011403 L1244.78629,570.578884 L1236.16855,567.98377 L1234.73226,567.551251 L1235.5973,564.678672 Z M1218.36182,559.488445 L1219.79811,559.920964 L1228.41585,562.516077 L1229.85214,562.948596 L1228.9871,565.821175 L1227.55081,565.388656 L1218.93308,562.793542 L1217.49679,562.361023 L1218.36182,559.488445 Z M1201.12635,554.298217 L1202.56264,554.730736 L1211.18038,557.32585 L1212.61667,557.758369 L1211.75163,560.630948 L1210.31534,560.198429 L1201.6976,557.603315 L1200.26131,557.170796 L1201.12635,554.298217 Z M1183.89088,549.107989 L1185.32717,549.540508 L1193.9449,552.135622 L1195.38119,552.568141 L1194.51616,555.44072 L1193.07987,555.008201 L1184.46213,552.413087 L1183.02584,551.980568 L1183.89088,549.107989 Z M1166.6554,543.917761 L1168.09169,544.35028 L1176.70943,546.945394 L1178.14572,547.377913 L1177.28068,550.250492 L1175.84439,549.817973 L1167.22666,547.222859 L1165.79037,546.79034 L1166.6554,543.917761 Z M1153.95352,531.737901 L1151.646,539.398 L1159.47396,541.755167 L1160.91025,542.187686 L1160.04521,545.060264 L1158.60892,544.627745 L1150.781,542.27 L1148.47495,549.9309 L1133.02124,535.355827 L1153.95352,531.737901 Z" fill="#000000" fill-rule="nonzero"></path>
        <path id="Line-16" d="M1470.96521,597.934602 L1471.88216,599.121701 L1476.377,604.942 L1482.70925,600.051768 L1486.80565,620.8957 L1467.67266,611.666461 L1474.003,606.776 L1469.50796,600.9556 L1468.59101,599.768501 L1470.96521,597.934602 Z M1459.96182,583.689416 L1460.87877,584.876515 L1466.38046,591.999108 L1467.29741,593.186207 L1464.92322,595.020105 L1464.00627,593.833007 L1458.50457,586.710413 L1457.58762,585.523315 L1459.96182,583.689416 Z M1448.95843,569.444229 L1455.37707,577.753921 L1456.29402,578.94102 L1453.91982,580.774919 L1453.00287,579.58782 L1447.50118,572.465227 L1446.58423,571.278128 L1448.95843,569.444229 Z M1437.95503,555.199043 L1438.87198,556.386142 L1445.29063,564.695834 L1442.91643,566.529733 L1436.49778,558.220041 L1435.58083,557.032942 L1437.95503,555.199043 Z M1426.95164,540.953857 L1427.86859,542.140955 L1433.37028,549.263549 L1434.28723,550.450648 L1431.91304,552.284546 L1430.99609,551.097448 L1425.49439,543.974854 L1424.57744,542.787756 L1426.95164,540.953857 Z M1415.94824,526.70867 L1416.86519,527.895769 L1422.36689,535.018362 L1423.28384,536.205461 L1420.90964,538.03936 L1419.99269,536.852261 L1414.491,529.729668 L1413.57405,528.542569 L1415.94824,526.70867 Z M1404.94485,512.463484 L1405.8618,513.650583 L1411.3635,520.773176 L1412.28045,521.960275 L1409.90625,523.794174 L1408.9893,522.607075 L1403.4876,515.484482 L1402.57065,514.297383 L1404.94485,512.463484 Z M1393.94146,498.218298 L1400.3601,506.52799 L1401.27705,507.715088 L1398.90286,509.548987 L1397.98591,508.361889 L1392.48421,501.239295 L1391.56726,500.052196 L1393.94146,498.218298 Z M1382.93806,483.973111 L1383.85501,485.16021 L1389.35671,492.282803 L1390.27366,493.469902 L1387.89946,495.303801 L1380.56387,485.80701 L1382.93806,483.973111 Z M1371.93467,469.727925 L1372.85162,470.915024 L1379.27027,479.224716 L1376.89607,481.058615 L1375.97912,479.871516 L1370.47742,472.748923 L1369.56047,471.561824 L1371.93467,469.727925 Z M1360.93128,455.482739 L1361.84823,456.669837 L1367.34992,463.792431 L1368.26687,464.979529 L1365.89268,466.813428 L1364.97573,465.62633 L1359.47403,458.503736 L1358.55708,457.316637 L1360.93128,455.482739 Z M1349.92788,441.237552 L1350.84483,442.424651 L1356.34653,449.547244 L1357.26348,450.734343 L1354.88928,452.568242 L1353.97233,451.381143 L1348.47064,444.25855 L1347.55369,443.071451 L1349.92788,441.237552 Z M1338.92449,426.992366 L1339.84144,428.179465 L1345.34314,435.302058 L1346.26009,436.489157 L1343.88589,438.323056 L1342.96894,437.135957 L1337.46724,430.013364 L1336.55029,428.826265 L1338.92449,426.992366 Z M1327.9211,412.74718 L1328.83805,413.934278 L1334.33974,421.056872 L1335.25669,422.24397 L1332.8825,424.077869 L1325.5469,414.581078 L1327.9211,412.74718 Z M1316.9177,398.501993 L1317.83465,399.689092 L1324.2533,407.998784 L1321.8791,409.832683 L1320.96215,408.645584 L1315.46046,401.522991 L1314.54351,400.335892 L1316.9177,398.501993 Z M1305.91431,384.256807 L1306.83126,385.443906 L1312.33296,392.566499 L1313.24991,393.753598 L1310.87571,395.587497 L1309.95876,394.400398 L1304.45706,387.277805 L1303.54011,386.090706 L1305.91431,384.256807 Z M1294.91092,370.011621 L1295.82787,371.198719 L1301.32956,378.321313 L1302.24651,379.508411 L1299.87232,381.34231 L1298.95537,380.155211 L1293.45367,373.032618 L1292.53672,371.845519 L1294.91092,370.011621 Z M1283.90752,355.766434 L1284.82447,356.953533 L1290.32617,364.076126 L1291.24312,365.263225 L1288.86892,367.097124 L1287.95197,365.910025 L1282.45028,358.787432 L1281.53333,357.600333 L1283.90752,355.766434 Z M1272.90413,341.521248 L1273.82108,342.708347 L1279.32278,349.83094 L1280.23973,351.018039 L1277.86553,352.851938 L1270.52993,343.355147 L1272.90413,341.521248 Z M1261.90074,327.276061 L1269.23633,336.772852 L1266.86214,338.606751 L1260.44349,330.297059 L1259.52654,329.10996 L1261.90074,327.276061 Z M1250.89734,313.030875 L1251.81429,314.217974 L1257.31599,321.340567 L1258.23294,322.527666 L1255.85874,324.361565 L1254.94179,323.174466 L1249.4401,316.051873 L1248.52315,314.864774 L1250.89734,313.030875 Z M1239.89395,298.785689 L1240.8109,299.972788 L1246.3126,307.095381 L1247.22955,308.28248 L1244.85535,310.116379 L1243.9384,308.92928 L1238.4367,301.806687 L1237.51975,300.619588 L1239.89395,298.785689 Z M1228.89056,284.540502 L1229.80751,285.727601 L1235.3092,292.850194 L1236.22615,294.037293 L1233.85196,295.871192 L1232.93501,294.684093 L1227.43331,287.5615 L1226.51636,286.374401 L1228.89056,284.540502 Z M1217.88716,270.295316 L1218.80411,271.482415 L1224.30581,278.605008 L1225.22276,279.792107 L1222.84856,281.626006 L1221.93161,280.438907 L1215.51297,272.129215 L1217.88716,270.295316 Z M1206.88377,256.05013 L1214.21937,265.546921 L1211.84517,267.38082 L1204.50957,257.884029 L1206.88377,256.05013 Z M1195.88038,241.804943 L1196.79733,242.992042 L1202.29902,250.114635 L1203.21597,251.301734 L1200.84178,253.135633 L1199.92483,251.948534 L1194.42313,244.825941 L1193.50618,243.638842 L1195.88038,241.804943 Z M1184.87698,227.559757 L1185.79393,228.746856 L1191.29563,235.869449 L1192.21258,237.056548 L1189.83838,238.890447 L1188.92143,237.703348 L1183.41974,230.580755 L1182.50279,229.393656 L1184.87698,227.559757 Z M1173.87359,213.314571 L1174.79054,214.50167 L1180.29224,221.624263 L1181.20919,222.811362 L1178.83499,224.645261 L1177.91804,223.458162 L1172.41634,216.335569 L1171.49939,215.14847 L1173.87359,213.314571 Z M1162.8702,199.069384 L1163.78715,200.256483 L1169.28884,207.379076 L1170.20579,208.566175 L1167.83159,210.400074 L1166.91465,209.212975 L1160.496,200.903283 L1162.8702,199.069384 Z M1151.8668,184.824198 L1159.2024,194.320989 L1156.8282,196.154888 L1149.49261,186.658097 L1151.8668,184.824198 Z M1133.19435,163.1043 L1152.32734,172.333539 L1145.996,177.223 L1147.28206,178.888704 L1148.19901,180.075803 L1145.82481,181.909702 L1144.90786,180.722603 L1143.622,179.057 L1137.29075,183.948232 L1133.19435,163.1043 Z" fill="#000000" fill-rule="nonzero"></path>
        <path id="Line-16" d="M1146.87181,796.572202 L1149.972,803.946 L1154.11462,802.205295 L1155.49737,801.623912 L1156.66014,804.38941 L1155.27739,804.970793 L1151.134,806.712 L1154.23599,814.087018 L1133.03908,812.693794 L1146.87181,796.572202 Z M1172.09035,794.647317 L1173.25312,797.412814 L1171.87037,797.994197 L1163.57388,801.482495 L1162.19113,802.063878 L1161.02836,799.29838 L1162.41111,798.716998 L1170.7076,795.2287 L1172.09035,794.647317 Z M1188.68334,787.670721 L1189.8461,790.436219 L1188.46335,791.017602 L1180.16686,794.505899 L1178.78411,795.087282 L1177.62135,792.321785 L1179.0041,791.740402 L1187.30059,788.252104 L1188.68334,787.670721 Z M1205.27632,780.694126 L1206.43909,783.459623 L1205.05634,784.041006 L1196.75985,787.529304 L1195.3771,788.110687 L1194.21433,785.345189 L1195.59708,784.763807 L1203.89357,781.275509 L1205.27632,780.694126 Z M1221.8693,773.71753 L1223.03207,776.483028 L1221.64932,777.064411 L1213.35283,780.552708 L1211.97008,781.134091 L1210.80732,778.368594 L1212.19006,777.787211 L1220.48656,774.298913 L1221.8693,773.71753 Z M1238.46229,766.740935 L1239.62505,769.506432 L1238.24231,770.087815 L1229.94581,773.576113 L1228.56307,774.157496 L1227.4003,771.391998 L1228.78305,770.810615 L1237.07954,767.322318 L1238.46229,766.740935 Z M1255.05527,759.764339 L1256.21804,762.529837 L1254.83529,763.11122 L1246.5388,766.599517 L1245.15605,767.1809 L1243.99328,764.415403 L1245.37603,763.83402 L1253.67252,760.345722 L1255.05527,759.764339 Z M1271.64826,752.787744 L1272.81102,755.553241 L1271.42827,756.134624 L1263.13178,759.622922 L1261.74903,760.204305 L1260.58627,757.438807 L1261.96902,756.857424 L1270.26551,753.369127 L1271.64826,752.787744 Z M1288.24124,745.811148 L1289.40401,748.576646 L1288.02126,749.158029 L1279.72477,752.646326 L1278.34202,753.227709 L1277.17925,750.462212 L1278.562,749.880829 L1286.85849,746.392531 L1288.24124,745.811148 Z M1304.83422,738.834553 L1305.99699,741.60005 L1304.61424,742.181433 L1296.31775,745.669731 L1294.935,746.251114 L1293.77224,743.485616 L1295.15498,742.904233 L1303.45148,739.415936 L1304.83422,738.834553 Z M1321.42721,731.857957 L1322.58997,734.623455 L1321.20723,735.204838 L1312.91073,738.693135 L1311.52799,739.274518 L1310.36522,736.509021 L1311.74797,735.927638 L1320.04446,732.43934 L1321.42721,731.857957 Z M1338.02019,724.881362 L1339.18296,727.646859 L1337.80021,728.228242 L1329.50372,731.71654 L1328.12097,732.297923 L1326.9582,729.532425 L1328.34095,728.951042 L1336.63744,725.462745 L1338.02019,724.881362 Z M1354.61318,717.904766 L1355.77594,720.670264 L1354.39319,721.251647 L1346.0967,724.739944 L1344.71395,725.321327 L1343.55119,722.55583 L1344.93394,721.974447 L1353.23043,718.486149 L1354.61318,717.904766 Z M1371.20616,710.928171 L1372.36893,713.693668 L1370.98618,714.275051 L1362.68969,717.763349 L1361.30694,718.344732 L1360.14417,715.579234 L1361.52692,714.997851 L1369.82341,711.509554 L1371.20616,710.928171 Z M1387.79914,703.951575 L1388.96191,706.717073 L1387.57916,707.298455 L1379.28267,710.786753 L1377.89992,711.368136 L1376.73715,708.602639 L1378.1199,708.021256 L1386.4164,704.532958 L1387.79914,703.951575 Z M1404.39213,696.97498 L1405.55489,699.740477 L1404.17215,700.32186 L1395.87565,703.810158 L1394.4929,704.391541 L1393.33014,701.626043 L1394.71289,701.04466 L1403.00938,697.556363 L1404.39213,696.97498 Z M1420.98511,689.998384 L1422.14788,692.763882 L1420.76513,693.345264 L1412.46864,696.833562 L1411.08589,697.414945 L1409.92312,694.649448 L1411.30587,694.068065 L1419.60236,690.579767 L1420.98511,689.998384 Z M1437.5781,683.021789 L1438.74086,685.787286 L1437.35811,686.368669 L1429.06162,689.856967 L1427.67887,690.43835 L1426.51611,687.672852 L1427.89886,687.091469 L1436.19535,683.603172 L1437.5781,683.021789 Z M1454.17108,676.045193 L1455.33385,678.81069 L1453.9511,679.392073 L1445.65461,682.880371 L1444.27186,683.461754 L1443.10909,680.696257 L1444.49184,680.114874 L1452.78833,676.626576 L1454.17108,676.045193 Z M1464.76401,662.912982 L1485.96092,664.306206 L1472.12819,680.427798 L1469.027,673.053 L1462.24759,675.903776 L1460.86484,676.485159 L1459.70207,673.719661 L1461.08482,673.138278 L1467.865,670.287 L1464.76401,662.912982 Z" fill="#000000" fill-rule="nonzero"></path>
        <path id="Line-17" d="M1369.48785,1008.5 L1385.48785,1016.5 L1369.48785,1024.5 L1369.487,1017.7 L1307.20104,1017.7 L1307.20104,1015.3 L1369.487,1015.3 L1369.48785,1008.5 Z" fill="#000000" fill-rule="nonzero"></path>
        <path id="Line-17" d="M1583.51215,1008.5 L1583.512,1015.3 L1591.51215,1015.3 L1591.51215,1017.7 L1583.512,1017.7 L1583.51215,1024.5 L1567.51215,1016.5 L1583.51215,1008.5 Z M1629.48785,1008.5 L1645.48785,1016.5 L1629.48785,1024.5 L1629.487,1017.7 L1629.11215,1017.7 L1629.11215,1015.3 L1629.487,1015.3 L1629.48785,1008.5 Z M1607.51215,1015.3 L1607.51215,1017.7 L1597.11215,1017.7 L1597.11215,1015.3 L1607.51215,1015.3 Z M1623.51215,1015.3 L1623.51215,1017.7 L1613.11215,1017.7 L1613.11215,1015.3 L1623.51215,1015.3 Z" fill="#000000" fill-rule="nonzero"></path>
        <g id="Group-9" transform="translate(1320.000000, 1000.000000)" fill-rule="nonzero">
            <circle id="Oval" fill="#0F62FE" cx="16" cy="16" r="16"></circle>
            <g id="1" transform="translate(9.600000, 1.920000)" fill="#FFFFFF" font-family="IBMPlexSans-Bold, IBM Plex Sans" font-size="20.48" font-weight="bold">
                <text>
                    <tspan x="0" y="21">1</tspan>
                </text>
            </g>
        </g>
        <text id="Use-case" font-family="IBMPlexSans, IBM Plex Sans" font-size="24" font-weight="normal" fill="#000000">
            <tspan x="1401" y="1025">Use case</tspan>
        </text>
        <text id="Apply-to-all-use-cas" font-family="IBMPlexSans, IBM Plex Sans" font-size="24" font-weight="normal" fill="#000000">
            <tspan x="1661" y="1025">Apply to all use cases</tspan>
        </text>
    </g>
</svg>