<?xml version="1.0" encoding="UTF-8"?>
<svg id="Layer_1" data-name="Layer 1" xmlns="http://www.w3.org/2000/svg" xmlns:xlink="http://www.w3.org/1999/xlink" viewBox="0 0 1088 416">
  <defs>
    <style>
      .cls-1, .cls-2, .cls-3, .cls-4, .cls-5, .cls-6, .cls-7, .cls-8, .cls-9, .cls-10, .cls-11, .cls-12, .cls-13 {
        fill: none;
      }

      .cls-2 {
        opacity: .3;
      }

      .cls-14 {
        fill: url(#linear-gradient);
      }

      .cls-3 {
        stroke-width: 1.06px;
      }

      .cls-3, .cls-6, .cls-7, .cls-8, .cls-9, .cls-10, .cls-13, .cls-15, .cls-16 {
        stroke: #161616;
      }

      .cls-3, .cls-8, .cls-9, .cls-10, .cls-11, .cls-17, .cls-12, .cls-13, .cls-18, .cls-15, .cls-16 {
        stroke-miterlimit: 10;
      }

      .cls-19 {
        fill: #161616;
      }

      .cls-4 {
        stroke-width: 1.08px;
      }

      .cls-4, .cls-5, .cls-6, .cls-7 {
        stroke-linejoin: round;
      }

      .cls-4, .cls-5, .cls-11, .cls-18 {
        stroke: #000;
      }

      .cls-5 {
        stroke-width: 1.08px;
      }

      .cls-6, .cls-11 {
        stroke-width: 1.08px;
      }

      .cls-7, .cls-10 {
        stroke-width: 1.08px;
      }

      .cls-8 {
        stroke-width: 1.08px;
      }

      .cls-9, .cls-18, .cls-15, .cls-16 {
        stroke-width: 1.08px;
      }

      .cls-17 {
        fill: #edf5ff;
      }

      .cls-17, .cls-12 {
        stroke: #0f62fe;
      }

      .cls-12 {
        stroke-width: 4px;
      }

      .cls-18 {
        fill: url(#linear-gradient-2);
      }

      .cls-15 {
        fill: url(#linear-gradient-3);
      }

      .cls-16 {
        fill: #fff;
      }
    </style>
    <linearGradient id="linear-gradient" x1="355" y1="244" x2="373" y2="244" gradientUnits="userSpaceOnUse">
      <stop offset="0" stop-color="#f4f4f4" stop-opacity=".15"/>
      <stop offset="1" stop-color="#f4f4f4" stop-opacity=".45"/>
    </linearGradient>
    <linearGradient id="linear-gradient-2" x1="331" y1="220" x2="349" y2="220" gradientUnits="userSpaceOnUse">
      <stop offset="0" stop-color="#f4f4f4" stop-opacity=".45"/>
      <stop offset="1" stop-color="#f4f4f4" stop-opacity=".15"/>
    </linearGradient>
    <linearGradient id="linear-gradient-3" x1="2805" y1="-11382" x2="2823" y2="-11382" gradientTransform="translate(3178 -11138) rotate(-180)" xlink:href="#linear-gradient-2"/>
  </defs>
  <rect class="cls-1" width="1088" height="416"/>
  <rect class="cls-13" x="16" y="64" width="1056" height="320" rx="32" ry="32"/>
  <g>
    <circle class="cls-9" cx="352" cy="232" r="48"/>
    <g>
      <rect class="cls-1" x="328" y="208" width="48" height="48"/>
      <polygon class="cls-14" points="367 235 367 247 355 247 355 253 373 253 373 235 367 235"/>
      <polygon class="cls-18" points="337 217 349 217 349 211 331 211 331 229 337 229 337 217"/>
      <polygon class="cls-15" points="367 247 355 247 355 253 373 253 373 235 367 235 367 247"/>
      <circle class="cls-1" cx="352" cy="232" r="7.5"/>
      <polyline class="cls-9" points="349 217 349 211 331 211 331 229 337 229"/>
      <rect class="cls-9" x="337" y="217" width="30" height="30"/>
      <circle class="cls-9" cx="352" cy="232" r="7.5"/>
    </g>
    <g>
      <path class="cls-19" d="m325.58,306.36v-.98h1.37v-7.82h-1.37v-.98h3.92v.98h-1.37v7.82h1.37v.98h-3.92Z"/>
      <path class="cls-19" d="m331.65,296.58h4.02c1.61,0,2.61,1,2.61,2.52s-.94,1.98-1.58,2.07v.08c.7.04,1.92.64,1.92,2.27s-1.08,2.83-2.52,2.83h-4.44v-9.78Zm1.18,4.23h2.7c.92,0,1.48-.49,1.48-1.36v-.48c0-.87-.56-1.36-1.48-1.36h-2.7v3.19Zm0,4.51h2.9c1.01,0,1.62-.53,1.62-1.51v-.48c0-.98-.62-1.51-1.62-1.51h-2.9v3.5Z"/>
      <path class="cls-19" d="m340.79,296.58h1.57l2.8,5.27h.07l2.82-5.27h1.51v9.78h-1.15v-8.24h-.07l-.83,1.64-2.34,4.26-2.34-4.26-.83-1.64h-.07v8.24h-1.15v-9.78Z"/>
      <path class="cls-19" d="m355,306.36v-.98h1.37v-7.82h-1.37v-.98h3.92v.98h-1.37v7.82h1.37v.98h-3.92Z"/>
      <path class="cls-19" d="m361.06,296.58h1.57l2.8,5.27h.07l2.82-5.27h1.51v9.78h-1.15v-8.24h-.07l-.83,1.64-2.34,4.26-2.34-4.26-.83-1.64h-.07v8.24h-1.15v-9.78Z"/>
      <path class="cls-19" d="m371.71,304.82l.87-.73c.69.91,1.5,1.4,2.63,1.4,1.4,0,2.16-.73,2.16-1.85,0-.92-.52-1.39-1.81-1.68l-.8-.18c-1.78-.41-2.76-1.19-2.76-2.69,0-1.74,1.32-2.68,3.24-2.68,1.47,0,2.51.56,3.24,1.6l-.88.64c-.53-.74-1.27-1.21-2.41-1.21-1.25,0-2.02.55-2.02,1.6,0,.92.6,1.34,1.83,1.62l.8.18c1.91.43,2.73,1.27,2.73,2.73,0,1.79-1.26,2.94-3.36,2.94-1.57,0-2.67-.64-3.46-1.71Z"/>
      <path class="cls-19" d="m324.76,318.27c0-3.28,1.62-5.06,4.15-5.06s4.15,1.78,4.15,5.06-1.62,5.06-4.15,5.06-4.15-1.78-4.15-5.06Zm7.03.81v-1.62c0-1.93-1.19-3.19-2.89-3.19s-2.89,1.26-2.89,3.19v1.62c0,1.93,1.19,3.19,2.89,3.19s2.89-1.26,2.89-3.19Z"/>
      <path class="cls-19" d="m335.05,315.93h1.12v1.18h.06c.38-.91,1.12-1.34,2.12-1.34,1.81,0,2.94,1.47,2.94,3.78s-1.13,3.78-2.94,3.78c-.99,0-1.68-.45-2.12-1.35h-.06v3.98h-1.12v-10.03Zm5.03,4.23v-1.23c0-1.29-.78-2.16-2.04-2.16-1.02,0-1.86.59-1.86,1.39v2.69c0,.94.84,1.47,1.86,1.47,1.26,0,2.04-.87,2.04-2.16Z"/>
      <path class="cls-19" d="m342.63,319.55c0-2.3,1.29-3.78,3.25-3.78s3.12,1.48,3.12,3.53v.53h-5.2v.34c0,1.25.8,2.19,2.14,2.19.91,0,1.61-.45,1.99-1.25l.8.57c-.46.98-1.5,1.65-2.86,1.65-1.96,0-3.25-1.49-3.25-3.78Zm1.18-.66v.1h3.99v-.15c0-1.28-.77-2.13-1.92-2.13-1.22,0-2.07.92-2.07,2.18Z"/>
      <path class="cls-19" d="m350.85,323.16v-7.23h1.12v1.33h.07c.25-.69.91-1.33,2.09-1.33h.43v1.12h-.66c-1.2,0-1.93.52-1.93,1.2v4.9h-1.12Z"/>
      <path class="cls-19" d="m361.19,323.16c-.83,0-1.16-.5-1.25-1.18h-.07c-.31.88-1.08,1.35-2.09,1.35-1.53,0-2.42-.84-2.42-2.19s.98-2.12,3.08-2.12h1.43v-.71c0-1.02-.56-1.58-1.71-1.58-.87,0-1.44.42-1.83,1.08l-.67-.63c.39-.77,1.26-1.41,2.56-1.41,1.74,0,2.77.91,2.77,2.44v3.98h.83v.98h-.63Zm-1.32-2.1v-1.19h-1.49c-1.27,0-1.85.39-1.85,1.09v.29c0,.71.56,1.12,1.43,1.12,1.11,0,1.91-.57,1.91-1.32Z"/>
      <path class="cls-19" d="m365.01,323.16c-.77,0-1.19-.49-1.19-1.19v-5.06h-1.19v-.98h.67c.48,0,.63-.17.63-.66v-1.34h1.01v2h1.58v.98h-1.58v5.27h1.47v.98h-1.4Z"/>
      <path class="cls-19" d="m367.74,319.55c0-2.3,1.33-3.78,3.26-3.78s3.26,1.48,3.26,3.78-1.33,3.78-3.26,3.78-3.26-1.49-3.26-3.78Zm5.32.52v-1.04c0-1.53-.85-2.27-2.06-2.27s-2.06.74-2.06,2.27v1.04c0,1.53.85,2.27,2.06,2.27s2.06-.74,2.06-2.27Z"/>
      <path class="cls-19" d="m376.11,323.16v-7.23h1.12v1.33h.07c.25-.69.91-1.33,2.09-1.33h.43v1.12h-.66c-1.2,0-1.93.52-1.93,1.2v4.9h-1.12Z"/>
    </g>
  </g>
  <circle class="cls-9" cx="480" cy="232" r="48"/>
  <g>
    <path class="cls-19" d="m440.93,306.36v-.98h1.37v-7.82h-1.37v-.98h3.92v.98h-1.37v7.82h1.37v.98h-3.92Z"/>
    <path class="cls-19" d="m446.99,296.58h4.02c1.61,0,2.61,1,2.61,2.52s-.94,1.98-1.58,2.07v.08c.7.04,1.92.64,1.92,2.27s-1.08,2.83-2.52,2.83h-4.44v-9.78Zm1.18,4.23h2.7c.92,0,1.48-.49,1.48-1.36v-.48c0-.87-.56-1.36-1.48-1.36h-2.7v3.19Zm0,4.51h2.9c1.01,0,1.62-.53,1.62-1.51v-.48c0-.98-.62-1.51-1.62-1.51h-2.9v3.5Z"/>
    <path class="cls-19" d="m456.13,296.58h1.57l2.8,5.27h.07l2.82-5.27h1.51v9.78h-1.15v-8.24h-.07l-.83,1.64-2.34,4.26-2.34-4.26-.83-1.64h-.07v8.24h-1.15v-9.78Z"/>
    <path class="cls-19" d="m470.31,301.53c0-3.26,1.47-5.11,3.94-5.11,1.62,0,2.75.79,3.36,2.14l-.95.57c-.39-1.01-1.2-1.67-2.41-1.67-1.68,0-2.68,1.33-2.68,3.33v1.46c0,2,.99,3.22,2.68,3.22,1.25,0,2.1-.7,2.49-1.76l.94.59c-.62,1.37-1.81,2.23-3.43,2.23-2.47,0-3.94-1.74-3.94-5Z"/>
    <path class="cls-19" d="m479.03,306.36v-.98h1.37v-7.82h-1.37v-.98h3.92v.98h-1.37v7.82h1.37v.98h-3.92Z"/>
    <path class="cls-19" d="m484.61,301.53c0-3.26,1.47-5.11,3.94-5.11,1.62,0,2.75.79,3.36,2.14l-.95.57c-.39-1.01-1.21-1.67-2.41-1.67-1.68,0-2.68,1.33-2.68,3.33v1.46c0,2,.99,3.22,2.68,3.22,1.25,0,2.1-.7,2.49-1.76l.94.59c-.62,1.37-1.81,2.23-3.43,2.23-2.47,0-3.94-1.74-3.94-5Z"/>
    <path class="cls-19" d="m493.08,304.82l.87-.73c.69.91,1.5,1.4,2.63,1.4,1.4,0,2.16-.73,2.16-1.85,0-.92-.52-1.39-1.81-1.68l-.8-.18c-1.78-.41-2.76-1.19-2.76-2.69,0-1.74,1.32-2.68,3.24-2.68,1.47,0,2.51.56,3.24,1.6l-.88.64c-.53-.74-1.27-1.21-2.41-1.21-1.25,0-2.02.55-2.02,1.6,0,.92.6,1.34,1.83,1.62l.8.18c1.91.43,2.73,1.27,2.73,2.73,0,1.79-1.26,2.94-3.36,2.94-1.57,0-2.67-.64-3.46-1.71Z"/>
    <path class="cls-19" d="m508.52,297.62v8.74h-1.18v-8.74h-3.11v-1.04h7.4v1.04h-3.11Z"/>
    <path class="cls-19" d="m512.37,304.82l.87-.73c.69.91,1.5,1.4,2.63,1.4,1.4,0,2.16-.73,2.16-1.85,0-.92-.52-1.39-1.81-1.68l-.8-.18c-1.78-.41-2.76-1.19-2.76-2.69,0-1.74,1.32-2.68,3.24-2.68,1.47,0,2.51.56,3.24,1.6l-.88.64c-.53-.74-1.27-1.21-2.41-1.21-1.25,0-2.02.55-2.02,1.6,0,.92.6,1.34,1.83,1.62l.8.18c1.91.43,2.73,1.27,2.73,2.73,0,1.79-1.26,2.94-3.36,2.94-1.57,0-2.67-.64-3.46-1.71Z"/>
    <path class="cls-19" d="m452.76,318.27c0-3.28,1.62-5.06,4.15-5.06s4.15,1.78,4.15,5.06-1.62,5.06-4.15,5.06-4.15-1.78-4.15-5.06Zm7.03.81v-1.62c0-1.93-1.19-3.19-2.89-3.19s-2.89,1.26-2.89,3.19v1.62c0,1.93,1.19,3.19,2.89,3.19s2.89-1.26,2.89-3.19Z"/>
    <path class="cls-19" d="m463.05,315.93h1.12v1.18h.06c.38-.91,1.12-1.34,2.12-1.34,1.81,0,2.94,1.47,2.94,3.78s-1.13,3.78-2.94,3.78c-.99,0-1.68-.45-2.12-1.35h-.06v3.98h-1.12v-10.03Zm5.03,4.23v-1.23c0-1.29-.78-2.16-2.04-2.16-1.02,0-1.86.59-1.86,1.39v2.69c0,.94.84,1.47,1.86,1.47,1.26,0,2.04-.87,2.04-2.16Z"/>
    <path class="cls-19" d="m470.63,319.55c0-2.3,1.29-3.78,3.25-3.78s3.12,1.48,3.12,3.53v.53h-5.2v.34c0,1.25.8,2.19,2.14,2.19.91,0,1.61-.45,1.99-1.25l.8.57c-.46.98-1.5,1.65-2.86,1.65-1.96,0-3.25-1.49-3.25-3.78Zm1.18-.66v.1h3.99v-.15c0-1.28-.77-2.13-1.92-2.13-1.22,0-2.07.92-2.07,2.18Z"/>
    <path class="cls-19" d="m478.85,323.16v-7.23h1.12v1.33h.07c.25-.69.91-1.33,2.09-1.33h.43v1.12h-.66c-1.2,0-1.93.52-1.93,1.2v4.9h-1.12Z"/>
    <path class="cls-19" d="m489.19,323.16c-.83,0-1.16-.5-1.25-1.18h-.07c-.31.88-1.08,1.35-2.09,1.35-1.53,0-2.42-.84-2.42-2.19s.98-2.12,3.08-2.12h1.43v-.71c0-1.02-.56-1.58-1.71-1.58-.87,0-1.44.42-1.83,1.08l-.67-.63c.39-.77,1.26-1.41,2.56-1.41,1.74,0,2.77.91,2.77,2.44v3.98h.83v.98h-.63Zm-1.32-2.1v-1.19h-1.49c-1.27,0-1.85.39-1.85,1.09v.29c0,.71.56,1.12,1.43,1.12,1.11,0,1.91-.57,1.91-1.32Z"/>
    <path class="cls-19" d="m493.01,323.16c-.77,0-1.19-.49-1.19-1.19v-5.06h-1.19v-.98h.67c.48,0,.63-.17.63-.66v-1.34h1.01v2h1.58v.98h-1.58v5.27h1.47v.98h-1.4Z"/>
    <path class="cls-19" d="m495.74,319.55c0-2.3,1.33-3.78,3.26-3.78s3.26,1.48,3.26,3.78-1.33,3.78-3.26,3.78-3.26-1.49-3.26-3.78Zm5.32.52v-1.04c0-1.53-.85-2.27-2.06-2.27s-2.06.74-2.06,2.27v1.04c0,1.53.85,2.27,2.06,2.27s2.06-.74,2.06-2.27Z"/>
    <path class="cls-19" d="m504.11,323.16v-7.23h1.12v1.33h.07c.25-.69.91-1.33,2.09-1.33h.43v1.12h-.66c-1.2,0-1.93.52-1.93,1.2v4.9h-1.12Z"/>
  </g>
  <g>
    <circle class="cls-9" cx="223.66" cy="232" r="48"/>
    <g>
      <path class="cls-2" d="m248,256h-48v-48h48v48Z"/>
      <g>
        <polyline class="cls-10" points="231.5 233.5 224 241 216.5 233.5"/>
        <line class="cls-7" x1="224" y1="223" x2="224" y2="241"/>
        <polyline class="cls-7" points="206 229 206 221.5 224 211 230.37 214.75"/>
        <polyline class="cls-7" points="230.37 249.25 224 253 206 242.5 206 235"/>
        <polyline class="cls-7" points="235.62 246.25 241.99 242.52 242 221.5 235.62 217.75"/>
      </g>
    </g>
    <g>
      <path class="cls-19" d="m195.29,306.36v-.98h1.37v-7.82h-1.37v-.98h3.92v.98h-1.37v7.82h1.37v.98h-3.92Z"/>
      <path class="cls-19" d="m201.35,296.58h4.02c1.61,0,2.61,1,2.61,2.52s-.94,1.98-1.58,2.07v.08c.7.04,1.92.64,1.92,2.27s-1.08,2.83-2.52,2.83h-4.44v-9.78Zm1.18,4.23h2.7c.92,0,1.48-.49,1.48-1.36v-.48c0-.87-.56-1.36-1.48-1.36h-2.7v3.19Zm0,4.51h2.9c1.01,0,1.62-.53,1.62-1.51v-.48c0-.98-.62-1.51-1.62-1.51h-2.9v3.5Z"/>
      <path class="cls-19" d="m210.49,296.58h1.57l2.8,5.27h.07l2.82-5.27h1.51v9.78h-1.15v-8.24h-.07l-.83,1.64-2.34,4.26-2.34-4.26-.83-1.64h-.07v8.24h-1.15v-9.78Z"/>
      <path class="cls-19" d="m224.32,306.36v-.94l4.1-5.31h-3.98v-.98h5.34v.84l-4.19,5.41h4.3v.98h-5.57Z"/>
      <path class="cls-19" d="m230.48,308.47l3.66-12.48h1.01l-3.66,12.48h-1.01Z"/>
      <path class="cls-19" d="m236.32,301.47c0-3.28,1.62-5.06,4.15-5.06s4.15,1.78,4.15,5.06-1.62,5.06-4.15,5.06-4.15-1.78-4.15-5.06Zm7.03.81v-1.62c0-1.93-1.19-3.19-2.89-3.19s-2.89,1.26-2.89,3.19v1.62c0,1.93,1.19,3.19,2.89,3.19s2.89-1.26,2.89-3.19Z"/>
      <path class="cls-19" d="m246.01,304.82l.87-.73c.69.91,1.5,1.4,2.63,1.4,1.4,0,2.16-.73,2.16-1.85,0-.92-.52-1.39-1.81-1.68l-.8-.18c-1.78-.41-2.76-1.19-2.76-2.69,0-1.74,1.32-2.68,3.24-2.68,1.47,0,2.51.56,3.24,1.6l-.88.64c-.53-.74-1.27-1.21-2.41-1.21-1.25,0-2.02.55-2.02,1.6,0,.92.6,1.34,1.83,1.62l.8.18c1.91.43,2.73,1.27,2.73,2.73,0,1.79-1.26,2.94-3.36,2.94-1.57,0-2.67-.64-3.46-1.71Z"/>
      <path class="cls-19" d="m198.98,323.16v-9.78h3.89c1.75,0,2.73,1.08,2.73,2.8s-.98,2.8-2.73,2.8h-2.72v4.17h-1.18Zm1.18-5.21h2.72c.92,0,1.47-.5,1.47-1.4v-.73c0-.9-.55-1.4-1.47-1.4h-2.72v3.53Z"/>
      <path class="cls-19" d="m212.47,323.16c-.83,0-1.16-.5-1.25-1.18h-.07c-.31.88-1.08,1.35-2.09,1.35-1.53,0-2.42-.84-2.42-2.19s.98-2.12,3.08-2.12h1.43v-.71c0-1.02-.56-1.58-1.71-1.58-.87,0-1.44.42-1.83,1.08l-.67-.63c.39-.77,1.26-1.41,2.56-1.41,1.74,0,2.77.91,2.77,2.44v3.98h.83v.98h-.63Zm-1.32-2.1v-1.19h-1.48c-1.27,0-1.85.39-1.85,1.09v.29c0,.71.56,1.12,1.43,1.12,1.11,0,1.91-.57,1.91-1.32Z"/>
      <path class="cls-19" d="m214.16,319.55c0-2.31,1.19-3.78,3.22-3.78,1.43,0,2.28.7,2.7,1.7l-.94.48c-.27-.74-.88-1.18-1.77-1.18-1.33,0-2.02.91-2.02,2.17v1.23c0,1.26.69,2.17,2.02,2.17.91,0,1.57-.43,1.96-1.26l.81.55c-.46,1.04-1.4,1.71-2.77,1.71-2.03,0-3.22-1.47-3.22-3.78Z"/>
      <path class="cls-19" d="m221.73,312.79h1.12v6.57h.06l1.11-1.23,2.04-2.2h1.36l-2.68,2.86,2.94,4.37h-1.36l-2.4-3.68-1.08,1.11v2.58h-1.12v-10.37Z"/>
      <path class="cls-19" d="m234.29,323.16c-.83,0-1.16-.5-1.25-1.18h-.07c-.31.88-1.08,1.35-2.09,1.35-1.53,0-2.42-.84-2.42-2.19s.98-2.12,3.08-2.12h1.43v-.71c0-1.02-.56-1.58-1.71-1.58-.87,0-1.44.42-1.83,1.08l-.67-.63c.39-.77,1.26-1.41,2.56-1.41,1.74,0,2.77.91,2.77,2.44v3.98h.83v.98h-.63Zm-1.32-2.1v-1.19h-1.49c-1.27,0-1.85.39-1.85,1.09v.29c0,.71.56,1.12,1.43,1.12,1.11,0,1.91-.57,1.91-1.32Z"/>
      <path class="cls-19" d="m239.11,326.13c-2.26,0-3.18-.64-3.18-1.78,0-.78.43-1.2,1.15-1.4v-.15c-.41-.2-.64-.52-.64-1.01,0-.73.52-1.08,1.25-1.26v-.06c-.85-.41-1.36-1.21-1.36-2.21,0-1.47,1.08-2.49,2.72-2.49.52,0,.98.1,1.37.28v-.13c0-.56.24-.97.84-.97h1.08v.98h-1.37v.46c.52.45.83,1.09.83,1.86,0,1.47-1.08,2.49-2.73,2.49-.24,0-.49-.03-.7-.07-.48.13-.95.37-.95.81s.45.55,1.11.55h1.54c1.79,0,2.56.73,2.56,1.92,0,1.49-1.18,2.17-3.5,2.17Zm.95-3.04h-2.41c-.46.21-.67.53-.67.98,0,.63.43,1.15,1.57,1.15h1.04c1.25,0,1.97-.39,1.97-1.18,0-.57-.38-.95-1.5-.95Zm.55-4.64v-.39c0-.95-.6-1.4-1.56-1.4s-1.55.45-1.55,1.4v.39c0,.95.6,1.4,1.55,1.4s1.56-.45,1.56-1.4Z"/>
      <path class="cls-19" d="m243.29,319.55c0-2.3,1.29-3.78,3.25-3.78s3.12,1.48,3.12,3.53v.53h-5.2v.34c0,1.25.8,2.19,2.14,2.19.91,0,1.61-.45,1.99-1.25l.8.57c-.46.98-1.5,1.65-2.86,1.65-1.96,0-3.25-1.49-3.25-3.78Zm1.18-.66v.1h3.99v-.15c0-1.28-.77-2.13-1.92-2.13-1.22,0-2.07.92-2.07,2.18Z"/>
      <path class="cls-19" d="m198.1,330.18h1.57l2.8,5.27h.07l2.82-5.27h1.51v9.78h-1.15v-8.24h-.07l-.83,1.64-2.34,4.26-2.34-4.26-.83-1.64h-.07v8.24h-1.15v-9.78Z"/>
      <path class="cls-19" d="m214.61,339.96c-.83,0-1.16-.5-1.25-1.18h-.07c-.31.88-1.08,1.34-2.09,1.34-1.53,0-2.42-.84-2.42-2.18s.98-2.12,3.08-2.12h1.43v-.71c0-1.02-.56-1.58-1.71-1.58-.87,0-1.44.42-1.83,1.08l-.67-.63c.39-.77,1.26-1.41,2.56-1.41,1.74,0,2.77.91,2.77,2.44v3.98h.83v.98h-.63Zm-1.32-2.1v-1.19h-1.48c-1.27,0-1.85.39-1.85,1.09v.29c0,.71.56,1.12,1.43,1.12,1.11,0,1.91-.57,1.91-1.32Z"/>
      <path class="cls-19" d="m216.83,339.96v-7.23h1.12v1.18h.06c.35-.81.97-1.34,2.05-1.34,1.48,0,2.42,1.01,2.42,2.76v4.64h-1.12v-4.44c0-1.29-.56-1.95-1.64-1.95-.9,0-1.77.45-1.77,1.37v5.01h-1.12Z"/>
      <path class="cls-19" d="m230.04,339.96c-.83,0-1.16-.5-1.25-1.18h-.07c-.31.88-1.08,1.34-2.09,1.34-1.53,0-2.42-.84-2.42-2.18s.98-2.12,3.08-2.12h1.43v-.71c0-1.02-.56-1.58-1.71-1.58-.87,0-1.44.42-1.83,1.08l-.67-.63c.39-.77,1.26-1.41,2.56-1.41,1.74,0,2.77.91,2.77,2.44v3.98h.83v.98h-.63Zm-1.32-2.1v-1.19h-1.49c-1.27,0-1.85.39-1.85,1.09v.29c0,.71.56,1.12,1.43,1.12,1.11,0,1.91-.57,1.91-1.32Z"/>
      <path class="cls-19" d="m234.85,342.93c-2.26,0-3.18-.64-3.18-1.78,0-.78.43-1.21,1.15-1.4v-.15c-.41-.2-.64-.52-.64-1.01,0-.73.52-1.08,1.25-1.26v-.06c-.85-.41-1.36-1.2-1.36-2.21,0-1.47,1.08-2.49,2.72-2.49.52,0,.98.1,1.37.28v-.12c0-.56.24-.97.84-.97h1.08v.98h-1.37v.46c.52.45.83,1.09.83,1.86,0,1.47-1.08,2.49-2.73,2.49-.24,0-.49-.03-.7-.07-.48.13-.95.36-.95.81s.45.55,1.11.55h1.54c1.79,0,2.56.73,2.56,1.92,0,1.49-1.18,2.17-3.5,2.17Zm.95-3.04h-2.41c-.46.21-.67.53-.67.98,0,.63.43,1.15,1.57,1.15h1.04c1.25,0,1.98-.39,1.98-1.18,0-.57-.38-.95-1.5-.95Zm.55-4.64v-.39c0-.95-.6-1.4-1.56-1.4s-1.55.45-1.55,1.4v.39c0,.95.6,1.4,1.55,1.4s1.56-.45,1.56-1.4Z"/>
      <path class="cls-19" d="m239.04,336.35c0-2.3,1.29-3.78,3.25-3.78s3.12,1.48,3.12,3.53v.53h-5.2v.34c0,1.25.8,2.18,2.14,2.18.91,0,1.61-.45,1.99-1.25l.8.57c-.46.98-1.5,1.65-2.86,1.65-1.96,0-3.25-1.49-3.25-3.78Zm1.18-.66v.1h3.99v-.15c0-1.27-.77-2.13-1.92-2.13-1.22,0-2.07.92-2.07,2.19Z"/>
      <path class="cls-19" d="m247.25,339.96v-7.23h1.12v1.33h.07c.25-.69.91-1.33,2.09-1.33h.43v1.12h-.66c-1.2,0-1.93.52-1.93,1.2v4.9h-1.12Z"/>
    </g>
  </g>
  <g>
    <circle class="cls-9" cx="607.66" cy="232" r="48"/>
    <g>
      <path class="cls-2" d="m632,256h-48v-48h48v48Z"/>
      <g>
        <polyline class="cls-3" points="615.5 253 608 245.5 615.5 238"/>
        <polyline class="cls-3" points="620 253 627.5 245.5 620 238"/>
        <line class="cls-9" x1="596" y1="216.95" x2="596" y2="228.95"/>
        <line class="cls-9" x1="614" y1="216.95" x2="614" y2="228.95"/>
        <line class="cls-9" x1="620" y1="216.95" x2="620" y2="228.95"/>
        <path class="cls-19" d="m606.5,218.03c1.06,0,1.92.86,1.92,1.92v6c0,1.06-.86,1.92-1.92,1.92h-3c-1.06,0-1.92-.86-1.92-1.92v-6c0-1.06.86-1.92,1.92-1.92h3m0-1.08h-3c-1.65,0-3,1.35-3,3v6c0,1.65,1.35,3,3,3h3c1.65,0,3-1.35,3-3v-6c0-1.65-1.35-3-3-3h0Z"/>
        <path class="cls-3" d="m600.5,248.5h-7.5c-1.65,0-3-1.35-3-3v-30c0-1.65,1.35-3,3-3h30c1.65,0,3,1.35,3,3v16.5"/>
      </g>
    </g>
    <g>
      <path class="cls-19" d="m577.3,306.36v-.98h1.37v-7.82h-1.37v-.98h3.92v.98h-1.37v7.82h1.37v.98h-3.92Z"/>
      <path class="cls-19" d="m583.36,296.58h4.02c1.61,0,2.61,1,2.61,2.52s-.94,1.98-1.58,2.07v.08c.7.04,1.92.64,1.92,2.27s-1.08,2.83-2.52,2.83h-4.44v-9.78Zm1.18,4.23h2.7c.92,0,1.49-.49,1.49-1.36v-.48c0-.87-.56-1.36-1.49-1.36h-2.7v3.19Zm0,4.51h2.9c1.01,0,1.62-.53,1.62-1.51v-.48c0-.98-.62-1.51-1.62-1.51h-2.9v3.5Z"/>
      <path class="cls-19" d="m592.5,296.58h1.57l2.8,5.27h.07l2.82-5.27h1.51v9.78h-1.15v-8.24h-.07l-.83,1.64-2.34,4.26-2.34-4.26-.83-1.64h-.07v8.24h-1.15v-9.78Z"/>
      <path class="cls-19" d="m606.69,301.47c0-3.28,1.62-5.06,4.15-5.06s4.15,1.78,4.15,5.06-1.62,5.06-4.15,5.06-4.15-1.78-4.15-5.06Zm7.03.81v-1.62c0-1.93-1.19-3.19-2.89-3.19s-2.89,1.26-2.89,3.19v1.62c0,1.93,1.19,3.19,2.89,3.19s2.89-1.26,2.89-3.19Z"/>
      <path class="cls-19" d="m616.97,299.13h1.12v1.18h.06c.38-.91,1.12-1.34,2.12-1.34,1.81,0,2.94,1.47,2.94,3.78s-1.13,3.78-2.94,3.78c-.99,0-1.68-.45-2.12-1.34h-.06v3.98h-1.12v-10.03Zm5.03,4.23v-1.23c0-1.29-.79-2.16-2.05-2.16-1.02,0-1.86.59-1.86,1.39v2.69c0,.94.84,1.47,1.86,1.47,1.26,0,2.05-.87,2.05-2.16Z"/>
      <path class="cls-19" d="m624.56,302.75c0-2.3,1.29-3.78,3.25-3.78s3.12,1.49,3.12,3.53v.53h-5.2v.34c0,1.25.8,2.18,2.14,2.18.91,0,1.61-.45,1.99-1.25l.8.57c-.46.98-1.5,1.65-2.86,1.65-1.96,0-3.25-1.48-3.25-3.78Zm1.18-.66v.1h3.99v-.15c0-1.27-.77-2.13-1.92-2.13-1.22,0-2.07.92-2.07,2.19Z"/>
      <path class="cls-19" d="m632.78,306.36v-7.23h1.12v1.18h.06c.35-.81.97-1.34,2.04-1.34,1.49,0,2.42,1.01,2.42,2.76v4.64h-1.12v-4.44c0-1.29-.56-1.95-1.64-1.95-.9,0-1.76.45-1.76,1.37v5.01h-1.12Z"/>
      <path class="cls-19" d="m576.77,323.16v-9.78h5.97v1.04h-4.79v3.28h4.51v1.04h-4.51v3.39h4.79v1.04h-5.97Z"/>
      <path class="cls-19" d="m584.82,323.16v-7.23h1.12v1.18h.06c.35-.81.97-1.34,2.05-1.34,1.48,0,2.42,1.01,2.42,2.76v4.64h-1.12v-4.44c0-1.29-.56-1.95-1.64-1.95-.9,0-1.76.45-1.76,1.37v5.02h-1.12Z"/>
      <path class="cls-19" d="m594.37,323.16c-.77,0-1.19-.49-1.19-1.19v-5.06h-1.19v-.98h.67c.48,0,.63-.17.63-.66v-1.34h1.01v2h1.58v.98h-1.58v5.27h1.47v.98h-1.4Z"/>
      <path class="cls-19" d="m597.1,319.55c0-2.3,1.29-3.78,3.25-3.78s3.12,1.48,3.12,3.53v.53h-5.2v.34c0,1.25.8,2.19,2.14,2.19.91,0,1.61-.45,1.99-1.25l.8.57c-.46.98-1.5,1.65-2.86,1.65-1.96,0-3.25-1.49-3.25-3.78Zm1.18-.66v.1h3.99v-.15c0-1.28-.77-2.13-1.92-2.13-1.22,0-2.07.92-2.07,2.18Z"/>
      <path class="cls-19" d="m605.32,323.16v-7.23h1.12v1.33h.07c.25-.69.91-1.33,2.09-1.33h.43v1.12h-.66c-1.21,0-1.93.52-1.93,1.2v4.9h-1.12Z"/>
      <path class="cls-19" d="m610.46,315.93h1.12v1.18h.06c.38-.91,1.12-1.34,2.12-1.34,1.81,0,2.94,1.47,2.94,3.78s-1.13,3.78-2.94,3.78c-.99,0-1.68-.45-2.12-1.35h-.06v3.98h-1.12v-10.03Zm5.03,4.23v-1.23c0-1.29-.79-2.16-2.05-2.16-1.02,0-1.86.59-1.86,1.39v2.69c0,.94.84,1.47,1.86,1.47,1.26,0,2.05-.87,2.05-2.16Z"/>
      <path class="cls-19" d="m618.58,323.16v-7.23h1.12v1.33h.07c.25-.69.91-1.33,2.09-1.33h.43v1.12h-.66c-1.2,0-1.93.52-1.93,1.2v4.9h-1.12Z"/>
      <path class="cls-19" d="m623.59,313.61v-.18c0-.38.21-.63.69-.63s.69.25.69.63v.18c0,.38-.21.63-.69.63s-.69-.25-.69-.63Zm.13,2.33h1.12v7.23h-1.12v-7.23Z"/>
      <path class="cls-19" d="m626.53,321.91l.8-.64c.56.7,1.23,1.11,2.14,1.11s1.51-.43,1.51-1.18c0-.56-.31-1-1.26-1.13l-.57-.08c-1.33-.2-2.33-.74-2.33-2.09,0-1.43,1.11-2.13,2.58-2.13,1.16,0,1.93.43,2.52,1.16l-.74.67c-.32-.45-.94-.88-1.86-.88s-1.42.43-1.42,1.12.49.98,1.39,1.12l.56.08c1.6.24,2.21.94,2.21,2.03,0,1.4-1.02,2.26-2.68,2.26-1.33,0-2.21-.56-2.86-1.42Z"/>
      <path class="cls-19" d="m633.5,319.55c0-2.3,1.29-3.78,3.25-3.78s3.12,1.48,3.12,3.53v.53h-5.2v.34c0,1.25.8,2.19,2.14,2.19.91,0,1.61-.45,1.99-1.25l.8.57c-.46.98-1.5,1.65-2.86,1.65-1.96,0-3.25-1.49-3.25-3.78Zm1.18-.66v.1h3.99v-.15c0-1.28-.77-2.13-1.92-2.13-1.22,0-2.07.92-2.07,2.18Z"/>
      <path class="cls-19" d="m575.8,339.96v-9.78h1.18v8.74h4.16v1.04h-5.34Z"/>
      <path class="cls-19" d="m587.94,339.96c-.83,0-1.16-.5-1.25-1.18h-.07c-.31.88-1.08,1.34-2.09,1.34-1.53,0-2.42-.84-2.42-2.18s.98-2.12,3.08-2.12h1.43v-.71c0-1.02-.56-1.58-1.71-1.58-.87,0-1.44.42-1.83,1.08l-.67-.63c.39-.77,1.26-1.41,2.56-1.41,1.74,0,2.77.91,2.77,2.44v3.98h.83v.98h-.63Zm-1.32-2.1v-1.19h-1.48c-1.28,0-1.85.39-1.85,1.09v.29c0,.71.56,1.12,1.43,1.12,1.11,0,1.91-.57,1.91-1.32Z"/>
      <path class="cls-19" d="m590.16,339.96v-7.23h1.12v1.18h.06c.35-.81.97-1.34,2.04-1.34,1.48,0,2.42,1.01,2.42,2.76v4.64h-1.12v-4.44c0-1.29-.56-1.95-1.64-1.95-.9,0-1.77.45-1.77,1.37v5.01h-1.12Z"/>
      <path class="cls-19" d="m600.71,342.93c-2.25,0-3.18-.64-3.18-1.78,0-.78.43-1.21,1.15-1.4v-.15c-.41-.2-.64-.52-.64-1.01,0-.73.52-1.08,1.25-1.26v-.06c-.85-.41-1.36-1.2-1.36-2.21,0-1.47,1.08-2.49,2.72-2.49.52,0,.98.1,1.37.28v-.12c0-.56.24-.97.84-.97h1.08v.98h-1.37v.46c.52.45.83,1.09.83,1.86,0,1.47-1.08,2.49-2.73,2.49-.24,0-.49-.03-.7-.07-.48.13-.95.36-.95.81s.45.55,1.11.55h1.54c1.79,0,2.56.73,2.56,1.92,0,1.49-1.18,2.17-3.5,2.17Zm.95-3.04h-2.41c-.46.21-.67.53-.67.98,0,.63.43,1.15,1.57,1.15h1.04c1.25,0,1.98-.39,1.98-1.18,0-.57-.38-.95-1.5-.95Zm.55-4.64v-.39c0-.95-.6-1.4-1.55-1.4s-1.55.45-1.55,1.4v.39c0,.95.6,1.4,1.55,1.4s1.55-.45,1.55-1.4Z"/>
      <path class="cls-19" d="m609.91,338.78h-.06c-.28.69-.83,1.34-2.03,1.34-1.49,0-2.44-1.01-2.44-2.76v-4.64h1.12v4.44c0,1.29.57,1.95,1.65,1.95.88,0,1.75-.43,1.75-1.39v-5h1.12v7.23h-1.12v-1.18Z"/>
      <path class="cls-19" d="m618.66,339.96c-.83,0-1.16-.5-1.25-1.18h-.07c-.31.88-1.08,1.34-2.09,1.34-1.53,0-2.42-.84-2.42-2.18s.98-2.12,3.08-2.12h1.43v-.71c0-1.02-.56-1.58-1.71-1.58-.87,0-1.44.42-1.83,1.08l-.67-.63c.39-.77,1.26-1.41,2.56-1.41,1.74,0,2.77.91,2.77,2.44v3.98h.83v.98h-.63Zm-1.32-2.1v-1.19h-1.49c-1.27,0-1.85.39-1.85,1.09v.29c0,.71.56,1.12,1.43,1.12,1.11,0,1.91-.57,1.91-1.32Z"/>
      <path class="cls-19" d="m623.47,342.93c-2.26,0-3.18-.64-3.18-1.78,0-.78.43-1.21,1.15-1.4v-.15c-.41-.2-.64-.52-.64-1.01,0-.73.52-1.08,1.25-1.26v-.06c-.85-.41-1.36-1.2-1.36-2.21,0-1.47,1.08-2.49,2.72-2.49.52,0,.98.1,1.37.28v-.12c0-.56.24-.97.84-.97h1.08v.98h-1.37v.46c.52.45.83,1.09.83,1.86,0,1.47-1.08,2.49-2.73,2.49-.24,0-.49-.03-.7-.07-.48.13-.95.36-.95.81s.45.55,1.11.55h1.54c1.79,0,2.56.73,2.56,1.92,0,1.49-1.18,2.17-3.5,2.17Zm.95-3.04h-2.41c-.46.21-.67.53-.67.98,0,.63.43,1.15,1.57,1.15h1.04c1.25,0,1.97-.39,1.97-1.18,0-.57-.38-.95-1.5-.95Zm.55-4.64v-.39c0-.95-.6-1.4-1.56-1.4s-1.55.45-1.55,1.4v.39c0,.95.6,1.4,1.55,1.4s1.56-.45,1.56-1.4Z"/>
      <path class="cls-19" d="m627.65,336.35c0-2.3,1.29-3.78,3.25-3.78s3.12,1.48,3.12,3.53v.53h-5.2v.34c0,1.25.8,2.18,2.14,2.18.91,0,1.61-.45,1.99-1.25l.8.57c-.46.98-1.5,1.65-2.86,1.65-1.96,0-3.25-1.49-3.25-3.78Zm1.18-.66v.1h3.99v-.15c0-1.27-.77-2.13-1.92-2.13-1.22,0-2.07.92-2.07,2.19Z"/>
      <path class="cls-19" d="m635.19,338.71l.8-.64c.56.7,1.23,1.11,2.14,1.11s1.51-.43,1.51-1.18c0-.56-.31-1-1.26-1.13l-.57-.08c-1.33-.2-2.33-.74-2.33-2.09,0-1.43,1.11-2.13,2.58-2.13,1.16,0,1.93.43,2.52,1.16l-.74.67c-.32-.45-.94-.88-1.86-.88s-1.42.43-1.42,1.12.49.98,1.39,1.12l.56.08c1.6.24,2.21.94,2.21,2.03,0,1.4-1.02,2.25-2.68,2.25-1.33,0-2.21-.56-2.86-1.42Z"/>
    </g>
  </g>
  <g>
    <circle class="cls-9" cx="96" cy="232" r="48"/>
    <g>
      <path class="cls-19" d="m67.29,306.36v-.98h1.37v-7.82h-1.37v-.98h3.92v.98h-1.37v7.82h1.37v.98h-3.92Z"/>
      <path class="cls-19" d="m73.35,296.58h4.02c1.61,0,2.61,1,2.61,2.52s-.94,1.98-1.58,2.07v.08c.7.04,1.92.64,1.92,2.27s-1.08,2.83-2.52,2.83h-4.44v-9.78Zm1.18,4.23h2.7c.92,0,1.48-.49,1.48-1.36v-.48c0-.87-.56-1.36-1.48-1.36h-2.7v3.19Zm0,4.51h2.9c1.01,0,1.62-.53,1.62-1.51v-.48c0-.98-.62-1.51-1.62-1.51h-2.9v3.5Z"/>
      <path class="cls-19" d="m82.49,296.58h1.57l2.8,5.27h.07l2.82-5.27h1.51v9.78h-1.15v-8.24h-.07l-.83,1.64-2.34,4.26-2.34-4.26-.83-1.64h-.07v8.24h-1.15v-9.78Z"/>
      <path class="cls-19" d="m96.32,306.36v-.94l4.1-5.31h-3.98v-.98h5.34v.84l-4.19,5.41h4.3v.98h-5.57Z"/>
      <path class="cls-19" d="m102.48,308.47l3.66-12.48h1.01l-3.66,12.48h-1.01Z"/>
      <path class="cls-19" d="m108.32,301.47c0-3.28,1.62-5.06,4.15-5.06s4.15,1.78,4.15,5.06-1.62,5.06-4.15,5.06-4.15-1.78-4.15-5.06Zm7.03.81v-1.62c0-1.93-1.19-3.19-2.89-3.19s-2.89,1.26-2.89,3.19v1.62c0,1.93,1.19,3.19,2.89,3.19s2.89-1.26,2.89-3.19Z"/>
      <path class="cls-19" d="m118.01,304.82l.87-.73c.69.91,1.5,1.4,2.63,1.4,1.4,0,2.16-.73,2.16-1.85,0-.92-.52-1.39-1.81-1.68l-.8-.18c-1.78-.41-2.76-1.19-2.76-2.69,0-1.74,1.32-2.68,3.24-2.68,1.47,0,2.51.56,3.24,1.6l-.88.64c-.53-.74-1.27-1.21-2.41-1.21-1.25,0-2.02.55-2.02,1.6,0,.92.6,1.34,1.83,1.62l.8.18c1.91.43,2.73,1.27,2.73,2.73,0,1.79-1.26,2.94-3.36,2.94-1.57,0-2.67-.64-3.46-1.71Z"/>
      <path class="cls-19" d="m55.95,318.33c0-3.26,1.47-5.11,3.94-5.11,1.62,0,2.75.78,3.36,2.14l-.95.57c-.39-1.01-1.2-1.67-2.41-1.67-1.68,0-2.68,1.33-2.68,3.33v1.46c0,2,.99,3.22,2.68,3.22,1.25,0,2.1-.7,2.49-1.77l.94.59c-.62,1.37-1.81,2.23-3.43,2.23-2.47,0-3.94-1.74-3.94-5Z"/>
      <path class="cls-19" d="m66.21,323.16c-.77,0-1.19-.49-1.19-1.16v-9.2h1.12v9.39h1.06v.98h-.99Z"/>
      <path class="cls-19" d="m68.29,319.55c0-2.3,1.33-3.78,3.26-3.78s3.26,1.48,3.26,3.78-1.33,3.78-3.26,3.78-3.26-1.49-3.26-3.78Zm5.32.52v-1.04c0-1.53-.85-2.27-2.06-2.27s-2.06.74-2.06,2.27v1.04c0,1.53.85,2.27,2.06,2.27s2.06-.74,2.06-2.27Z"/>
      <path class="cls-19" d="m81.12,321.98h-.06c-.28.69-.83,1.35-2.03,1.35-1.48,0-2.44-1.01-2.44-2.76v-4.64h1.12v4.44c0,1.29.57,1.95,1.65,1.95.88,0,1.75-.43,1.75-1.39v-5h1.12v7.23h-1.12v-1.18Z"/>
      <path class="cls-19" d="m89.24,321.98h-.06c-.43.9-1.12,1.35-2.12,1.35-1.81,0-2.94-1.47-2.94-3.78s1.13-3.78,2.94-3.78c.99,0,1.74.43,2.12,1.34h.06v-4.31h1.12v10.37h-1.12v-1.18Zm0-1.13v-2.69c0-.8-.84-1.39-1.86-1.39-1.26,0-2.04.87-2.04,2.16v1.23c0,1.29.78,2.16,2.04,2.16,1.02,0,1.86-.53,1.86-1.47Z"/>
      <path class="cls-19" d="m96.15,313.38h4.02c1.61,0,2.61.99,2.61,2.52s-.94,1.97-1.58,2.07v.08c.7.04,1.92.64,1.92,2.27s-1.08,2.83-2.52,2.83h-4.44v-9.78Zm1.18,4.23h2.7c.92,0,1.48-.49,1.48-1.36v-.48c0-.87-.56-1.36-1.48-1.36h-2.7v3.19Zm0,4.51h2.9c1.01,0,1.62-.53,1.62-1.51v-.48c0-.98-.62-1.51-1.62-1.51h-2.9v3.5Z"/>
      <path class="cls-19" d="m105.18,323.16v-7.23h1.12v1.33h.07c.25-.69.91-1.33,2.09-1.33h.43v1.12h-.66c-1.2,0-1.93.52-1.93,1.2v4.9h-1.12Z"/>
      <path class="cls-19" d="m109.72,319.55c0-2.3,1.33-3.78,3.26-3.78s3.26,1.48,3.26,3.78-1.33,3.78-3.26,3.78-3.26-1.49-3.26-3.78Zm5.32.52v-1.04c0-1.53-.85-2.27-2.06-2.27s-2.06.74-2.06,2.27v1.04c0,1.53.85,2.27,2.06,2.27s2.06-.74,2.06-2.27Z"/>
      <path class="cls-19" d="m118.09,312.79h1.12v6.57h.06l1.11-1.23,2.04-2.2h1.36l-2.68,2.86,2.94,4.37h-1.36l-2.4-3.68-1.08,1.11v2.58h-1.12v-10.37Z"/>
      <path class="cls-19" d="m124.7,319.55c0-2.3,1.29-3.78,3.25-3.78s3.12,1.48,3.12,3.53v.53h-5.2v.34c0,1.25.8,2.19,2.14,2.19.91,0,1.61-.45,1.99-1.25l.8.57c-.46.98-1.5,1.65-2.86,1.65-1.96,0-3.25-1.49-3.25-3.78Zm1.18-.66v.1h3.99v-.15c0-1.28-.77-2.13-1.92-2.13-1.22,0-2.07.92-2.07,2.18Z"/>
      <path class="cls-19" d="m132.92,323.16v-7.23h1.12v1.33h.07c.25-.69.91-1.33,2.09-1.33h.43v1.12h-.66c-1.2,0-1.93.52-1.93,1.2v4.9h-1.12Z"/>
    </g>
    <g>
      <path class="cls-2" d="m120,256h-48v-48h48v48Z"/>
      <g>
        <line class="cls-8" x1="99" y1="218.5" x2="114" y2="218.5"/>
        <polyline class="cls-8" points="108 212.51 114 218.51 108 224.51"/>
        <line class="cls-8" x1="93" y1="245.51" x2="78" y2="245.51"/>
        <polyline class="cls-8" points="84 251.5 78 245.5 84 239.5"/>
        <circle class="cls-8" cx="96" cy="232" r="7.5"/>
        <path class="cls-8" d="m93,251.5h6c1.02,0,1.62-.47,1.78-1.14l1.15-4.59c1.08-.47,2.09-1.06,3.02-1.76l4.56,1.31c.66.19,1.37-.1,1.71-.69l3.33-5.77c.34-.6.24-1.35-.26-1.83l-3.41-3.29c.07-.57.11-1.15.11-1.75s-.04-1.17-.11-1.75l4.61-5.75"/>
        <path class="cls-8" d="m99,212.5h-6.33c-.69,0-1.29.47-1.46,1.14l-1.15,4.59c-1.08.47-2.09,1.06-3.02,1.76l-4.56-1.31c-.66-.19-1.37.1-1.71.69l-3.33,5.77c-.34.6-.24,1.35.26,1.83l3.41,3.29c-.07.57-.11,1.15-.11,1.75s.04,1.17.11,1.75l-4.61,5.75"/>
      </g>
    </g>
  </g>
  <g>
    <circle class="cls-9" cx="863.66" cy="232" r="48"/>
    <g>
      <path class="cls-19" d="m835.23,306.36v-.98h1.37v-7.82h-1.37v-.98h3.92v.98h-1.37v7.82h1.37v.98h-3.92Z"/>
      <path class="cls-19" d="m841.29,296.58h4.02c1.61,0,2.61,1,2.61,2.52s-.94,1.98-1.58,2.07v.08c.7.04,1.92.64,1.92,2.27s-1.08,2.83-2.52,2.83h-4.44v-9.78Zm1.18,4.23h2.7c.92,0,1.49-.49,1.49-1.36v-.48c0-.87-.56-1.36-1.49-1.36h-2.7v3.19Zm0,4.51h2.9c1.01,0,1.62-.53,1.62-1.51v-.48c0-.98-.62-1.51-1.62-1.51h-2.9v3.5Z"/>
      <path class="cls-19" d="m850.44,296.58h1.57l2.8,5.27h.07l2.82-5.27h1.51v9.78h-1.15v-8.24h-.07l-.83,1.64-2.34,4.26-2.34-4.26-.83-1.64h-.07v8.24h-1.15v-9.78Z"/>
      <path class="cls-19" d="m866.47,306.36l-2.38-9.78h1.25l1.05,4.71.81,3.66h.03l.91-3.66,1.23-4.71h1.34l1.19,4.71.91,3.64h.04l.84-3.64,1.11-4.71h1.21l-2.51,9.78h-1.3l-1.27-4.87-.9-3.59h-.03l-.92,3.59-1.3,4.87h-1.3Z"/>
      <path class="cls-19" d="m882.58,306.36c-.83,0-1.16-.5-1.25-1.18h-.07c-.31.88-1.08,1.34-2.09,1.34-1.53,0-2.42-.84-2.42-2.18s.98-2.12,3.08-2.12h1.43v-.71c0-1.02-.56-1.58-1.71-1.58-.87,0-1.44.42-1.83,1.08l-.67-.63c.39-.77,1.26-1.42,2.56-1.42,1.74,0,2.77.91,2.77,2.44v3.98h.83v.98h-.63Zm-1.32-2.1v-1.19h-1.49c-1.27,0-1.85.39-1.85,1.09v.29c0,.71.56,1.12,1.43,1.12,1.11,0,1.91-.58,1.91-1.32Z"/>
      <path class="cls-19" d="m884.08,306.36v-.94l4.1-5.31h-3.98v-.98h5.34v.84l-4.19,5.41h4.3v.98h-5.58Z"/>
      <path class="cls-19" d="m891.17,296.81v-.18c0-.38.21-.63.69-.63s.69.25.69.63v.18c0,.38-.21.63-.69.63s-.69-.25-.69-.63Zm.13,2.33h1.12v7.23h-1.12v-7.23Z"/>
    </g>
    <path id="systems-devops--cicd-pipeline" class="cls-6" d="m882,229v13.5l-18,10.5-18-10.5v-21l18-10.5,18,10.5-12.76,7.58m.76,2.92c0-3.31-2.69-6-6-6s-6,2.69-6,6,2.69,6,6,6,6-2.69,6-6Z"/>
    <rect class="cls-1" x="840" y="208" width="48" height="48"/>
  </g>
  <g>
    <circle class="cls-12" cx="735.66" cy="232" r="48"/>
    <g>
      <path class="cls-19" d="m707.29,306.36v-.98h1.37v-7.82h-1.37v-.98h3.92v.98h-1.37v7.82h1.37v.98h-3.92Z"/>
      <path class="cls-19" d="m713.35,296.58h4.02c1.61,0,2.61,1,2.61,2.52s-.94,1.98-1.58,2.07v.08c.7.04,1.92.64,1.92,2.27s-1.08,2.83-2.52,2.83h-4.44v-9.78Zm1.18,4.23h2.7c.93,0,1.49-.49,1.49-1.36v-.48c0-.87-.56-1.36-1.49-1.36h-2.7v3.19Zm0,4.51h2.9c1.01,0,1.62-.53,1.62-1.51v-.48c0-.98-.62-1.51-1.62-1.51h-2.9v3.5Z"/>
      <path class="cls-19" d="m722.49,296.58h1.57l2.8,5.27h.07l2.82-5.27h1.51v9.78h-1.15v-8.24h-.07l-.83,1.64-2.34,4.26-2.34-4.26-.83-1.64h-.07v8.24h-1.15v-9.78Z"/>
      <path class="cls-19" d="m736.32,306.36v-.94l4.1-5.31h-3.98v-.98h5.34v.84l-4.19,5.41h4.3v.98h-5.58Z"/>
      <path class="cls-19" d="m742.48,308.47l3.66-12.48h1.01l-3.66,12.48h-1.01Z"/>
      <path class="cls-19" d="m748.32,301.47c0-3.28,1.62-5.06,4.15-5.06s4.15,1.78,4.15,5.06-1.62,5.06-4.15,5.06-4.15-1.78-4.15-5.06Zm7.03.81v-1.62c0-1.93-1.19-3.19-2.89-3.19s-2.89,1.26-2.89,3.19v1.62c0,1.93,1.19,3.19,2.89,3.19s2.89-1.26,2.89-3.19Z"/>
      <path class="cls-19" d="m758.01,304.82l.87-.73c.69.91,1.5,1.4,2.63,1.4,1.4,0,2.16-.73,2.16-1.85,0-.92-.52-1.39-1.81-1.68l-.8-.18c-1.78-.41-2.76-1.19-2.76-2.69,0-1.74,1.32-2.68,3.24-2.68,1.47,0,2.51.56,3.24,1.6l-.88.64c-.53-.74-1.27-1.21-2.41-1.21-1.25,0-2.02.55-2.02,1.6,0,.92.6,1.34,1.83,1.62l.8.18c1.91.43,2.73,1.27,2.73,2.73,0,1.79-1.26,2.94-3.36,2.94-1.57,0-2.67-.64-3.46-1.71Z"/>
      <path class="cls-19" d="m710.77,318.33c0-3.26,1.47-5.11,3.94-5.11,1.62,0,2.75.78,3.36,2.14l-.95.57c-.39-1.01-1.2-1.67-2.41-1.67-1.68,0-2.68,1.33-2.68,3.33v1.46c0,2,1,3.22,2.68,3.22,1.25,0,2.1-.7,2.49-1.77l.94.59c-.62,1.37-1.81,2.23-3.43,2.23-2.46,0-3.94-1.74-3.94-5Z"/>
      <path class="cls-19" d="m719.31,319.55c0-2.3,1.33-3.78,3.26-3.78s3.26,1.48,3.26,3.78-1.33,3.78-3.26,3.78-3.26-1.49-3.26-3.78Zm5.32.52v-1.04c0-1.53-.85-2.27-2.06-2.27s-2.06.74-2.06,2.27v1.04c0,1.53.85,2.27,2.06,2.27s2.06-.74,2.06-2.27Z"/>
      <path class="cls-19" d="m727.68,323.16v-7.23h1.12v1.18h.06c.35-.81.97-1.34,2.04-1.34,1.48,0,2.42,1.01,2.42,2.76v4.64h-1.12v-4.44c0-1.29-.56-1.95-1.64-1.95-.9,0-1.77.45-1.77,1.37v5.02h-1.12Z"/>
      <path class="cls-19" d="m735.64,323.16v-7.23h1.12v1.18h.06c.35-.81.97-1.34,2.04-1.34,1.49,0,2.42,1.01,2.42,2.76v4.64h-1.12v-4.44c0-1.29-.56-1.95-1.64-1.95-.9,0-1.76.45-1.76,1.37v5.02h-1.12Z"/>
      <path class="cls-19" d="m743.06,319.55c0-2.3,1.29-3.78,3.25-3.78s3.12,1.48,3.12,3.53v.53h-5.2v.34c0,1.25.8,2.19,2.14,2.19.91,0,1.61-.45,1.99-1.25l.8.57c-.46.98-1.5,1.65-2.86,1.65-1.96,0-3.25-1.49-3.25-3.78Zm1.18-.66v.1h3.99v-.15c0-1.28-.77-2.13-1.92-2.13-1.22,0-2.07.92-2.07,2.18Z"/>
      <path class="cls-19" d="m750.74,319.55c0-2.31,1.19-3.78,3.22-3.78,1.43,0,2.28.7,2.7,1.7l-.94.48c-.27-.74-.88-1.18-1.77-1.18-1.33,0-2.02.91-2.02,2.17v1.23c0,1.26.69,2.17,2.02,2.17.91,0,1.57-.43,1.96-1.26l.81.55c-.46,1.04-1.4,1.71-2.77,1.71-2.03,0-3.22-1.47-3.22-3.78Z"/>
      <path class="cls-19" d="m759.91,323.16c-.77,0-1.19-.49-1.19-1.19v-5.06h-1.19v-.98h.67c.48,0,.63-.17.63-.66v-1.34h1.01v2h1.58v.98h-1.58v5.27h1.47v.98h-1.4Z"/>
    </g>
    <g>
      <path class="cls-2" d="m760,256h-48v-48h48v48Z"/>
      <g>
        <rect class="cls-9" x="728.5" y="224.5" width="15" height="15" rx="1.5" ry="1.5"/>
        <path class="cls-9" d="m728.5,220c0-4.12,3.38-7.5,7.5-7.5h12c4.12,0,7.5,3.38,7.5,7.5v12c0,4.12-3.38,7.5-7.5,7.5"/>
        <path class="cls-9" d="m743.5,244c0,4.12-3.38,7.5-7.5,7.5h-12c-4.12,0-7.5-3.38-7.5-7.5v-12c0-4.12,3.38-7.5,7.5-7.5"/>
      </g>
    </g>
  </g>
  <g>
    <g>
      <path class="cls-19" d="m955.59,306.36v-.98h1.37v-7.82h-1.37v-.98h3.92v.98h-1.37v7.82h1.37v.98h-3.92Z"/>
      <path class="cls-19" d="m961.65,296.58h4.02c1.61,0,2.61,1,2.61,2.52s-.94,1.98-1.58,2.07v.08c.7.04,1.92.64,1.92,2.27s-1.08,2.83-2.52,2.83h-4.44v-9.78Zm1.18,4.23h2.7c.92,0,1.48-.49,1.48-1.36v-.48c0-.87-.56-1.36-1.48-1.36h-2.7v3.19Zm0,4.51h2.9c1.01,0,1.62-.53,1.62-1.51v-.48c0-.98-.62-1.51-1.62-1.51h-2.9v3.5Z"/>
      <path class="cls-19" d="m970.79,296.58h1.57l2.8,5.27h.07l2.81-5.27h1.51v9.78h-1.15v-8.24h-.07l-.83,1.64-2.34,4.26-2.34-4.26-.83-1.64h-.07v8.24h-1.15v-9.78Z"/>
      <path class="cls-19" d="m991.78,306.36h-7.12v-1.06l5.65-7.68h-5.35v-1.04h6.62v1.06l-5.66,7.68h5.86v1.04Z"/>
      <path class="cls-19" d="m996.4,301.47c0-3.28,1.62-5.06,4.15-5.06s4.15,1.78,4.15,5.06-1.62,5.06-4.15,5.06-4.15-1.78-4.15-5.06Zm7.03.81v-1.62c0-1.93-1.19-3.19-2.88-3.19s-2.89,1.26-2.89,3.19v1.62c0,1.93,1.19,3.19,2.89,3.19s2.88-1.26,2.88-3.19Z"/>
      <path class="cls-19" d="m1006.69,299.13h1.12v1.18h.06c.38-.91,1.12-1.34,2.12-1.34,1.81,0,2.94,1.47,2.94,3.78s-1.13,3.78-2.94,3.78c-.99,0-1.68-.45-2.12-1.34h-.06v3.98h-1.12v-10.03Zm5.03,4.23v-1.23c0-1.29-.79-2.16-2.05-2.16-1.02,0-1.86.59-1.86,1.39v2.69c0,.94.84,1.47,1.86,1.47,1.26,0,2.05-.87,2.05-2.16Z"/>
      <path class="cls-19" d="m1014.27,302.75c0-2.3,1.29-3.78,3.25-3.78s3.12,1.49,3.12,3.53v.53h-5.2v.34c0,1.25.8,2.18,2.14,2.18.91,0,1.61-.45,1.99-1.25l.8.57c-.46.98-1.5,1.65-2.86,1.65-1.96,0-3.25-1.48-3.25-3.78Zm1.18-.66v.1h3.99v-.15c0-1.27-.77-2.13-1.92-2.13-1.22,0-2.07.92-2.07,2.19Z"/>
      <path class="cls-19" d="m1022.49,306.36v-7.23h1.12v1.18h.06c.35-.81.97-1.34,2.04-1.34,1.49,0,2.42,1.01,2.42,2.76v4.64h-1.12v-4.44c0-1.29-.56-1.95-1.64-1.95-.9,0-1.76.45-1.76,1.37v5.01h-1.12Z"/>
      <path class="cls-19" d="m962.66,323.16l-.98-2.89h-3.95l-.98,2.89h-1.19l3.42-9.78h1.5l3.42,9.78h-1.23Zm-2.93-8.69h-.07l-1.65,4.76h3.38l-1.65-4.76Z"/>
      <path class="cls-19" d="m969.86,321.98h-.06c-.28.69-.83,1.35-2.03,1.35-1.48,0-2.44-1.01-2.44-2.76v-4.64h1.12v4.44c0,1.29.57,1.95,1.65,1.95.88,0,1.75-.43,1.75-1.39v-5h1.12v7.23h-1.12v-1.18Z"/>
      <path class="cls-19" d="m974.95,323.16c-.77,0-1.19-.49-1.19-1.19v-5.06h-1.19v-.98h.67c.48,0,.63-.17.63-.66v-1.34h1.01v2h1.58v.98h-1.58v5.27h1.47v.98h-1.4Z"/>
      <path class="cls-19" d="m977.68,319.55c0-2.3,1.33-3.78,3.26-3.78s3.26,1.48,3.26,3.78-1.33,3.78-3.26,3.78-3.26-1.49-3.26-3.78Zm5.32.52v-1.04c0-1.53-.86-2.27-2.06-2.27s-2.06.74-2.06,2.27v1.04c0,1.53.85,2.27,2.06,2.27s2.06-.74,2.06-2.27Z"/>
      <path class="cls-19" d="m986.05,323.16v-7.23h1.12v1.18h.06c.32-.74.83-1.34,1.95-1.34.95,0,1.82.43,2.21,1.47h.03c.27-.78.97-1.47,2.2-1.47,1.47,0,2.35,1.01,2.35,2.76v4.64h-1.12v-4.44c0-1.27-.49-1.95-1.58-1.95-.88,0-1.7.45-1.7,1.37v5.02h-1.12v-4.44c0-1.29-.49-1.95-1.55-1.95-.88,0-1.72.45-1.72,1.37v5.02h-1.12Z"/>
      <path class="cls-19" d="m1003.53,323.16c-.83,0-1.16-.5-1.25-1.18h-.07c-.31.88-1.08,1.35-2.09,1.35-1.53,0-2.42-.84-2.42-2.19s.98-2.12,3.08-2.12h1.43v-.71c0-1.02-.56-1.58-1.71-1.58-.87,0-1.44.42-1.83,1.08l-.67-.63c.39-.77,1.26-1.41,2.56-1.41,1.74,0,2.77.91,2.77,2.44v3.98h.83v.98h-.63Zm-1.32-2.1v-1.19h-1.49c-1.27,0-1.85.39-1.85,1.09v.29c0,.71.56,1.12,1.43,1.12,1.11,0,1.91-.57,1.91-1.32Z"/>
      <path class="cls-19" d="m1007.34,323.16c-.77,0-1.19-.49-1.19-1.19v-5.06h-1.19v-.98h.67c.48,0,.63-.17.63-.66v-1.34h1.01v2h1.58v.98h-1.58v5.27h1.47v.98h-1.4Z"/>
      <path class="cls-19" d="m1010.54,313.61v-.18c0-.38.21-.63.69-.63s.69.25.69.63v.18c0,.38-.21.63-.69.63s-.69-.25-.69-.63Zm.13,2.33h1.12v7.23h-1.12v-7.23Z"/>
      <path class="cls-19" d="m1013.63,319.55c0-2.3,1.33-3.78,3.26-3.78s3.26,1.48,3.26,3.78-1.33,3.78-3.26,3.78-3.26-1.49-3.26-3.78Zm5.32.52v-1.04c0-1.53-.85-2.27-2.06-2.27s-2.06.74-2.06,2.27v1.04c0,1.53.85,2.27,2.06,2.27s2.06-.74,2.06-2.27Z"/>
      <path class="cls-19" d="m1022,323.16v-7.23h1.12v1.18h.06c.35-.81.97-1.34,2.04-1.34,1.49,0,2.42,1.01,2.42,2.76v4.64h-1.12v-4.44c0-1.29-.56-1.95-1.64-1.95-.9,0-1.76.45-1.76,1.37v5.02h-1.12Z"/>
      <path class="cls-19" d="m970.34,330.18v6.05c0,1.86.6,2.84,2.34,2.84s2.34-.98,2.34-2.84v-6.05h1.18v5.77c0,2.84-.95,4.17-3.56,4.17s-3.47-1.33-3.47-4.17v-5.77h1.18Z"/>
      <path class="cls-19" d="m980.21,339.96c-.77,0-1.19-.49-1.19-1.19v-5.06h-1.19v-.98h.67c.48,0,.63-.17.63-.66v-1.35h1.01v2h1.58v.98h-1.58v5.27h1.47v.98h-1.4Z"/>
      <path class="cls-19" d="m983.4,330.41v-.18c0-.38.21-.63.69-.63s.69.25.69.63v.18c0,.38-.21.63-.69.63s-.69-.25-.69-.63Zm.13,2.33h1.12v7.23h-1.12v-7.23Z"/>
      <path class="cls-19" d="m988.22,339.96c-.77,0-1.19-.49-1.19-1.16v-9.2h1.12v9.39h1.07v.98h-1Z"/>
      <path class="cls-19" d="m990.71,330.41v-.18c0-.38.21-.63.69-.63s.69.25.69.63v.18c0,.38-.21.63-.69.63s-.69-.25-.69-.63Zm.13,2.33h1.12v7.23h-1.12v-7.23Z"/>
      <path class="cls-19" d="m995.93,339.96c-.77,0-1.19-.49-1.19-1.19v-5.06h-1.19v-.98h.67c.48,0,.63-.17.63-.66v-1.35h1.01v2h1.58v.98h-1.58v5.27h1.47v.98h-1.4Z"/>
      <path class="cls-19" d="m999.13,330.41v-.18c0-.38.21-.63.69-.63s.69.25.69.63v.18c0,.38-.21.63-.69.63s-.69-.25-.69-.63Zm.13,2.33h1.12v7.23h-1.12v-7.23Z"/>
      <path class="cls-19" d="m1002.22,336.35c0-2.3,1.29-3.78,3.25-3.78s3.12,1.48,3.12,3.53v.53h-5.2v.34c0,1.25.8,2.18,2.14,2.18.91,0,1.61-.45,1.99-1.25l.8.57c-.46.98-1.5,1.65-2.86,1.65-1.96,0-3.25-1.49-3.25-3.78Zm1.18-.66v.1h3.99v-.15c0-1.27-.77-2.13-1.92-2.13-1.22,0-2.07.92-2.07,2.19Z"/>
      <path class="cls-19" d="m1009.75,338.71l.8-.64c.56.7,1.23,1.11,2.14,1.11s1.51-.43,1.51-1.18c0-.56-.31-1-1.26-1.13l-.57-.08c-1.33-.2-2.33-.74-2.33-2.09,0-1.43,1.11-2.13,2.58-2.13,1.16,0,1.93.43,2.52,1.16l-.74.67c-.32-.45-.94-.88-1.86-.88s-1.42.43-1.42,1.12.49.98,1.39,1.12l.56.08c1.6.24,2.21.94,2.21,2.03,0,1.4-1.02,2.25-2.67,2.25-1.33,0-2.21-.56-2.86-1.42Z"/>
    </g>
    <circle class="cls-9" cx="992" cy="232" r="48"/>
    <g>
      <path class="cls-9" d="m1004.46,247c-3.38,2.81-7.72,4.5-12.46,4.5-7.52,0-14.05-4.26-17.3-10.5"/>
      <path class="cls-9" d="m972.73,235c-.15-.98-.23-1.98-.23-3,0-10.77,8.73-19.5,19.5-19.5"/>
      <path class="cls-9" d="m998,213.44c7.83,2.53,13.5,9.88,13.5,18.56,0,3.87-1.12,7.47-3.07,10.5"/>
      <line class="cls-11" x1="992" y1="212.5" x2="992" y2="212.5"/>
      <path class="cls-11" d="m1005.5,246.07h0"/>
      <line class="cls-9" x1="990.5" y1="238" x2="1002.5" y2="238"/>
      <polyline class="cls-9" points="981.5 226 987.5 232 981.5 238"/>
      <rect class="cls-1" x="968" y="208" width="48" height="48"/>
    </g>
  </g>
  <g>
    <rect class="cls-1" x="456" y="208" width="48" height="48"/>
    <circle class="cls-5" cx="480" cy="232" r="6"/>
    <circle class="cls-5" cx="462" cy="241" r="3"/>
    <circle class="cls-5" cx="498" cy="223" r="3"/>
    <path class="cls-5" d="m462,235v-6c0-8.28,6.72-15,15-15h12"/>
    <path class="cls-5" d="m498,229v6c0,8.28-6.72,15-15,15h-12"/>
  </g>
  <circle class="cls-17" cx="543.66" cy="64.08" r="48"/>
  <g>
    <polyline class="cls-4" points="526.66 58.08 526.66 53.58 544.66 43.08 553.66 48.33 553.66 65.58"/>
    <polyline class="cls-4" points="549.17 82.47 544.75 85.08 526.66 74.74 526.66 64.08 542.03 55.08"/>
    <polyline class="cls-4" points="558.22 50.85 562.56 53.43 562.65 74.27 554.36 79.44 538.14 70.08"/>
    <circle class="cls-4" cx="553.66" cy="68.58" r="3"/>
    <circle class="cls-4" cx="544.66" cy="53.58" r="3"/>
    <circle class="cls-4" cx="535.66" cy="68.58" r="3"/>
  </g>
  <circle class="cls-16" cx="543.66" cy="64.08" r="48"/>
  <g>
    <polyline class="cls-4" points="526.66 58.08 526.66 53.58 544.66 43.08 553.66 48.33 553.66 65.58"/>
    <polyline class="cls-4" points="549.17 82.47 544.75 85.08 526.66 74.74 526.66 64.08 542.03 55.08"/>
    <polyline class="cls-4" points="558.22 50.85 562.56 53.43 562.65 74.27 554.36 79.44 538.14 70.08"/>
    <circle class="cls-4" cx="553.66" cy="68.58" r="3"/>
    <circle class="cls-4" cx="544.66" cy="53.58" r="3"/>
    <circle class="cls-4" cx="535.66" cy="68.58" r="3"/>
  </g>
  <g>
    <path class="cls-19" d="m492.79,138.36v-.98h1.37v-7.82h-1.37v-.98h3.92v.98h-1.37v7.82h1.37v.98h-3.92Z"/>
    <path class="cls-19" d="m498.85,128.58h4.02c1.61,0,2.61,1,2.61,2.52s-.94,1.98-1.58,2.07v.08c.7.04,1.92.64,1.92,2.27s-1.08,2.83-2.52,2.83h-4.44v-9.78Zm1.18,4.23h2.7c.92,0,1.48-.49,1.48-1.36v-.48c0-.87-.56-1.36-1.48-1.36h-2.7v3.19Zm0,4.51h2.9c1.01,0,1.62-.53,1.62-1.51v-.48c0-.98-.62-1.51-1.62-1.51h-2.9v3.5Z"/>
    <path class="cls-19" d="m507.99,128.58h1.57l2.8,5.27h.07l2.82-5.27h1.51v9.78h-1.15v-8.24h-.07l-.83,1.64-2.34,4.26-2.34-4.26-.83-1.64h-.07v8.24h-1.15v-9.78Z"/>
    <path class="cls-19" d="m528.98,138.36h-7.12v-1.06l5.65-7.68h-5.35v-1.04h6.63v1.06l-5.66,7.68h5.85v1.04Z"/>
    <path class="cls-19" d="m539.23,138.36c-.83,0-1.16-.5-1.25-1.18h-.07c-.31.88-1.08,1.34-2.09,1.34-1.53,0-2.42-.84-2.42-2.18s.98-2.12,3.08-2.12h1.43v-.71c0-1.02-.56-1.58-1.71-1.58-.87,0-1.44.42-1.83,1.08l-.67-.63c.39-.77,1.26-1.42,2.56-1.42,1.74,0,2.77.91,2.77,2.44v3.98h.83v.98h-.63Zm-1.32-2.1v-1.19h-1.48c-1.27,0-1.85.39-1.85,1.09v.29c0,.71.56,1.12,1.43,1.12,1.11,0,1.91-.57,1.91-1.32Z"/>
    <path class="cls-19" d="m541.45,138.36v-7.23h1.12v1.18h.06c.35-.81.97-1.34,2.05-1.34,1.48,0,2.42,1.01,2.42,2.76v4.64h-1.12v-4.44c0-1.29-.56-1.95-1.64-1.95-.9,0-1.77.45-1.77,1.37v5.01h-1.12Z"/>
    <path class="cls-19" d="m554.03,137.18h-.06c-.43.9-1.12,1.34-2.12,1.34-1.81,0-2.94-1.47-2.94-3.78s1.13-3.78,2.94-3.78c1,0,1.74.43,2.12,1.34h.06v-4.31h1.12v10.37h-1.12v-1.18Zm0-1.13v-2.69c0-.8-.84-1.39-1.86-1.39-1.26,0-2.04.87-2.04,2.16v1.23c0,1.29.78,2.16,2.04,2.16,1.02,0,1.86-.53,1.86-1.47Z"/>
    <path class="cls-19" d="m560.45,133.53c0-3.26,1.47-5.11,3.94-5.11,1.62,0,2.75.79,3.36,2.14l-.95.57c-.39-1.01-1.21-1.67-2.41-1.67-1.68,0-2.68,1.33-2.68,3.33v1.46c0,2,.99,3.22,2.68,3.22,1.25,0,2.1-.7,2.49-1.76l.94.59c-.62,1.37-1.81,2.23-3.43,2.23-2.47,0-3.94-1.74-3.94-5Z"/>
    <path class="cls-19" d="m570.71,138.36c-.77,0-1.19-.49-1.19-1.16v-9.2h1.12v9.38h1.06v.98h-1Z"/>
    <path class="cls-19" d="m572.8,134.75c0-2.3,1.33-3.78,3.26-3.78s3.26,1.49,3.26,3.78-1.33,3.78-3.26,3.78-3.26-1.48-3.26-3.78Zm5.32.52v-1.04c0-1.53-.85-2.27-2.06-2.27s-2.06.74-2.06,2.27v1.04c0,1.53.85,2.27,2.06,2.27s2.06-.74,2.06-2.27Z"/>
    <path class="cls-19" d="m585.62,137.18h-.06c-.28.69-.83,1.34-2.03,1.34-1.48,0-2.44-1.01-2.44-2.76v-4.64h1.12v4.44c0,1.29.57,1.95,1.65,1.95.88,0,1.75-.43,1.75-1.39v-5h1.12v7.23h-1.12v-1.18Z"/>
    <path class="cls-19" d="m593.74,137.18h-.06c-.43.9-1.12,1.34-2.12,1.34-1.81,0-2.94-1.47-2.94-3.78s1.13-3.78,2.94-3.78c1,0,1.74.43,2.12,1.34h.06v-4.31h1.12v10.37h-1.12v-1.18Zm0-1.13v-2.69c0-.8-.84-1.39-1.86-1.39-1.26,0-2.04.87-2.04,2.16v1.23c0,1.29.78,2.16,2.04,2.16,1.02,0,1.86-.53,1.86-1.47Z"/>
    <path class="cls-19" d="m481.29,145.38h1.57l2.8,5.27h.07l2.82-5.27h1.51v9.78h-1.15v-8.24h-.07l-.83,1.64-2.34,4.26-2.34-4.26-.83-1.64h-.07v8.24h-1.15v-9.78Z"/>
    <path class="cls-19" d="m492.01,151.55c0-2.3,1.33-3.78,3.26-3.78s3.26,1.48,3.26,3.78-1.33,3.78-3.26,3.78-3.26-1.49-3.26-3.78Zm5.32.52v-1.04c0-1.53-.85-2.27-2.06-2.27s-2.06.74-2.06,2.27v1.04c0,1.53.85,2.27,2.06,2.27s2.06-.74,2.06-2.27Z"/>
    <path class="cls-19" d="m505.01,153.98h-.06c-.43.9-1.12,1.35-2.12,1.35-1.81,0-2.94-1.47-2.94-3.78s1.13-3.78,2.94-3.78c.99,0,1.74.43,2.12,1.34h.06v-4.31h1.12v10.37h-1.12v-1.18Zm0-1.13v-2.69c0-.8-.84-1.39-1.86-1.39-1.26,0-2.05.87-2.05,2.16v1.23c0,1.29.78,2.16,2.05,2.16,1.02,0,1.86-.53,1.86-1.47Z"/>
    <path class="cls-19" d="m507.97,151.55c0-2.3,1.29-3.78,3.25-3.78s3.12,1.48,3.12,3.53v.53h-5.2v.34c0,1.25.8,2.19,2.14,2.19.91,0,1.61-.45,1.99-1.25l.8.57c-.46.98-1.5,1.65-2.86,1.65-1.96,0-3.25-1.49-3.25-3.78Zm1.18-.66v.1h3.99v-.15c0-1.28-.77-2.13-1.92-2.13-1.22,0-2.07.92-2.07,2.18Z"/>
    <path class="cls-19" d="m516.19,155.16v-7.23h1.12v1.33h.07c.25-.69.91-1.33,2.09-1.33h.43v1.12h-.66c-1.2,0-1.93.52-1.93,1.2v4.9h-1.12Z"/>
    <path class="cls-19" d="m521.33,155.16v-7.23h1.12v1.18h.06c.35-.81.97-1.34,2.05-1.34,1.48,0,2.42,1.01,2.42,2.76v4.64h-1.12v-4.44c0-1.29-.56-1.95-1.64-1.95-.9,0-1.77.45-1.77,1.37v5.02h-1.12Z"/>
    <path class="cls-19" d="m529.15,145.61v-.18c0-.38.21-.63.69-.63s.69.25.69.63v.18c0,.38-.21.63-.69.63s-.69-.25-.69-.63Zm.13,2.33h1.12v7.23h-1.12v-7.23Z"/>
    <path class="cls-19" d="m532.05,155.16v-.94l4.1-5.31h-3.98v-.98h5.34v.84l-4.19,5.41h4.3v.98h-5.57Z"/>
    <path class="cls-19" d="m544.53,155.16c-.83,0-1.16-.5-1.25-1.18h-.07c-.31.88-1.08,1.35-2.09,1.35-1.53,0-2.42-.84-2.42-2.19s.98-2.12,3.08-2.12h1.43v-.71c0-1.02-.56-1.58-1.71-1.58-.87,0-1.44.42-1.83,1.08l-.67-.63c.39-.77,1.26-1.41,2.56-1.41,1.74,0,2.77.91,2.77,2.44v3.98h.83v.98h-.63Zm-1.32-2.1v-1.19h-1.48c-1.27,0-1.85.39-1.85,1.09v.29c0,.71.56,1.12,1.43,1.12,1.11,0,1.91-.57,1.91-1.32Z"/>
    <path class="cls-19" d="m548.35,155.16c-.77,0-1.19-.49-1.19-1.19v-5.06h-1.19v-.98h.67c.48,0,.63-.17.63-.66v-1.34h1.01v2h1.58v.98h-1.58v5.27h1.47v.98h-1.4Z"/>
    <path class="cls-19" d="m551.54,145.61v-.18c0-.38.21-.63.69-.63s.69.25.69.63v.18c0,.38-.21.63-.69.63s-.69-.25-.69-.63Zm.13,2.33h1.12v7.23h-1.12v-7.23Z"/>
    <path class="cls-19" d="m554.63,151.55c0-2.3,1.33-3.78,3.26-3.78s3.26,1.48,3.26,3.78-1.33,3.78-3.26,3.78-3.26-1.49-3.26-3.78Zm5.32.52v-1.04c0-1.53-.85-2.27-2.06-2.27s-2.06.74-2.06,2.27v1.04c0,1.53.85,2.27,2.06,2.27s2.06-.74,2.06-2.27Z"/>
    <path class="cls-19" d="m563,155.16v-7.23h1.12v1.18h.06c.35-.81.97-1.34,2.04-1.34,1.49,0,2.42,1.01,2.42,2.76v4.64h-1.12v-4.44c0-1.29-.56-1.95-1.64-1.95-.9,0-1.76.45-1.76,1.37v5.02h-1.12Z"/>
    <path class="cls-19" d="m573.66,153.62l.87-.73c.69.91,1.5,1.4,2.63,1.4,1.4,0,2.16-.73,2.16-1.85,0-.92-.52-1.39-1.81-1.68l-.8-.18c-1.78-.41-2.76-1.19-2.76-2.69,0-1.74,1.32-2.67,3.24-2.67,1.47,0,2.51.56,3.24,1.6l-.88.64c-.53-.74-1.27-1.2-2.41-1.2-1.25,0-2.02.55-2.02,1.6,0,.92.6,1.34,1.83,1.62l.8.18c1.91.43,2.73,1.28,2.73,2.73,0,1.79-1.26,2.94-3.36,2.94-1.57,0-2.67-.64-3.46-1.71Z"/>
    <path class="cls-19" d="m583.99,155.16c-.77,0-1.19-.49-1.19-1.19v-5.06h-1.19v-.98h.67c.48,0,.63-.17.63-.66v-1.34h1.01v2h1.58v.98h-1.58v5.27h1.47v.98h-1.4Z"/>
    <path class="cls-19" d="m592.56,155.16c-.83,0-1.16-.5-1.25-1.18h-.07c-.31.88-1.08,1.35-2.09,1.35-1.53,0-2.42-.84-2.42-2.19s.98-2.12,3.08-2.12h1.43v-.71c0-1.02-.56-1.58-1.71-1.58-.87,0-1.44.42-1.83,1.08l-.67-.63c.39-.77,1.26-1.41,2.56-1.41,1.74,0,2.77.91,2.77,2.44v3.98h.83v.98h-.63Zm-1.32-2.1v-1.19h-1.49c-1.27,0-1.85.39-1.85,1.09v.29c0,.71.56,1.12,1.43,1.12,1.11,0,1.91-.57,1.91-1.32Z"/>
    <path class="cls-19" d="m594.25,151.55c0-2.31,1.19-3.78,3.22-3.78,1.43,0,2.28.7,2.7,1.7l-.94.48c-.27-.74-.88-1.18-1.77-1.18-1.33,0-2.02.91-2.02,2.17v1.23c0,1.26.69,2.17,2.02,2.17.91,0,1.57-.43,1.96-1.26l.81.55c-.46,1.04-1.4,1.71-2.77,1.71-2.03,0-3.22-1.47-3.22-3.78Z"/>
    <path class="cls-19" d="m601.83,144.79h1.12v6.57h.06l1.11-1.23,2.04-2.2h1.36l-2.68,2.86,2.94,4.37h-1.36l-2.4-3.68-1.08,1.11v2.58h-1.12v-10.37Z"/>
  </g>
</svg>