<?xml version="1.0" encoding="UTF-8"?>
<svg viewBox="0 0 1225 829" version="1.1" xmlns="http://www.w3.org/2000/svg" xmlns:xlink="http://www.w3.org/1999/xlink">
    <!-- Generator: Sketch 53 (72520) - https://sketchapp.com -->
    <title>mainframe-application-access-through-zAPI-runtime</title>
    <desc>Created with Sketch.</desc>
    <g id="mainframe-application-access-through-zAPI-runtime" stroke="none" stroke-width="1" fill="none" fill-rule="evenodd">
        <rect id="BORDER-Copy" stroke="#457AB9" stroke-width="1.9936" x="21.7" y="25" width="1182.1" height="777.7"></rect>
        <g id="ENTERPRISE_DATA" transform="translate(979.000000, 485.500000)">
            <g id="Group" fill-rule="nonzero">
                <ellipse id="Oval" fill="#CFD2D3" cx="44.6" cy="44.4" rx="44.5" ry="44.4"></ellipse>
                <g transform="translate(16.000000, 21.000000)" fill="#FFFFFF">
                    <path d="M54.5,34 L53.5,33.6 C53.5,33.6 49.1,31.8 42.7,31.8 C38.9,31.8 35.2,32.4 31.6,33.6 L30.7,33.9 L30.7,2.9 L31.2,2.7 C34.9,1.5 38.8,0.9 42.7,0.9 C49.4,0.9 53.9,2.7 54.1,2.8 L54.5,3 L54.5,34 L54.5,34 Z M32.1,4 L32.1,32 C35.5,31 39.1,30.4 42.7,30.4 C47.7,30.4 51.4,31.4 53.1,31.9 L53.1,3.9 C51.8,3.5 47.9,2.3 42.7,2.3 C39.1,2.4 35.5,2.9 32.1,4 Z" id="Shape"></path>
                    <polygon id="Path" points="56.8 36.5 30.1 36.5 30.1 35.1 55.4 35.1 55.4 5.2 56.8 5.2"></polygon>
                    <path d="M5.9,19.6 L5.9,5.2 L4.5,5.2 L4.5,20 C5,19.8 5.4,19.7 5.9,19.6 Z" id="Path"></path>
                    <path d="M30.3,2.8 C26.6,1.6 22.7,1 18.8,1 C12.1,1 7.6,2.8 7.4,2.9 L7,3 L7,19.5 C7.5,19.4 7.9,19.4 8.4,19.3 L8.4,4 C9.7,3.6 13.5,2.4 18.8,2.4 C22.4,2.4 26,2.9 29.4,4 L29.4,32 C27.2,31.3 25.5,30.9 23.2,30.7 L23.2,32.1 C25.6,32.4 27.5,32.9 29.9,33.7 L30.8,34 L30.8,3 L30.3,2.8 Z" id="Path"></path>
                    <rect id="Rectangle" x="23.2" y="35.1" width="7.4" height="1.4"></rect>
                    <g transform="translate(0.000000, 20.000000)">
                        <ellipse id="Oval" cx="10.8" cy="4.9" rx="10.3" ry="4.4"></ellipse>
                        <path d="M21.6,6.4 C21.1,8.7 16.5,10.5 10.9,10.5 C5.3,10.5 0.7,8.7 0.2,6.4 L0.1,6.4 L0.1,23.5 L0.1,23.5 C0.1,26 4.9,28 10.9,28 C16.8,28 21.7,26 21.7,23.5 L21.6,6.4 L21.6,6.4 Z" id="Path"></path>
                    </g>
                </g>
            </g>
            <g id="Group" transform="translate(4.443200, 90.614500)" fill="#CFD2D3" font-family="IBMPlexSans-Medium, IBM Plex Sans" font-size="13" font-weight="400">
                <g id="ENTERPRISE">
                    <text>
                        <tspan x="0.3635" y="13">ENTERPRISE</tspan>
                    </text>
                </g>
                <g id="DATA" transform="translate(23.000000, 15.000000)">
                    <g id="Group">
                        <text id="DATA">
                            <tspan x="0.6985" y="13.6">DATA</tspan>
                        </text>
                    </g>
                </g>
            </g>
        </g>
        <rect id="Rectangle" stroke="#457AB9" stroke-width="1.9936" x="280.2" y="653.4" width="880.973797" height="139.3"></rect>
        <g id="Group" transform="translate(40.000000, 31.500000)" fill="#457EB8" font-family="IBMPlexSans-Bold, IBM Plex Sans" font-size="14" font-weight="bold">
            <g id="PUBLIC-NETWORK">
                <text>
                    <tspan x="0.7242" y="14.5515">PUBLIC NETWORK</tspan>
                </text>
            </g>
        </g>
        <g id="Group" transform="translate(305.000000, 31.500000)" fill="#457EB8" font-family="IBMPlexSans-Bold, IBM Plex Sans" font-size="14" font-weight="bold">
            <g id="ENTERPRISE">
                <text>
                    <tspan x="0.8004" y="14.5531">ENTERPRISE</tspan>
                </text>
            </g>
        </g>
        <g id="Group" transform="translate(826.586898, 122.000000)">
            <rect id="Rectangle" x="0.306598847" y="6.16757143" width="94.6368441" height="19.4052857"></rect>
            <g id="Z/OS-SYSTEM" transform="translate(4.000000, 0.000000)" fill="#457EB8" font-family="IBMPlexSans-Bold, IBM Plex Sans" font-size="14" font-weight="bold">
                <g id="Group">
                    <text id="Z/OS-SYSTEM">
                        <tspan x="0.09851119" y="14.1447614">Z/OS SYSTEM</tspan>
                    </text>
                </g>
            </g>
        </g>
        <path d="M269.8,25 L269.8,299.9" id="Path" stroke="#457AB9" stroke-width="0.75"></path>
        <path d="M269.8,438.9 L269.8,803.4" id="Path" stroke="#457AB9" stroke-width="0.75"></path>
        <g id="Group" transform="translate(316.000000, 287.500000)">
            <path d="M0.4,6.7 L347.5,6.7" id="Path" stroke="#457AB9" stroke-width="1.5"></path>
            <polygon id="Path" fill="#457AB9" fill-rule="nonzero" points="342.6 12.9 341.5 11.8 347 6.7 341.5 1.7 342.6 0.6 349.2 6.7"></polygon>
        </g>
        <g id="Group" transform="translate(707.000000, 374.500000)">
            <path d="M6.3,0 L6.3,109.2" id="Path" stroke="#BBBCBE" stroke-width="1.5"></path>
            <polygon id="Path" fill="#BBBCBE" fill-rule="nonzero" points="0.2 104.3 1.2 103.2 6.3 108.7 11.3 103.2 12.4 104.3 6.3 110.9"></polygon>
        </g>
        <g id="LEGEND_2_" transform="translate(23.000000, 635.500000)">
            <g id="Group" transform="translate(0.000000, 145.000000)">
                <path d="M18.6,6.2 L2.1,6.2" id="Path" stroke="#457AB9" stroke-width="1.5" stroke-dasharray="3,3"></path>
                <polygon id="Path" fill="#457AB9" fill-rule="nonzero" points="7.1 0.1 8.1 1.2 2.7 6.2 8.1 11.2 7.1 12.3 0.5 6.2"></polygon>
            </g>
            <rect id="Rectangle" fill="#E7BD20" fill-rule="nonzero" x="1.8" y="23.4" width="16.4" height="10"></rect>
            <rect id="Rectangle" fill="#C1952D" fill-rule="nonzero" x="1.8" y="94.8" width="16.4" height="10"></rect>
            <rect id="Rectangle" fill="#8CC342" fill-rule="nonzero" x="1.8" y="42" width="16.4" height="10"></rect>
            <rect id="Rectangle" fill="#335D80" fill-rule="nonzero" x="1.8" y="76.3" width="16.4" height="10"></rect>
            <g id="Application-componen" transform="translate(25.000000, 19.000000)" fill="#4577B9" font-family="IBMPlexSans, IBM Plex Sans" font-size="13.805" font-weight="normal">
                <g id="Application-component">
                    <text>
                        <tspan x="0.7485" y="14.1948">Application component</tspan>
                    </text>
                </g>
            </g>
            <g id="LEGEND" transform="translate(1.000000, 0.000000)" fill="#4577B9" font-family="IBMPlexSans-Medium, IBM Plex Sans" font-size="15.06" font-weight="400">
                <g id="Group">
                    <text id="LEGEND">
                        <tspan x="0.6694" y="15.6284">LEGEND</tspan>
                    </text>
                </g>
            </g>
            <g id="Infrastructure-services" transform="translate(25.000000, 37.000000)" fill="#4577B9" font-family="IBMPlexSans, IBM Plex Sans" font-size="13.805" font-weight="normal">
                <g id="Group">
                    <text id="Infrastructure-services">
                        <tspan x="0.4721" y="14.4233">Infrastructure services</tspan>
                    </text>
                </g>
            </g>
            <g id="Asynchronous-response" transform="translate(22.000000, 141.000000)" fill="#4577B9" font-family="IBMPlexSans, IBM Plex Sans" font-size="13.805" font-weight="normal">
                <g id="Group">
                    <text id="Asynchronous-response">
                        <tspan x="0.2479" y="14.1438">Asynchronous response</tspan>
                    </text>
                </g>
            </g>
            <g id="Data-store" transform="translate(24.000000, 72.000000)" fill="#4577B9" font-family="IBMPlexSans, IBM Plex Sans" font-size="13.805" font-weight="normal">
                <g id="Group">
                    <text id="Data-store">
                        <tspan x="0.2924" y="14.7729">Data store</tspan>
                    </text>
                </g>
            </g>
            <g id="User" transform="translate(23.000000, 91.000000)" fill="#4577B9" font-family="IBMPlexSans, IBM Plex Sans" font-size="13.805" font-weight="normal">
                <g id="Group">
                    <text id="User">
                        <tspan x="0.8227" y="14.8237">User</tspan>
                    </text>
                </g>
            </g>
            <rect id="Rectangle" fill="#E02334" fill-rule="nonzero" x="1.8" y="113.2" width="16.4" height="10"></rect>
            <g id="Security" transform="translate(24.000000, 108.000000)" fill="#4577B9" font-family="IBMPlexSans, IBM Plex Sans" font-size="13.805" font-weight="normal">
                <g id="Group">
                    <text id="Security">
                        <tspan x="0.7817" y="14.4038">Security</tspan>
                    </text>
                </g>
            </g>
            <rect id="Rectangle" fill="#F47839" fill-rule="nonzero" x="1.8" y="129.5" width="16.4" height="10"></rect>
            <g id="DevOps" transform="translate(24.000000, 124.000000)" fill="#4577B9" font-family="IBMPlexSans, IBM Plex Sans" font-size="13.805" font-weight="normal">
                <g id="Group">
                    <text id="DevOps">
                        <tspan x="0.3129" y="14.7642">DevOps</tspan>
                    </text>
                </g>
            </g>
            <rect id="Rectangle" fill="#02AE9A" fill-rule="nonzero" x="1.8" y="59.6" width="16.4" height="10"></rect>
            <g id="Management" transform="translate(24.000000, 56.000000)" fill="#4577B9" font-family="IBMPlexSans, IBM Plex Sans" font-size="13.805" font-weight="normal">
                <g id="Group">
                    <text id="Management">
                        <tspan x="0.9262" y="14.3511">Management</tspan>
                    </text>
                </g>
            </g>
        </g>
        <g id="mainframe_security_runtime" transform="translate(397.000000, 664.500000)">
            <g id="SECURITY" transform="translate(14.000000, 87.000000)" fill="#457EB8" font-family="IBMPlexSans-Medium, IBM Plex Sans" font-size="13" font-weight="400">
                <g id="Group">
                    <text id="SECURITY">
                        <tspan x="0.0115" y="13.9128">SECURITY</tspan>
                    </text>
                </g>
            </g>
            <g id="iot_smarthomeinsurance_gateway_6_" fill="#DF2834" fill-rule="nonzero">
                <circle id="Oval" cx="45.1" cy="44.6" r="44.5"></circle>
            </g>
            <path d="M62.3,25.8 C62.3,16.5 54.4,8.6 45.1,8.6 C35.8,8.6 27.9,16.5 27.9,25.8 L27.9,33.6 C24.3,37.7 22.2,43 22.2,48.8 C22.2,61.5 32.5,71.8 45.2,71.8 C57.9,71.8 68.2,61.5 68.2,48.8 C68.2,43 66,37.7 62.5,33.6 L62.5,25.8 L62.3,25.8 Z M33.6,25.8 C33.6,19.7 39,14.3 45.1,14.3 C51.2,14.3 56.6,19.7 56.6,25.8 L56.6,28.9 C53.2,26.9 49.3,25.8 45.1,25.8 C40.9,25.8 37,26.9 33.6,28.9 L33.6,25.8 Z M40.7,61.5 L30,50.8 L34.1,46.7 L40.7,53.3 L55.9,38.1 L60,42.2 L40.7,61.5 Z" id="Shape" fill="#FFFFFF" fill-rule="nonzero"></path>
        </g>
        <g id="mainframe_devops_runtime" transform="translate(646.000000, 664.500000)">
            <g id="DEVOPS" transform="translate(19.000000, 87.000000)" fill="#457EB8" font-family="IBMPlexSans-Medium, IBM Plex Sans" font-size="13" font-weight="400">
                <g id="Group">
                    <text id="DEVOPS">
                        <tspan x="0.8458" y="13.7141">DEVOPS</tspan>
                    </text>
                </g>
            </g>
            <g id="Group">
                <g id="Layer_2_14_" fill="#F37A3C" fill-rule="nonzero">
                    <circle id="Oval" cx="44.8" cy="44.6" r="44.5"></circle>
                </g>
                <g transform="translate(17.000000, 20.000000)" stroke="#FFFFFF" stroke-width="2">
                    <circle id="Oval" cx="6.4" cy="43.1" r="5.7"></circle>
                    <path d="M12.3,43.8 L30.6,43.8" id="Path" stroke-linecap="round"></path>
                    <polyline id="Path" stroke-linecap="round" points="6.3 32.9 6.3 7.2 23.8 7.2"></polyline>
                    <polygon id="Path" stroke-linecap="round" stroke-linejoin="round" points="24.1 14 24.1 0.4 35.7 7.2"></polygon>
                    <polyline id="Path" stroke-linecap="round" points="41.4 7.2 48.5 7.2 48.5 21.2"></polyline>
                    <rect id="Rectangle" stroke-linecap="round" stroke-linejoin="round" x="43.5" y="21.7" width="11.3" height="24.3"></rect>
                </g>
            </g>
        </g>
        <g id="mainframe_sys_mgmt_runtime" transform="translate(894.000000, 664.500000)">
            <g id="Group" transform="translate(0.887100, 87.936200)" fill="#457EB8" font-family="IBMPlexSans-Medium, IBM Plex Sans" font-size="13" font-weight="400">
                <g id="SYSTEM" transform="translate(20.000000, 0.000000)">
                    <g id="Group">
                        <text id="SYSTEM">
                            <tspan x="0.6055" y="13">SYSTEM</tspan>
                        </text>
                    </g>
                </g>
                <g id="MANAGEMENT" transform="translate(0.000000, 15.000000)">
                    <g id="Group">
                        <text id="MANAGEMENT">
                            <tspan x="0.449" y="13.6">MANAGEMENT</tspan>
                        </text>
                    </g>
                </g>
            </g>
            <g id="Group" transform="translate(1.000000, 0.000000)" fill-rule="nonzero">
                <circle id="Oval" fill="#02AE9A" cx="44.6" cy="44.6" r="44.5"></circle>
                <g transform="translate(17.000000, 17.000000)" fill="#FFFFFF">
                    <path d="M48.6,27.6 C48.6,26.5 48.4,25.3 48.3,24.4 L54.9,18.6 L49.2,9.4 L41.3,12 C39.4,10.4 37.3,9.1 34.8,8.1 L33,0.5 L22.1,0.5 L20.3,8.1 C17.9,8.9 15.8,10.4 13.8,12 L5.9,9.4 L0.2,18.6 L6.8,24.4 C6.6,25.5 6.5,26.5 6.5,27.6 C6.5,28.7 6.7,29.9 6.8,30.8 L0.2,36.6 L5.9,45.8 L13.8,43.2 C15.7,44.8 17.8,46.1 20.3,47.1 L22.1,54.7 L33,54.7 L34.8,47.1 C37.2,46.3 39.3,44.8 41.3,43.2 L49.2,45.8 L54.9,36.6 L48.3,30.8 C48.5,29.7 48.6,28.7 48.6,27.6 Z M50.2,37.3 L47.6,41.5 L42.4,39.9 L40.5,39.3 L38.9,40.6 C37.3,41.9 35.5,43 33.6,43.8 L31.8,44.4 L31.3,46.3 L30.2,51.2 L25,51.2 L23.9,46.3 L23.4,44.4 L21.6,43.8 C19.7,43.2 17.9,42 16.3,40.6 L14.7,39.3 L12.8,39.9 L7.6,41.5 L5,37.3 L9.4,33.6 L10.9,32.3 L10.6,30.4 C10.4,29.4 10.4,28.5 10.4,27.6 C10.4,26.8 10.4,26 10.6,24.8 L10.9,22.9 L9.4,21.6 L5,17.9 L7.6,13.7 L12.8,15.3 L14.7,15.9 L16.3,14.6 C17.9,13.3 19.7,12.2 21.6,11.4 L23.4,10.8 L23.9,8.9 L25,4 L30.2,4 L31.3,8.9 L31.8,10.8 L33.6,11.4 C35.5,12 37.3,13.2 38.9,14.6 L40.5,15.9 L42.4,15.3 L47.6,13.7 L50.2,17.9 L45.8,21.6 L44.3,22.9 L44.6,24.8 C44.8,25.8 44.8,26.7 44.8,27.6 C44.8,28.4 44.8,29.2 44.6,30.4 L44.3,32.3 L45.8,33.6 L50.2,37.3 Z" id="Shape"></path>
                    <g id="blockchain-system-management_2_" transform="translate(16.000000, 16.000000)">
                        <path d="M11.6,0.7 C5.6,0.7 0.7,5.6 0.7,11.6 C0.7,17.6 5.6,22.5 11.6,22.5 C17.6,22.5 22.5,17.6 22.5,11.6 C22.6,5.6 17.7,0.7 11.6,0.7 Z M11.6,15.1 C9.7,15.1 8,13.5 8,11.5 C8,9.6 9.6,7.9 11.6,7.9 C13.5,7.9 15.2,9.5 15.2,11.5 C15.3,13.5 13.7,15.1 11.6,15.1 Z" id="Shape"></path>
                    </g>
                </g>
            </g>
        </g>
        <g id="Group" transform="translate(149.000000, 173.500000)">
            <polyline id="Path" stroke="#457AB9" stroke-width="1.5" points="0.8 0.4 44.3 0.4 44.3 114.9 62.3 114.9 72.6 114.9"></polyline>
            <polygon id="Path" fill="#457AB9" fill-rule="nonzero" points="67.7 121.1 66.7 120 72.1 114.9 66.7 109.9 67.7 108.8 74.3 114.9"></polygon>
        </g>
        <g id="Group" transform="translate(149.000000, 300.500000)">
            <polyline id="Path" stroke="#BBBCBE" stroke-width="1.5" points="0.8 121.6 44.3 121.6 44.3 7 62.3 7 72.6 7"></polyline>
            <polygon id="Path" fill="#BBBCBE" fill-rule="nonzero" points="67.7 13.2 66.7 12.1 72.1 7 66.7 2 67.7 0.9 74.3 7"></polygon>
        </g>
        <g id="Group" transform="translate(315.726110, 306.433558)">
            <polyline id="Path" stroke="#BBBCBE" stroke-width="1.5" points="0.4 0.1 172.9 0.1 172.9 226.1 347.5 226.1"></polyline>
            <polygon id="Path" fill="#BBBCBE" fill-rule="nonzero" points="343.851064 232.2 342.751064 231.1 348.251064 226.1 342.751064 221.1 343.851064 220 350.451064 226.1"></polygon>
        </g>
        <g id="ANALYTICS_ICON_1_" transform="translate(59.000000, 371.500000)">
            <g id="DATA_COLLECTOR_ICON_5_" fill="#CFD2D3">
                <g id="ANALYSIS_RECOMENDATION_ICON_9_">
                    <g id="ANALYSIS_RECOMENDATIONS_ICON_10_" fill-rule="nonzero">
                        <ellipse id="cognitive_discoverysvcs_discoverysvcs_13_" cx="44.8" cy="45.1" rx="44.5" ry="44.4"></ellipse>
                    </g>
                    <text id="ANALYTICS" font-family="IBMPlexSans-Medium, IBM Plex Sans" font-size="13" font-weight="400">
                        <tspan x="9.7676" y="104.2927">ANALYTICS</tspan>
                    </text>
                </g>
            </g>
            <g id="Group" transform="translate(11.000000, 21.000000)" fill="#FFFFFF" fill-rule="nonzero">
                <path d="M62.9,18.1 C60.7,18.1 58.9,19.9 58.9,22.1 C58.9,23.5 59.6,24.7 60.7,25.4 L60.7,25.4 L53,42.4 C52.7,42.3 52.2,42.2 51.8,42.2 C51,42.2 50.3,42.5 49.4,42.9 L49.4,42.9 L47.8,34.5 C49.3,33.9 50.3,32.5 50.3,30.8 C50.3,28.6 48.4,26.9 46.2,26.9 C45,26.9 43.9,26.8 43,28.4 L43,28.4 L39.2,27.2 C39,25.2 37.4,23.5 35.3,23.5 C35,23.5 35.2,23.7 34.9,23.8 L32.1,14.1 L32.1,14.1 C32.1,13.3 32,12.9 32,12.4 C32,10.2 30,8.3 27.8,8.3 C25.6,8.3 23.7,10 23.7,12.2 C23.7,12.2 23.7,12.2 23.7,12.2 L7.7,26 C7,25.2 5.9,24.7 4.7,24.7 C2.5,24.7 0.7,26.5 0.7,28.7 C0.7,30.9 2.5,32.7 4.7,32.7 C6.9,32.7 8.7,30.9 8.7,28.7 C8.7,28.3 8.6,28 8.5,27.6 L24.3,14.2 L24.3,14.2 C24.7,15.4 26.3,16.2 27.7,16.2 C28.6,16.2 29.4,15.9 30.1,15.4 L30.1,15.8 L33,25.2 L33,25.2 C32,25.2 31.4,26.6 31.4,27.9 C31.4,30.1 33.2,31.7 35.4,31.7 C37.1,31.7 39,30.5 39.5,29 L43.3,29.8 L43.3,29.8 C43.3,30.1 43.3,30.5 43.3,30.8 C43.3,33 44.6,34.8 46.8,34.8 C47.1,34.8 47.1,34.8 47.3,34.7 C47,34.8 46.7,34.8 46.4,34.8 C46.3,34.8 46.2,34.8 46.1,34.8 L48.1,44.8 C47.9,45.2 47.8,45.7 47.8,46.2 C47.8,48.4 49.6,50.2 51.8,50.2 C54,50.2 55.8,48.4 55.8,46.2 C55.8,45 55.3,44 54.4,43.2 L54.4,43.2 L62.2,26 L62.2,26 C62.4,26 62.6,26.1 62.8,26.1 C65,26.1 66.8,24.3 66.8,22.1 C66.9,19.8 65.1,18.1 62.9,18.1 Z M4.7,30.9 C3.5,30.9 2.5,29.9 2.5,28.7 C2.5,27.5 3.5,26.5 4.7,26.5 C5.9,26.5 6.9,27.5 6.9,28.7 C6.9,29.9 5.9,30.9 4.7,30.9 Z M27.8,14.4 C26.6,14.4 25.6,13.4 25.6,12.2 C25.6,11 26.6,10 27.8,10 C29,10 30,11 30,12.2 C30,13.4 29,14.4 27.8,14.4 Z M35.4,29.8 C34.2,29.8 33.2,28.8 33.2,27.6 C33.2,26.4 34.2,25.4 35.4,25.4 C36.6,25.4 37.6,26.4 37.6,27.6 C37.7,28.8 36.7,29.8 35.4,29.8 Z M39.4,28.3 C39.4,28.1 39.5,27.8 39.5,27.6 C39.4,27.8 39.4,28 39.4,28.3 Z M44.2,30.8 C44.2,29.6 45.2,28.6 46.4,28.6 C47.6,28.6 48.6,29.6 48.6,30.8 C48.6,32 47.6,33 46.4,33 C45.2,33 44.2,32.1 44.2,30.8 Z M51.9,48.4 C50.7,48.4 49.7,47.4 49.7,46.2 C49.7,45 50.7,44 51.9,44 C53.1,44 54.1,45 54.1,46.2 C54.1,47.4 53.1,48.4 51.9,48.4 Z M62.9,24.3 C61.7,24.3 60.7,23.3 60.7,22.1 C60.7,20.9 61.7,19.9 62.9,19.9 C64.1,19.9 65.1,20.9 65.1,22.1 C65.1,23.3 64.1,24.3 62.9,24.3 Z" id="Shape"></path>
                <path d="M19.1,4.7 L23.4,8.4" id="Path" stroke="#FFFFFF"></path>
                <path d="M23.6,1.5 L25.7,6.9" id="Path" stroke="#FFFFFF"></path>
                <path d="M29.1,0.8 C28.9,2.7 28.8,4.6 28.6,6.6" id="Path" stroke="#FFFFFF"></path>
                <path d="M34.2,2.8 L31,7.5" id="Path" stroke="#FFFFFF"></path>
            </g>
        </g>
        <g id="api_gateway_runtime" transform="translate(225.000000, 251.500000)">
            <g id="Group">
                <g transform="translate(13.733000, 91.329800)" fill="#457EB8" font-family="IBMPlexSans-Medium, IBM Plex Sans" font-size="13" font-weight="400">
                    <g id="API" transform="translate(18.000000, 0.000000)">
                        <g id="Group">
                            <text id="API">
                                <tspan x="1.2175" y="13">API</tspan>
                            </text>
                        </g>
                    </g>
                    <g id="GATEWAY" transform="translate(0.000000, 15.000000)">
                        <g id="Group">
                            <text id="GATEWAY">
                                <tspan x="0.387" y="13.6">GATEWAY</tspan>
                            </text>
                        </g>
                    </g>
                </g>
                <ellipse id="Oval" fill="#DF2833" fill-rule="nonzero" cx="44.8" cy="44.6" rx="44.5" ry="44.4"></ellipse>
            </g>
            <g id="Group" transform="translate(16.000000, 16.000000)" fill-rule="nonzero">
                <g fill="#FFFFFF">
                    <g>
                        <g id="Path" transform="translate(2.000000, 0.000000)">
                            <path d="M0.2,50.1 L0.2,1.3 C0.2,0.8 0.7,0.4 1.2,0.4 C1.8,0.4 2.2,0.8 2.2,1.3 L2.2,47.5 L18.3,42.7 L18.3,6.6 C18.3,6.1 18.8,5.7 19.3,5.7 C19.9,5.7 20.3,6.1 20.3,6.6 L20.3,44 L0.2,50.1 Z"></path>
                            <path d="M5.5,48.2 C5.1,48.2 4.8,47.9 4.8,47.6 L4.8,3.2 C4.8,2.9 5.1,2.6 5.5,2.6 C5.9,2.6 6.2,2.9 6.2,3.2 L6.2,47.6 C6.2,47.9 5.9,48.2 5.5,48.2 Z"></path>
                            <path d="M10.2,46.8 C9.8,46.8 9.5,46.5 9.5,46.2 L9.5,4.3 C9.5,4 9.8,3.7 10.2,3.7 C10.6,3.7 10.9,4 10.9,4.3 L10.9,46.2 C10.9,46.5 10.6,46.8 10.2,46.8 Z"></path>
                            <path d="M14.9,45.2 C14.5,45.2 14.2,44.9 14.2,44.6 L14.2,5.3 C14.2,5 14.5,4.7 14.9,4.7 C15.3,4.7 15.6,5 15.6,5.3 L15.6,44.6 C15.5,44.9 15.2,45.2 14.9,45.2 Z"></path>
                            <polygon points="19.1 12.3 1 7.3 1.4 6.2 19.5 11.1"></polygon>
                        </g>
                        <rect id="Rectangle" x="0.1" y="0.3" width="4.1" height="50.6"></rect>
                    </g>
                    <g transform="translate(35.000000, 0.000000)">
                        <g id="Path">
                            <path d="M20.5,50.1 L0.3,44.1 L0.3,6.7 C0.3,6.2 0.8,5.8 1.3,5.8 C1.8,5.8 2.3,6.2 2.3,6.7 L2.3,42.8 L18.4,47.6 L18.4,1.4 C18.4,0.9 18.9,0.5 19.4,0.5 C19.9,0.5 20.4,0.9 20.4,1.4 L20.5,50.1 L20.5,50.1 Z"></path>
                            <path d="M15.1,48.1 C14.7,48.1 14.4,47.8 14.4,47.5 L14.4,3.1 C14.4,2.8 14.7,2.5 15.1,2.5 C15.5,2.5 15.8,2.8 15.8,3.1 L15.8,47.5 C15.8,47.9 15.5,48.1 15.1,48.1 Z"></path>
                            <path d="M10.4,46.7 C10,46.7 9.7,46.4 9.7,46.1 L9.7,4.2 C9.7,3.9 10,3.6 10.4,3.6 C10.8,3.6 11.1,3.9 11.1,4.2 L11.1,46.1 C11,46.5 10.7,46.7 10.4,46.7 Z"></path>
                            <path d="M5.8,45.1 C5.4,45.1 5.1,44.8 5.1,44.5 L5.1,5.2 C5.1,4.9 5.4,4.6 5.8,4.6 C6.2,4.6 6.5,4.9 6.5,5.2 L6.5,44.5 C6.5,44.9 6.2,45.1 5.8,45.1 Z"></path>
                            <polygon points="1.5 12.3 1.1 11.1 19.2 6.1 19.6 7.2"></polygon>
                        </g>
                        <rect id="Rectangle" x="18.4" y="0.3" width="4.1" height="50.6"></rect>
                    </g>
                </g>
                <g transform="translate(14.000000, 11.000000)">
                    <circle id="Oval" fill="#DF2833" cx="14.8" cy="14.6" r="14.2"></circle>
                    <path d="M14.8,2.2 C21.7,2.2 27.3,7.8 27.3,14.6 C27.3,21.5 21.7,27.1 14.9,27.1 C8.1,27.1 2.5,21.5 2.4,14.7 C2.4,7.8 7.9,2.2 14.8,2.2 Z M3.7,16 C3.7,16 3.6,16.1 3.6,16.1 C3.5,20.4 9.4,26.3 13.4,25.9 C13.4,25.9 13.4,25.8 13.4,25.8 C11.9,24.1 12.2,22.6 14.1,21.6 C14.2,21.5 14.3,21.4 14.3,21.3 C14.3,20.4 14.3,19.4 14.3,18.5 C14.3,18.4 14.1,18.2 14,18.2 C12.7,17.8 11.8,17 11.4,15.6 C11.3,15.3 11.2,15.2 10.9,15.2 C10.1,15.2 9.4,15.2 8.6,15.2 C8.2,15.2 8,15.3 7.8,15.7 C7.1,17.3 5.1,17.7 3.9,16.4 C3.8,16.3 3.7,16.1 3.7,16 Z M26.1,16.1 C26,16.2 26,16.2 25.9,16.2 C24.4,17.7 22.6,17.3 21.7,15.4 C21.6,15.3 21.4,15.1 21.2,15.1 C20.4,15.1 19.6,15.1 18.7,15.1 C18.4,15.1 18.2,15.2 18.1,15.5 C17.7,16.8 16.9,17.6 15.6,18 C15.3,18.1 15.2,18.2 15.2,18.5 C15.2,19.3 15.2,20.1 15.2,21 C15.2,21.3 15.3,21.5 15.6,21.6 C17.2,22.3 17.6,24.2 16.4,25.5 C16.3,25.6 16.2,25.7 16.1,25.9 C21.5,25.4 25.7,20.8 26.1,16.1 Z M26.1,13.2 C26.5,9.1 20.2,2.8 16.3,3.4 C16.3,3.4 16.3,3.4 16.3,3.5 C17.8,5.3 17.5,6.7 15.6,7.8 C15.5,7.9 15.4,8 15.4,8.1 C15.4,9.1 15.4,10.1 15.4,11.2 C17.1,11.6 18.1,12.6 18.4,14.2 C19.4,14.2 20.3,14.2 21.2,14.2 C21.5,14.2 21.7,14.1 21.8,13.8 C22.4,12.4 24,11.9 25.3,12.7 C25.6,12.7 25.8,13 26.1,13.2 Z M13.3,3.4 C8.2,3.8 3.8,8.6 3.5,13.2 C3.6,13.1 3.6,13.1 3.7,13.1 C5.2,11.7 7,12.1 7.9,13.9 C8,14 8.2,14.2 8.3,14.2 C9.2,14.2 10.1,14.2 11,14.2 C11.1,14.2 11.4,14.1 11.4,13.9 C11.8,12.4 12.8,11.5 14.4,11.1 C14.4,10.2 14.4,9.2 14.4,8.3 C14.4,7.9 14.3,7.8 14,7.6 C12.8,7.1 12.2,5.8 12.7,4.6 C12.7,4.2 13,3.8 13.3,3.4 Z M12.3,14.6 C12.3,16 13.4,17.2 14.8,17.2 C16.2,17.2 17.3,16.1 17.4,14.7 C17.4,13.3 16.2,12.1 14.9,12.1 C13.5,12.1 12.3,13.2 12.3,14.6 Z M14.9,22.5 C14.1,22.5 13.5,23.1 13.5,23.9 C13.5,24.7 14.2,25.3 14.9,25.3 C15.7,25.3 16.3,24.7 16.3,23.9 C16.3,23.1 15.7,22.5 14.9,22.5 Z M24.1,13.2 C23.3,13.2 22.7,13.8 22.7,14.6 C22.7,15.4 23.4,16 24.1,16 C24.9,16 25.5,15.4 25.5,14.6 C25.5,13.9 24.9,13.2 24.1,13.2 Z M7,14.6 C7,13.8 6.4,13.2 5.6,13.2 C4.8,13.2 4.2,13.8 4.2,14.6 C4.2,15.4 4.8,16.1 5.6,16.1 C6.3,16.1 7,15.4 7,14.6 Z M14.8,4 C14,4 13.4,4.7 13.4,5.5 C13.4,6.3 14.1,6.9 14.9,6.9 C15.7,6.9 16.3,6.2 16.3,5.5 C16.3,4.6 15.6,4 14.8,4 Z" id="Shape" fill="#FFFFFF"></path>
                </g>
            </g>
        </g>
        <g id="Group" transform="translate(763.000000, 287.500000)">
            <path d="M0,6.7 L180.7,6.7" id="Path" stroke="#457AB9" stroke-width="1.5"></path>
            <polygon id="Path" fill="#457AB9" fill-rule="nonzero" points="174.1 12.8 173.1 11.7 178.5 6.7 173.1 1.7 174.1 0.6 180.7 6.7"></polygon>
        </g>
        <g id="ZDATA_VIRUTALIZATION_ICON" transform="translate(666.000000, 485.500000)" fill-rule="nonzero">
            <g id="Group" fill="#CFD2D3">
                <circle id="Oval" cx="44.8065" cy="44.9" r="44.5"></circle>
            </g>
            <g id="Group" transform="translate(17.290000, 22.000000)">
                <g transform="translate(12.000000, 13.000000)" fill="#BBBCBE" stroke="#BBBCBE">
                    <rect id="Rectangle" stroke-width="1.0000065" transform="translate(13.366676, 12.373751) rotate(90.206655) translate(-13.366676, -12.373751) " x="2.26660409" y="10.5737392" width="22.2001444" height="3.60002342"></rect>
                    <path d="M0.5,12.5 C0.5,9.4 0.5,6.3 0.5,3.2 C0.5,1.6 0.6,0.6 1.4,0.7 C4,0.8 6.7,0.8 9.3,0.7 C9.9,0.7 10.1,1.3 10.1,2.7 C10.1,9.1 10,15.5 10,21.9 C10,23.4 9.8,24 9.2,23.9 C6.6,23.9 3.9,23.8 1.3,23.9 C0.5,23.9 0.4,22.9 0.4,21.3 C0.5,18.4 0.5,15.5 0.5,12.5 Z" id="Path"></path>
                </g>
                <g id="Path" fill="#FFFFFF" stroke="#FFFFFF">
                    <path d="M55.8,49.9 C55.6,50.1 55.3,50 55,50 C51.1,50 47.2,50 43.3,50 C43.1,50 42.8,49.9 42.6,50.1 C42.4,50.2 42.2,50.2 42,50.2 C38.5,50.2 35,50.2 31.4,50.2 C31.2,50.2 31,50.2 30.8,50.1 C30.6,49.9 30.3,50 30.1,50 C25.8,50 21.4,50 17.1,49.9 C16.3,49.9 15.6,49.7 15,49.1 C14.4,48.5 14.3,47.8 14.3,47 C14.3,45.1 14.3,43.1 14.3,41.2 C14.1,40.9 14.2,40.6 14.2,40.3 C14.2,39.8 14.2,39.2 14.2,38.6 C13.6,39 13.1,39.5 12.6,39.9 C12,40.3 11.6,40.9 10.9,41.2 C10.4,41.2 9.8,41.3 9.3,41.1 C8.2,40.8 7.5,39.9 7.5,38.7 C7.5,36.7 7.5,34.6 7.5,32.6 C7.3,32.3 7.4,32 7.4,31.7 C7.4,31.2 7.4,30.6 7.4,30.1 C7.2,30 7.1,30.2 7,30.3 C6.2,30.9 5.5,31.5 4.8,32.2 C4.6,32.4 4.4,32.5 4.1,32.6 C3.5,32.6 3,32.7 2.4,32.5 C1.4,32.1 1,31.4 0.7,30.5 C0.7,21.3 0.8,12 0.8,2.8 C0.9,2.3 0.9,1.8 1.3,1.4 C1.8,0.9 2.3,0.7 2.9,0.6 C16.1,0.6 29.3,0.7 42.5,0.7 C42.5,0.7 42.5,0.8 42.5,0.8 C41.3,1.2 40.6,2.2 39.6,2.9 C39,3.3 38.6,3.9 37.9,4.1 C36.1,4.2 34.2,4.1 32.4,4.1 C23.3,4.3 14.2,4.1 5.1,4.1 C4.3,4.1 4.2,4.1 4.2,5 C4.2,12.7 4.1,20.4 4.1,28.1 C4.1,29 4.1,29 5,29 C5.6,29 6.2,29 6.8,29 C7.2,29 7.4,28.8 7.4,28.5 C7.4,28.3 7.4,28.1 7.4,27.9 C7.4,22.6 7.4,17.4 7.5,12.1 C7.5,11.6 7.5,11.1 7.8,10.6 C8.2,9.8 8.8,9.3 9.7,9.1 C10,9 10.3,9 10.5,9 C13.2,9 15.9,9 18.6,9 C21.7,9 24.8,9 27.9,9 C32.4,9 36.8,9 41.3,9.1 C42.4,9.1 43.6,9 44.7,9.2 C44.9,9.4 45.1,9.3 45.3,9.3 C46.5,9.3 47.6,9.3 48.8,9.3 C49,9.3 49.2,9.3 49.4,9.4 C48.1,10 47.2,11.1 46.1,11.9 C45.7,12.2 45.5,12.5 45,12.7 C43.4,12.8 41.9,12.7 40.3,12.7 C30.9,12.9 21.5,12.7 12.1,12.7 C11.3,12.7 11.2,12.7 11.2,13.6 C11.2,21.3 11.1,29 11.1,36.7 C11.1,37.6 11.1,37.6 12,37.6 C12.6,37.6 13.2,37.6 13.8,37.6 C14.2,37.6 14.4,37.4 14.4,37.1 C14.4,36.9 14.4,36.7 14.4,36.5 C14.4,31.4 14.4,26.3 14.5,21.2 C14.5,20.7 14.5,20.2 14.7,19.7 C15,18.5 16,17.8 17.2,17.8 C19.9,17.8 22.7,17.8 25.4,17.8 C28.6,17.8 31.8,17.8 35,17.8 C39.4,17.8 43.9,17.8 48.3,17.9 C49.1,17.9 49.9,17.9 50.7,17.9 C51.4,17.9 51.4,17.9 51.4,17.2 C51.4,15.7 51.4,14.1 51.4,12.6 C51.4,12.3 51.3,12 51.6,11.7 C51.8,11.9 51.7,12.1 51.7,12.3 C51.7,14 51.7,15.7 51.7,17.4 C51.7,17.9 51.8,18.1 52.3,18.1 C53.5,18.1 54.7,18.1 55.9,18.1 C56,18.3 55.8,18.4 55.7,18.5 C54.6,19.4 53.6,20.3 52.5,21.2 C52.3,21.3 52.2,21.5 52,21.5 C51.6,21.6 51.3,21.5 50.9,21.5 C40.4,21.5 30,21.4 19.5,21.4 C18.3,21.4 18.3,21.4 18.3,22.6 C18.3,30.1 18.2,37.7 18.2,45.2 C18.2,45.3 18.2,45.4 18.2,45.4 C18.2,46.3 18.2,46.4 19.1,46.4 C19.8,46.4 20.4,46.4 21.1,46.4 C21.3,46.4 21.6,46.4 21.8,46.5 C22,46.8 21.7,47 21.5,47.1 C20.7,47.8 19.9,48.4 19.1,49.1 C18.9,49.2 18.8,49.3 18.6,49.6 C18.8,49.7 19,49.7 19.3,49.7 C31.2,49.7 43.2,49.8 55.1,49.8 C55,49.7 55.4,49.6 55.8,49.9 Z"></path>
                    <path d="M51.7,21.3 C52.3,20.7 53,20.2 53.6,19.6 C54.2,19.1 54.8,18.6 55.4,18 C56.9,18 58.1,19.1 58.1,20.6 C58.1,29.5 58,38.4 58,47.2 C58,48.5 57.1,49.6 55.7,49.8 C43,49.8 30.4,49.7 17.5,49.7 C18.2,49.1 18.9,48.5 19.5,48 C20.1,47.5 20.8,47 21.3,46.4 C21.6,46.1 22,46.2 22.3,46.2 C29.1,46.2 36,46.2 42.8,46.3 C46.3,46.3 49.8,46.3 53.4,46.3 C53.6,46.3 53.8,46.3 54,46.3 C54.3,46.3 54.4,46.1 54.4,45.9 C54.4,45.7 54.4,45.5 54.4,45.3 C54.4,37.7 54.5,30 54.5,22.4 C54.5,21.4 54.5,21.4 53.5,21.4 C53,21.4 52.6,21.4 52.1,21.4 C52.1,21.5 51.9,21.5 51.7,21.3 Z"></path>
                    <path d="M44.4,9.2 C44,9.4 43.6,9.3 43.2,9.3 C42.5,9.3 41.8,9.3 41,9.3 C40.8,9.1 40.8,8.8 40.8,8.5 C40.8,7.3 40.8,6.1 40.8,4.9 C40.8,4.3 40.7,4.2 40.1,4.2 C39.6,4.2 39.1,4.2 38.6,4.2 C38.4,4.2 38.1,4.2 37.9,4 C38.7,3.3 39.6,2.6 40.4,1.9 C40.7,1.7 41,1.5 41.2,1.2 C41.5,0.9 41.8,0.8 42.2,0.8 C43.6,1.2 44.3,2.1 44.3,3.5 C44.4,5.4 44.4,7.3 44.4,9.2 Z"></path>
                    <path d="M44.8,12.6 C45.3,12 46,11.6 46.5,11.1 C47,10.6 47.6,10.2 48.2,9.7 C48.5,9.5 48.7,9.4 49,9.4 C50.2,9.7 51,10.5 51.1,11.7 C51.1,13.6 51.1,15.5 51.1,17.4 C51.1,17.9 51,18 50.5,18 C49.6,18 48.7,18 47.8,18 C47.6,17.8 47.6,17.5 47.6,17.2 C47.6,15.9 47.6,14.7 47.6,13.4 C47.6,12.8 47.5,12.7 46.9,12.7 C46.4,12.7 45.9,12.7 45.4,12.7 C45.3,12.7 45,12.8 44.8,12.6 Z"></path>
                    <path d="M10.7,41.1 C11.5,40.3 12.4,39.6 13.3,38.9 C13.5,38.8 13.6,38.6 13.8,38.5 C13.9,38.4 14,38.3 14.1,38.3 C14.3,38.4 14.2,38.5 14.2,38.6 C14.2,39.4 14.2,40.3 14.2,41.1 C13,41.2 11.9,41.1 10.7,41.1 Z"></path>
                    <path d="M3.8,32.5 C4.6,31.8 5.4,31.1 6.3,30.4 C6.4,30.3 6.5,30.3 6.6,30.2 C6.8,30.1 6.9,29.6 7.3,29.8 C7.6,29.9 7.4,30.3 7.4,30.5 C7.4,31.2 7.4,31.9 7.4,32.5 C6.2,32.5 5,32.5 3.8,32.5 Z"></path>
                </g>
                <g transform="translate(17.000000, 22.000000)" fill="#BBBCBE" stroke="#BBBCBE">
                    <rect id="Rectangle" stroke-width="1.80571175" transform="translate(13.724599, 11.962672) rotate(90.206655) translate(-13.724599, -11.962672) " x="2.62452689" y="10.1626605" width="22.2001444" height="3.60002342"></rect>
                    <path d="M0.9,12.1 C0.9,9 0.9,5.9 0.9,2.8 C0.9,1.2 1,0.2 1.8,0.3 C4.4,0.4 7.1,0.4 9.7,0.3 C10.3,0.3 10.5,0.9 10.5,2.3 C10.5,8.7 10.4,15.1 10.4,21.5 C10.4,23 10.2,23.6 9.6,23.5 C7,23.5 4.3,23.4 1.7,23.5 C0.9,23.5 0.8,22.5 0.8,20.9 C0.9,18.1 0.9,15.1 0.9,12.1 Z" id="Path"></path>
                </g>
            </g>
        </g>
        <g class="flowStep" transform="translate(181.000000, 210.500000)">
            <circle id="Oval" fill="#808083" fill-rule="nonzero" cx="13.4" cy="12.5" r="12.5"></circle>
            <g id="1" transform="translate(9.000000, 3.000000)" fill="#FFFFFF" font-family="Helvetica" font-size="16" font-weight="normal">
                <g id="Group">
                    <text id="1">
                        <tspan x="0.0884" y="15.2735">1</tspan>
                    </text>
                </g>
            </g>
        </g>
        <g class="flowStep" transform="translate(508.000000, 280.500000)">
            <circle id="Oval" fill="#808083" fill-rule="nonzero" cx="13.4" cy="12.6" r="12.5"></circle>
            <g id="2" transform="translate(9.000000, 3.000000)" fill="#FFFFFF" font-family="Helvetica" font-size="16" font-weight="normal">
                <g id="Group">
                    <text id="2">
                        <tspan x="0.084" y="15.3566">2</tspan>
                    </text>
                </g>
            </g>
        </g>
        <g class="flowStep" transform="translate(834.000000, 282.500000)">
            <circle id="Oval" fill="#808083" fill-rule="nonzero" cx="12.7" cy="13" r="12.5"></circle>
            <g id="3" transform="translate(8.000000, 3.000000)" fill="#FFFFFF" font-family="Helvetica" font-size="16" font-weight="normal">
                <g id="Group">
                    <text id="3">
                        <tspan x="0.4036" y="15.7645">3</tspan>
                    </text>
                </g>
            </g>
        </g>
        <g id="Group" transform="translate(761.000000, 525.500000)">
            <path d="M0.6,7.1 L216.5,7.1" id="Path" stroke="#BBBCBE" stroke-width="1.5"></path>
            <polygon id="Path" fill="#BBBCBE" fill-rule="nonzero" points="211 13.25 210 12.15 215.4 7.15 210 2.05 211 0.95 217.6 7.15"></polygon>
        </g>
        <g id="cloud_native_application_runtime" transform="translate(56.000000, 128.500000)">
            <g id="CLOUD_NATIVE_APP_ICON">
                <g id="Group" transform="translate(0.404400, 92.039100)" fill="#457EB8" font-family="IBMPlexSans-Medium, IBM Plex Sans" font-size="13" font-weight="400">
                    <g id="CLOUD-NATIVE">
                        <text>
                            <tspan x="0" y="13">CLOUD NATIVE</tspan>
                        </text>
                    </g>
                    <g id="APPLICATION" transform="translate(3.000000, 15.000000)">
                        <g id="Group">
                            <text id="APPLICATION">
                                <tspan x="0" y="13.6">APPLICATION</tspan>
                            </text>
                        </g>
                    </g>
                </g>
                <circle id="Oval" fill="#E9BE1F" fill-rule="nonzero" cx="47.8" cy="45.4" r="44.5"></circle>
            </g>
            <path d="M84.8,53 C84.7,53.7 84.5,54.5 84.4,55.2 C83,60.9 77.9,65 72,65.1 C57.3,65.1 42.6,65.1 28,65.1 C20,65.1 13.5,58 14.2,50 C14.7,44.2 17.8,40.2 23.1,37.8 C23.4,37.7 23.7,37.4 23.8,37.1 C25.3,31.1 31.2,28.2 36.9,30.6 C37,30.6 37.1,30.7 37.1,30.7 C42.1,22.3 49.3,18.4 58.9,21.2 C67.5,23.7 71.5,30.2 72,39.1 C72.9,39.2 73.8,39.3 74.8,39.5 C80.2,40.7 84.1,45.2 84.8,50.6 C84.8,50.8 84.9,51 84.9,51.1 C84.8,51.8 84.8,52.4 84.8,53 Z M38.2,33.9 C37.3,33.5 36.6,33.1 35.9,32.8 C31.7,30.8 26.7,33.3 25.9,37.9 C25.7,39 25.3,39.5 24.2,39.9 C18.6,41.8 15.4,47.6 16.6,53.4 C17.8,59 22.5,62.9 28.3,62.9 C42.7,62.9 57.1,62.9 71.6,62.9 C72.3,62.9 73.1,62.8 73.8,62.7 C79.2,61.8 83.2,56.4 82.4,51 C81.6,45.4 77.2,41.6 71.6,41.6 C70.9,41.6 70.3,41.6 69.5,41.6 C69.9,37.3 69.3,33.3 66.9,29.8 C64.4,26.3 61.1,24 56.9,23.1 C53.7,22.4 50.5,22.8 47.5,24.1 C42.9,25.9 40,29.3 38.2,33.9 Z" id="Shape" fill="#FFFFFF" fill-rule="nonzero"></path>
            <path d="M58,38.1 L56.1,38.1 C56.1,39.5 55.8,40.8 55.3,42.1 L49.2,39.2 C49.6,37.9 49.3,36.4 48.2,35.4 C46.9,34.1 45,33.9 43.5,34.8 L42.1,33.4 L40.7,34.8 L42.1,36.2 C41.2,37.7 41.4,39.6 42.7,40.9 C43.7,41.9 45.2,42.3 46.5,41.9 L54.8,59.1 L55.7,58.7 L51.2,49.3 C52.3,48.7 53.4,47.9 54.3,47 C55.2,46.1 56,45.1 56.6,43.9 L66,48.4 L66.4,47.5 L57,43 C57.7,41.4 58,39.8 58,38.1 Z M44.9,37.5 C45.3,37.1 45.9,37.1 46.3,37.5 C46.7,37.9 46.7,38.5 46.3,38.9 C45.9,39.3 45.3,39.3 44.9,38.9 C44.5,38.4 44.5,37.8 44.9,37.5 Z M50.4,47.5 L47.5,41.5 C47.8,41.3 48,41.1 48.3,40.9 C48.6,40.7 48.7,40.4 48.9,40.1 L54.9,43 C53.9,44.9 52.3,46.5 50.4,47.5 Z" id="Shape" fill="#FFFFFF" fill-rule="nonzero"></path>
        </g>
        <g id="z_os_connect_ee_runtime" transform="translate(667.000000, 251.500000)">
            <g id="z/OS-CONNECT-EE" transform="translate(8.000000, 91.000000)" fill="#457EB8" font-family="IBMPlexSans-Medium, IBM Plex Sans" font-size="13" font-weight="400">
                <g id="z/OS" transform="translate(24.000000, 0.000000)">
                    <text>
                        <tspan x="0.6665" y="13.3611">z/OS</tspan>
                    </text>
                </g>
                <g id="CONNECT-EE" transform="translate(0.000000, 17.000000)">
                    <text>
                        <tspan x="0.012" y="13.3611">CONNECT EE</tspan>
                    </text>
                </g>
            </g>
            <g id="Group" transform="translate(0.927500, 0.000000)" fill="#F4A023" fill-rule="nonzero">
                <circle id="Oval" cx="46" cy="45.8" r="45.6"></circle>
            </g>
        </g>
        <g id="Group-8" transform="translate(680.000000, 267.412611)">
            <polygon id="Fill-1" fill="#C34455" fill-rule="nonzero" points="56.7927623 60.2599877 62.5167046 60.2599877 62.5167046 2.96940573 56.7927623 2.96940573"></polygon>
            <polygon id="Fill-2" fill="#33194C" fill-rule="nonzero" points="36.4234772 61.9285691 56.942305 61.9285691 56.942305 0.000196766664 36.4234772 0.000196766664"></polygon>
            <polyline id="Stroke-3" stroke="#611E59" stroke-width="0.921" points="22.7891215 12.1025272 6.1977564 12.1025272 6.1977564 32.208145"></polyline>
            <polyline id="Stroke-4" stroke="#611E59" stroke-width="0.921" points="6.11767236 32.2077515 6.11767236 50.6703676 26.2252578 50.6703676"></polyline>
            <polygon id="Fill-5" fill="#33194C" fill-rule="nonzero" points="15.4953748 18.1538892 30.085623 18.1538892 30.085623 6.05273936 15.4953748 6.05273936"></polygon>
            <polygon id="Fill-6" fill="#33194C" fill-rule="nonzero" points="15.4953748 56.7201554 30.085623 56.7201554 30.085623 44.6190056 15.4953748 44.6190056"></polygon>
            <polygon id="Fill-7" fill="#33194C" fill-rule="nonzero" points="0 36.4197387 12.3962999 36.4197387 12.3962999 25.9556875 0 25.9556875"></polygon>
            <g id="Z" transform="translate(40.000000, 18.000000)" fill="#FEFEFE" font-family="Charter-Black, Charter" font-size="19.6" font-weight="700">
                <g id="Group">
                    <text id="Z">
                        <tspan x="0.2013972" y="19.6288818">Z</tspan>
                    </text>
                </g>
            </g>
        </g>
        <g id="Group-2" transform="translate(944.000000, 183.000000)">
            <path d="M146.564516,24 L6.43548387,24 C3.20967742,24 0.5,21.6226415 0.5,18.7924528 L0.5,5.20754717 C0.5,2.37735849 3.20967742,0 6.43548387,0 L146.564516,0 C149.790323,0 152.5,2.37735849 152.5,5.20754717 L152.5,18.7924528 C152.5,21.6226415 149.790323,24 146.564516,24 Z" id="Path-Copy-10" fill="#1D1D4D" fill-rule="nonzero"></path>
            <path d="M146.064516,50 L5.93548387,50 C2.70967742,50 0,47.6226415 0,44.7924528 L0,31.2075472 C0,28.3773585 2.70967742,26 5.93548387,26 L146.064516,26 C149.290323,26 152,28.3773585 152,31.2075472 L152,44.7924528 C152,47.6226415 149.290323,50 146.064516,50 Z" id="Path-Copy-11" fill="#1D1D4D" fill-rule="nonzero"></path>
            <path d="M146.064516,75.5 L5.93548387,75.5 C2.70967742,75.5 0,73.1226415 0,70.2924528 L0,56.7075472 C0,53.8773585 2.70967742,51.5 5.93548387,51.5 L146.064516,51.5 C149.290323,51.5 152,53.8773585 152,56.7075472 L152,70.2924528 C152,73.2358491 149.290323,75.5 146.064516,75.5 Z" id="Path-Copy-12" fill="#1D1D4D" fill-rule="nonzero"></path>
            <path d="M146.064516,101.5 L5.93548387,101.5 C2.70967742,101.5 0,99.1226415 0,96.2924528 L0,82.7075472 C0,79.8773585 2.70967742,77.5 5.93548387,77.5 L146.064516,77.5 C149.290323,77.5 152,79.8773585 152,82.7075472 L152,96.2924528 C152,99.2358491 149.290323,101.5 146.064516,101.5 Z" id="Path-Copy-13" fill="#1D1D4D" fill-rule="nonzero"></path>
            <path d="M146.064516,127.5 L5.93548387,127.5 C2.70967742,127.5 0,125.122642 0,122.292453 L0,108.707547 C0,105.877358 2.70967742,103.5 5.93548387,103.5 L146.064516,103.5 C149.290323,103.5 152,105.877358 152,108.707547 L152,122.292453 C152,125.235849 149.290323,127.5 146.064516,127.5 Z" id="Path-Copy-14" fill="#1D1D4D" fill-rule="nonzero"></path>
            <path d="M146.064516,177.5 L5.93548387,177.5 C2.70967742,177.5 0,172.695755 0,166.976415 L0,139.523585 C0,133.804245 2.70967742,129 5.93548387,129 L146.064516,129 C149.290323,129 152,133.804245 152,139.523585 L152,166.976415 C152,172.924528 149.290323,177.5 146.064516,177.5 Z" id="Path-Copy-15" fill="#1D1D4D" fill-rule="nonzero"></path>
            <path d="M146.064516,203.5 L5.93548387,203.5 C2.70967742,203.5 0,201.122642 0,198.292453 L0,184.707547 C0,181.877358 2.70967742,179.5 5.93548387,179.5 L146.064516,179.5 C149.290323,179.5 152,181.877358 152,184.707547 L152,198.292453 C152,201.235849 149.290323,203.5 146.064516,203.5 Z" id="Path-Copy-16" fill="#1D1D4D" fill-rule="nonzero"></path>
            <g id="existing_mainframe_systems_runtime" transform="translate(57.000000, 0.000000)" fill="#FFFFFF" font-family="IBMPlexSans, IBM Plex Sans" font-size="16" font-weight="normal">
                <g id="CICS">
                    <text>
                        <tspan x="0.13476111" y="16.5721">CICS</tspan>
                    </text>
                </g>
            </g>
            <g id="existing_mainframe_systems_runtime" transform="translate(60.000000, 23.000000)" fill="#FFFFFF" font-family="IBMPlexSans, IBM Plex Sans" font-size="16" font-weight="normal">
                <g id="IMS">
                    <text>
                        <tspan x="0.7274" y="16.941">IMS</tspan>
                    </text>
                </g>
            </g>
            <g id="existing_mainframe_systems_runtime" transform="translate(60.500000, 49.000000)" fill="#FFFFFF" font-family="IBMPlexSans, IBM Plex Sans" font-size="16" font-weight="normal">
                <g id="Db2">
                    <text>
                        <tspan x="0.0514" y="16.5416">Db2</tspan>
                    </text>
                </g>
            </g>
            <g id="existing_mainframe_systems_runtime" transform="translate(62.500000, 77.500000)" fill="#FFFFFF" font-family="IBMPlexSans, IBM Plex Sans" font-size="16" font-weight="normal">
                <g id="MQ">
                    <text>
                        <tspan x="0.1477" y="16.4506">MQ</tspan>
                    </text>
                </g>
            </g>
            <g id="existing_mainframe_systems_runtime" transform="translate(53.500000, 100.500000)" fill="#FFFFFF" font-family="IBMPlexSans, IBM Plex Sans" font-size="16" font-weight="normal">
                <g id="Batch">
                    <text>
                        <tspan x="0.8759" y="16.4512">Batch</tspan>
                    </text>
                </g>
            </g>
            <g id="existing_mainframe_systems_runtime" transform="translate(11.000000, 129.500000)">
                <rect id="Rectangle" x="20.8326558" y="6.18626943" width="127.530488" height="10.1984456"></rect>
                <g id="WebSphere-Applicatio" fill="#FFFFFF" font-family="IBMPlexSans, IBM Plex Sans" font-size="16" font-weight="normal">
                    <text id="WebSphere">
                        <tspan x="24.4449512" y="16.6178756">WebSphere</tspan>
                    </text>
                    <text id="Application-Server">
                        <tspan x="0.14095122" y="36.6178756">Application Server</tspan>
                    </text>
                </g>
            </g>
            <g id="existing_mainframe_systems_runtime" transform="translate(65.000000, 176.000000)" fill="#FFFFFF" font-family="IBMPlexSans, IBM Plex Sans" font-size="18" font-weight="normal">
                <g id="....">
                    <text>
                        <tspan x="0.208" y="18.4095">....</tspan>
                    </text>
                </g>
            </g>
        </g>
        <path d="M587,506.5 L587,327.672599" id="Path-6" stroke="#457AB9" stroke-width="4"></path>
        <polyline id="Path-7" stroke="#457AB9" stroke-width="4" points="587 254.5 587 113.30077 1161.1738 113.30077 1161.1738 635.5 587 635.5 587 558.5"></polyline>
        <g id="Group" transform="translate(655.000000, 577.000000)" fill="#CFD2D3" font-family="IBMPlexSans-Medium, IBM Plex Sans" font-size="13" font-weight="400">
            <g id="MAINFRAME">
                <g id="Group">
                    <text id="MAINFRAME-DATA-VIRTU">
                        <tspan x="0.3895" y="13">MAINFRAME DATA</tspan>
                        <tspan x="1.813" y="30"> VIRTUALIZATION</tspan>
                    </text>
                </g>
            </g>
        </g>
    </g>
</svg>
